<?xml version="1.0" encoding="UTF-8" standalone="no"?>
<!-- Created with Inkscape (http://www.inkscape.org/) -->

<svg
   xmlns:dc="http://purl.org/dc/elements/1.1/"
   xmlns:cc="http://creativecommons.org/ns#"
   xmlns:rdf="http://www.w3.org/1999/02/22-rdf-syntax-ns#"
   xmlns:svg="http://www.w3.org/2000/svg"
   xmlns="http://www.w3.org/2000/svg"
   xmlns:sodipodi="http://sodipodi.sourceforge.net/DTD/sodipodi-0.dtd"
   xmlns:inkscape="http://www.inkscape.org/namespaces/inkscape"
   version="1.1"
   id="svg48"
   xml:space="preserve"
   width="588.70667"
   height="180.644"
   viewBox="0 0 588.70667 180.644"
   sodipodi:docname="londonCitySkyline.svg"
   inkscape:version="0.92.2 (5c3e80d, 2017-08-06)"><metadata
     id="metadata54"><rdf:RDF><cc:Work
         rdf:about=""><dc:format>image/svg+xml</dc:format><dc:type
           rdf:resource="http://purl.org/dc/dcmitype/StillImage" /><dc:title></dc:title></cc:Work></rdf:RDF></metadata><defs
     id="defs52"><clipPath
       clipPathUnits="userSpaceOnUse"
       id="clipPath80"><path
         d="M 0,500 H 500 V 0 H 0 Z"
         id="path78"
         inkscape:connector-curvature="0" /></clipPath><clipPath
       clipPathUnits="userSpaceOnUse"
       id="clipPath96"><path
         d="M 0,500 H 500 V 0 H 0 Z"
         id="path94"
         inkscape:connector-curvature="0" /></clipPath></defs><sodipodi:namedview
     pagecolor="#ffffff"
     bordercolor="#666666"
     borderopacity="1"
     objecttolerance="10"
     gridtolerance="10"
     guidetolerance="10"
     inkscape:pageopacity="0"
     inkscape:pageshadow="2"
     inkscape:window-width="1328"
     inkscape:window-height="770"
     id="namedview50"
     showgrid="false"
     inkscape:zoom="1.4744185"
     inkscape:cx="294.35333"
     inkscape:cy="90.322004"
     inkscape:window-x="0"
     inkscape:window-y="23"
     inkscape:window-maximized="0"
     inkscape:current-layer="g56" /><g
     id="g56"
     inkscape:groupmode="layer"
     inkscape:label="252656-P4JXW1-854"
     transform="matrix(1.3333333,0,0,-1.3333333,-39.058666,494.05465)"><g
       id="g60"
       transform="translate(436.9242,291.1647)"><path
         d="m 0,0 h 4.37 l 4.253,3.307 v 1.89 H 9.568 V 3.307 L 13.82,0 h 4.252 v -3.071 h 0.709 V -9.45 -24.569 H 19.49 V -48.783 H 0 Z"
         style="fill:#b3b3b3;fill-opacity:1;fill-rule:evenodd;stroke:none"
         id="path62"
         inkscape:connector-curvature="0" /></g><g
       id="g64"
       transform="translate(418.2613,291.1647)"><path
         d="m 0,0 h 4.252 l 4.253,3.307 v 1.89 H 9.45 V 3.307 L 13.702,0 h 4.252 v -3.071 h 0.709 V -9.45 -24.569 h 0.709 V -48.783 H 0 Z"
         style="fill:#b3b3b3;fill-opacity:1;fill-rule:evenodd;stroke:none"
         id="path66"
         inkscape:connector-curvature="0" /></g><g
       id="g68"
       transform="translate(399.4803,291.1647)"><path
         d="m 0,0 h 4.37 l 4.253,3.307 v 1.89 H 9.568 V 3.307 L 13.82,0 h 4.252 v -3.071 h 0.709 V -9.45 -24.569 H 19.49 V -48.783 H 0 Z"
         style="fill:#b3b3b3;fill-opacity:1;fill-rule:evenodd;stroke:none"
         id="path70"
         inkscape:connector-curvature="0" /></g><path
       d="m 67.328,311.009 h 23.27 V 261.635 H 67.328 Z M 43.35,302.386 65.084,313.725 V 257.028 H 43.35 Z m 153.437,15.474 h 15.592 v -6.261 h 1.89 v -3.898 h 3.307 v -47.72 h -23.742 v 47.72 h 1.181 v 3.898 h 1.772 z m 56.343,-29.766 h 29.412 v -38.626 h -40.279 v 1.772 h -8.504 v 48.665 h 19.371 z m 58.351,47.011 h 14.293 V 260.69 h -14.293 v 3.425 h -8.977 v -18.426 h -9.568 v 5.197 h -7.323 v 49.728 h 0.945 v 19.726 h 8.623 v -5.67 h 7.323 v -30.593 h 8.977 z m 19.136,0 h 14.292 V 260.69 h -14.292 z m -174.463,28.585 -28.112,-90.007 -29.885,2.953 v -16.182 h 30.948 v 3.661 l 37.207,-6.614 6.615,-4.016 h 19.844 v 43.586 h -1.299 v 9.331 h -1.181 v 2.244 h -14.175 v -2.244 h -2.598 v -9.331 h -0.591 v -31.302 z"
       style="fill:#b3b3b3;fill-opacity:1;fill-rule:evenodd;stroke:none"
       id="path72"
       inkscape:connector-curvature="0" /><path
       d="m 255.02,302.977 h 1.772 v -17.245 h -1.772 z m -2.953,0 h 1.772 v -17.245 h -1.772 z m -2.953,0 h 1.772 v -17.245 h -1.772 z m -3.071,0 h 1.772 v -17.245 h -1.772 z m -2.953,0 h 1.772 v -17.245 h -1.772 z m 6.851,23.86 c 5.552,0 10.04,-4.489 10.04,-9.922 0,-5.552 -4.488,-10.04 -10.04,-10.04 -5.434,0 -9.922,4.488 -9.922,10.04 0,5.433 4.488,9.922 9.922,9.922 m 0,-10.04 3.662,4.016 -0.591,0.59 -4.016,-4.252 v -7.323 h 0.945 z m 27.167,-48.311 v -4.843 h 0.709 v 1.535 c 0,0.591 0.236,1.182 0.591,1.654 v 0.591 c -0.355,0.354 -0.827,0.708 -1.3,1.063 m -5.787,6.733 v -1.772 c 0,-1.063 -0.709,-1.89 -1.536,-2.245 v -1.417 h 1.772 v 4.961 c 0,0.118 -0.118,0.236 -0.236,0.473 m -4.135,12.756 c -0.236,-0.945 -1.181,-1.771 -2.244,-1.771 -0.827,0 -1.654,0.59 -2.008,1.299 v -6.378 h 5.552 c -0.709,2.244 -1.181,4.488 -1.3,6.85 m 11.222,-17.954 c -0.355,0.355 -0.827,0.709 -1.3,1.181 v -1.299 c 0.473,-0.354 0.945,-0.709 1.3,-1.063 z m -4.725,32.719 20.553,-11.812 -11.812,20.553 c -1.772,-1.063 -3.426,-2.362 -4.843,-3.78 -1.536,-1.535 -2.835,-3.189 -3.898,-4.961 m -1.654,1.063 0.709,-0.472 c 1.181,1.89 2.481,3.544 4.016,5.079 1.536,1.536 3.189,2.835 5.079,4.016 l -0.354,0.473 c -0.355,-0.237 -0.709,-0.473 -1.299,-0.473 -1.418,-0.945 -2.835,-2.126 -4.017,-3.307 -1.653,-1.654 -3.071,-3.426 -4.134,-5.316 m 24.805,-15.119 -0.59,0.355 0.59,-1.064 z m -26.577,1.654 h 1.3 v 6.496 h 5.551 v -6.496 h 1.3 v 0.945 h 5.551 v -0.945 h 2.008 v 0.945 h 5.434 v -0.945 h 2.48 l -20.552,11.812 c -1.89,-3.544 -3.072,-7.56 -3.072,-11.812 m -2.008,0 h 0.827 c 0.118,4.488 1.3,8.741 3.308,12.402 l -0.709,0.473 c -2.126,-3.898 -3.426,-8.269 -3.426,-12.875 m 0.827,-0.709 h -0.827 c 0,-2.953 0.473,-5.788 1.418,-8.504 h 0.118 v -0.119 c 0.472,-1.417 1.063,-2.834 1.772,-4.134 v 2.008 c -1.536,3.189 -2.363,6.851 -2.481,10.749 m 2.481,0 h -1.3 c 0,-2.835 0.473,-5.433 1.3,-7.914 z m 25.277,0 h -0.236 l 0.236,-0.118 z m 16.183,0 h -7.678 v -5.079 l 0.827,-0.473 h 6.851 z m -21.616,-1.417 2.48,1.417 h -2.48 z m -7.087,-4.135 1.653,0.945 v 4.607 h -2.008 v -5.552 z m -7.206,-4.134 1.3,0.709 v 8.977 h -1.3 z m 1.3,-0.118 -1.3,-0.709 v -6.378 c 0.119,-0.236 0.237,-0.354 0.473,-0.472 0.236,-0.237 0.591,-0.591 0.827,-0.827 z m 7.559,4.371 -0.236,-0.119 h 0.236 z m 10.867,6.26 -0.236,-0.118 h 0.236 z m 17.482,10.158 -8.977,-5.197 v -5.079 h 6.733 v 8.741 h 2.244 z m -22.915,-16.418 2.835,4.843 -2.835,-1.654 z m 5.433,7.795 -0.59,-1.063 0.59,0.355 z m 5.316,9.214 -2.126,-3.662 v -1.299 h 2.126 z m 5.906,10.276 -4.134,-7.087 v -8.15 h 1.417 l 9.922,5.788 v 0.826 l 0.945,0.591 c -0.945,1.536 -2.008,2.953 -3.307,4.252 -1.418,1.418 -3.071,2.717 -4.843,3.78 m 0.827,1.418 -0.355,-0.473 c 1.89,-1.181 3.544,-2.48 5.079,-4.016 1.418,-1.299 2.481,-2.717 3.544,-4.37 l 0.827,0.59 c -1.063,1.536 -2.363,3.071 -3.662,4.489 -1.299,1.181 -2.599,2.362 -4.134,3.307 -0.473,0 -0.945,0.236 -1.299,0.473 m -14.057,3.189 v 0.472 c -0.354,0 -0.708,0.118 -0.945,0.355 -4.252,-0.237 -8.268,-1.418 -11.812,-3.308 v -0.118 l 0.355,-0.708 c 3.662,2.008 7.914,3.189 12.402,3.307 m 0,-24.805 v 23.624 c -4.252,0 -8.268,-1.182 -11.812,-3.071 z m 0,-7.206 v 4.607 l -2.598,-4.607 z m 0.709,4.607 v -4.607 h 1.299 v 2.363 z m 0,26.223 v -23.624 l 1.299,2.126 v 2.835 h 1.3 v 14.765 h 1.89 v -12.048 l 2.126,3.661 v 2.126 h 1.181 l 4.016,7.088 c -3.425,1.889 -7.442,3.071 -11.812,3.071 m 0,1.653 v -0.472 c 4.489,-0.118 8.741,-1.299 12.403,-3.307 l 0.472,0.708 v 0.118 c -3.543,1.89 -7.56,3.071 -11.812,3.308 -0.354,-0.237 -0.709,-0.355 -1.063,-0.355 M 29.294,263.052 h 5.669 v 2.363 h 5.434 v 13.583 h 4.488 v 2.717 h 15.356 v -2.717 -7.559 h 1.417 v 4.252 h 4.489 v -4.252 h 2.008 v 6.378 h 6.851 v -2.835 h 2.953 v -3.543 -6.024 h 1.181 v 16.891 h 6.733 v -16.891 h 2.008 v 18.781 h 6.615 v 24.096 h 3.071 v 2.362 h 2.362 v 10.041 h 0.827 v -10.041 h 2.362 v -2.362 h 1.063 v -24.096 -3.19 h 5.67 v 26.932 c 0,18.663 4.134,33.9 9.095,33.9 5.08,0 9.214,-15.237 9.214,-33.9 v -26.932 -6.732 h 5.197 v 7.795 h 7.914 v 5.316 h 1.181 v 13.82 h 2.599 v 3.071 h 7.914 v -3.071 h 2.598 v -13.82 h 1.064 v -5.316 -7.795 -0.945 -4.371 h 4.37 v 3.189 h 4.843 v 24.097 h 1.772 v 20.434 2.835 h 1.181 v 12.285 h 1.181 v 2.244 h 8.032 v -2.244 h 1.299 v -12.285 h 1.182 v -2.835 h 2.008 v -20.434 h 1.771 v -24.097 -1.771 h 7.914 v 10.985 1.772 h 11.34 v -1.772 h 1.772 v -10.985 h 2.362 v 9.449 4.843 8.623 h 2.599 v 3.071 h 1.417 v -3.071 h 4.016 v 3.071 h 1.3 v -3.071 h 2.716 v -8.623 h 11.576 v -4.843 h 4.37 v -8.386 h 1.3 v 9.686 23.387 h -1.3 v 24.687 l 6.851,10.631 v 11.812 h -1.417 l 7.796,10.04 v 3.898 h 0.709 v 4.961 h 0.826 v -4.961 h 0.709 v -4.016 l 7.678,-9.922 h -1.418 V 339.83 l 6.851,-10.631 v -24.687 h -1.299 v -12.048 c 0.354,0.709 1.181,1.181 2.008,1.181 1.063,0 2.008,-0.709 2.244,-1.654 0.237,3.308 1.063,6.497 2.363,9.45 -0.118,0 -0.355,-0.118 -0.473,-0.118 -1.299,0 -2.362,1.063 -2.362,2.362 v 2.835 c 0,1.3 1.063,2.244 2.362,2.244 1.181,0 2.245,-0.944 2.245,-2.244 v -1.772 c 1.181,1.89 2.48,3.544 4.016,5.08 1.063,1.063 2.244,2.126 3.543,2.953 -0.708,0.472 -1.063,1.181 -1.063,1.889 v 2.953 c 0,1.182 1.063,2.245 2.244,2.245 1.3,0 2.363,-1.063 2.363,-2.245 v -2.716 c 3.189,1.771 6.851,2.835 10.631,3.071 -0.119,0.236 -0.119,0.472 -0.119,0.827 v 2.834 c 0,1.3 1.064,2.245 2.245,2.245 1.299,0 2.362,-0.945 2.362,-2.245 v -2.834 c 0,-0.355 -0.118,-0.591 -0.236,-0.827 3.898,-0.236 7.441,-1.3 10.749,-3.071 v 2.716 c 0,1.182 1.063,2.245 2.244,2.245 1.299,0 2.244,-1.063 2.244,-2.245 v -2.953 c 0,-0.708 -0.354,-1.417 -0.945,-1.889 1.182,-0.827 2.363,-1.89 3.426,-2.953 1.417,-1.418 2.717,-2.953 3.78,-4.607 l 0.354,0.118 v 1.181 c 0,0.827 0.472,1.654 1.181,2.008 v 1.181 h 1.536 v -0.945 c 1.063,-0.236 1.772,-1.181 1.772,-2.244 v -1.535 l 3.189,-2.127 v -1.535 h 1.772 v -2.244 h 1.653 v 8.977 h 1.181 v 3.189 h 2.481 v 3.544 h 1.654 v -3.544 h 2.244 v 8.505 h 1.299 l 0.591,11.93 h 0.709 v -11.93 h 1.653 l 0.591,19.135 h 0.709 V 319.75 h 3.189 v 19.135 h 0.708 l 0.709,-19.135 h 1.654 v 11.93 h 0.709 l 0.59,-11.93 h 1.181 v -8.505 h 1.536 v -3.189 h 0.945 v -1.3 h 2.362 v -1.299 h 3.189 v -2.008 h 5.434 l 5.433,4.607 v 2.717 h 1.182 v -2.717 l 5.315,-4.607 h 5.434 v -4.37 h 0.826 v -8.977 -21.262 h 2.953 v 57.17 h 3.308 v 4.016 h 4.37 v 10.867 h 0.945 v -10.867 h 4.37 v -4.016 h 3.308 v -46.067 h 2.362 v -16.3 h 1.772 v 18.426 h 32.365 v -18.426 h 2.48 v 16.3 h 6.497 v -16.3 h 1.772 v 8.623 h 2.126 v 4.252 h 6.615 v -4.252 -4.371 h 2.48 v 5.906 h 4.252 v -5.906 h 2.953 v -4.252 h 2.126 v -9.095 -8.505 -10.985 H 29.294 v 10.985 8.505 z"
       style="fill:#1e1e1e;fill-opacity:1;fill-rule:evenodd;stroke:none"
       id="path84"
       inkscape:connector-curvature="0" /></g></svg>