<?xml version="1.0" encoding="UTF-8" standalone="no"?>
<svg
   xmlns:dc="http://purl.org/dc/elements/1.1/"
   xmlns:cc="http://creativecommons.org/ns#"
   xmlns:rdf="http://www.w3.org/1999/02/22-rdf-syntax-ns#"
   xmlns:svg="http://www.w3.org/2000/svg"
   xmlns="http://www.w3.org/2000/svg"
   xmlns:xlink="http://www.w3.org/1999/xlink"
   xmlns:sodipodi="http://sodipodi.sourceforge.net/DTD/sodipodi-0.dtd"
   xmlns:inkscape="http://www.inkscape.org/namespaces/inkscape"
   version="1.1"
   preserveAspectRatio="xMidYMid meet"
   viewBox="0 0 650.09003 144.05"
   width="650.09003"
   height="144.05"
   id="svg640"
   sodipodi:docname="southamptonCitySkyline.svg"
   inkscape:version="0.92.2 (5c3e80d, 2017-08-06)">
  <metadata
     id="metadata644">
    <rdf:RDF>
      <cc:Work
         rdf:about="">
        <dc:format>image/svg+xml</dc:format>
        <dc:type
           rdf:resource="http://purl.org/dc/dcmitype/StillImage" />
        <dc:title></dc:title>
      </cc:Work>
    </rdf:RDF>
  </metadata>
  <sodipodi:namedview
     pagecolor="#ffffff"
     bordercolor="#666666"
     borderopacity="1"
     objecttolerance="10"
     gridtolerance="10"
     guidetolerance="10"
     inkscape:pageopacity="0"
     inkscape:pageshadow="2"
     inkscape:window-width="1377"
     inkscape:window-height="794"
     id="namedview642"
     showgrid="false"
     inkscape:zoom="1.090625"
     inkscape:cx="320.21"
     inkscape:cy="138.6"
     inkscape:window-x="0"
     inkscape:window-y="23"
     inkscape:window-maximized="0"
     inkscape:current-layer="svg640" />
  <defs
     id="defs402">
    <path
       d="m 64.4,366.64 52.51,9.75 51.87,11 25.78,6.45 24.53,7.7 12.89,5.19 21.38,7.38 27.03,9.75 22.33,8.18 5.03,4.71 6.28,7.77 -4.08,-0.85 -5.03,-4.09 -8.49,-2.83 -11.32,-3.46 -6.29,-1.25 -3.46,1.25 v 8.33 l 2.52,3.93 -4.4,2.83 h -14.15 v -3.86 l 6.92,-2.9 v -9.58 l -4.41,-4.41 -8.48,-3.77 -11.64,-3.52 -8.8,-1.51 h -6.29 l -4.4,0.57 v 25.12 l 13.2,1.82 v 5.19 l -9.43,1.26 -27.35,-2.52 v -5.75 l 12.26,-2.9 V 419.4 l -2.51,-2.61 -9.75,-5.35 -11.63,-4.71 -10.06,-3.15 -11.32,-3.14 -9.75,-1.89 -11.95,-1.57 -15.72,-1.57 h -13.2 -13.52 l -16.35,1.57 v 45.9 l 4.72,3.46 h 12.89 v 11 l -14.78,1.26 -37.73,-3.77 v -8.49 h 5.35 v -3.46 l 8.17,-1.26 0.63,-44.64 -8.8,-3.14 -36.16,-8.81 -19.65,-4.71 v -26.73 z"
       id="b1e2bpbDu"
       inkscape:connector-curvature="0" />
    <path
       d="m 27.62,341.8 c -1.27,1.12 -2.05,1.83 -2.37,2.11 -0.27,0.24 -0.34,0.63 -0.16,0.95 0.17,0.3 0.59,1.07 1.27,2.29 0,7.07 0,11.79 0,14.15"
       id="a1nOr3eSe6"
       inkscape:connector-curvature="0" />
    <path
       d="m 118.89,356.99 c -1.27,1.12 -2.05,1.82 -2.37,2.1 -0.27,0.24 -0.34,0.64 -0.16,0.96 0.17,0.3 0.59,1.06 1.27,2.28 0,7.08 0,11.79 0,14.15"
       id="b7aL3m2uHb"
       inkscape:connector-curvature="0" />
    <path
       d="m 137.53,367.46 c -1.26,1.12 -2.05,1.82 -2.37,2.1 -0.27,0.24 -0.33,0.64 -0.16,0.95 0.17,0.31 0.6,1.07 1.27,2.29 0,7.08 0,11.79 0,14.15"
       id="b8XFCNWlN"
       inkscape:connector-curvature="0" />
    <path
       d="m 129.14,367.24 c -1.27,1.12 -2.05,1.82 -2.37,2.1 -0.27,0.24 -0.34,0.64 -0.16,0.95 0.17,0.31 0.59,1.07 1.27,2.29 0,7.08 0,11.79 0,14.15"
       id="b7sI3IEJSK"
       inkscape:connector-curvature="0" />
    <path
       d="m 192.42,376.48 c -1.26,1.12 -2.05,1.82 -2.36,2.1 -0.27,0.25 -0.34,0.64 -0.16,0.96 0.17,0.3 0.59,1.07 1.27,2.29 0,7.07 0,11.79 0,14.14"
       id="b1M6w4p8B"
       inkscape:connector-curvature="0" />
    <path
       d="m 198.49,386.95 c -1.26,1.12 -2.05,1.82 -2.36,2.1 -0.27,0.24 -0.34,0.64 -0.17,0.96 0.17,0.3 0.6,1.07 1.27,2.29 0,7.07 0,11.79 0,14.14"
       id="b54Bl0kuFq"
       inkscape:connector-curvature="0" />
    <path
       d="m 235.71,397.84 c -0.64,0.72 -1.04,1.17 -1.2,1.35 -0.13,0.14 -0.16,0.35 -0.09,0.52 0.09,0.2 0.31,0.7 0.67,1.5 0,4.47 0,7.45 0,8.94"
       id="a4UV3SiTa3"
       inkscape:connector-curvature="0" />
    <path
       d="m 232.64,401.42 c -0.65,0.73 -1.05,1.18 -1.21,1.36 -0.13,0.14 -0.16,0.34 -0.08,0.52 0.09,0.2 0.31,0.7 0.66,1.5 0,4.47 0,7.45 0,8.94"
       id="a5khScErp"
       inkscape:connector-curvature="0" />
    <path
       d="m 258.95,410.65 c -0.65,0.72 -1.05,1.17 -1.21,1.36 -0.13,0.14 -0.16,0.34 -0.08,0.51 0.08,0.2 0.3,0.7 0.66,1.51 0,4.47 0,7.45 0,8.94"
       id="e5spcnXsr"
       inkscape:connector-curvature="0" />
    <path
       d="m 261.85,406.1 c -0.64,0.72 -1.05,1.17 -1.21,1.36 -0.12,0.14 -0.16,0.34 -0.08,0.51 0.09,0.2 0.31,0.7 0.66,1.5 0,4.48 0,7.46 0,8.95"
       id="a38wG4KBmk"
       inkscape:connector-curvature="0" />
    <path
       d="m 279.52,419.7 c -0.64,0.73 -1.04,1.18 -1.21,1.36 -0.12,0.14 -0.15,0.34 -0.08,0.51 0.09,0.21 0.31,0.71 0.66,1.51 0,4.47 0,7.45 0,8.94"
       id="a4HW8eERn"
       inkscape:connector-curvature="0" />
    <path
       d="m 282.43,415.15 c -0.65,0.73 -1.05,1.18 -1.21,1.36 -0.13,0.14 -0.16,0.34 -0.08,0.51 0.09,0.2 0.31,0.71 0.66,1.51 0,4.47 0,7.45 0,8.94"
       id="aNZXLe9Xc"
       inkscape:connector-curvature="0" />
    <path
       d="m 295.41,424.67 c -0.25,0.28 -0.41,0.45 -0.47,0.52 -0.05,0.05 -0.06,0.13 -0.03,0.2 0.03,0.07 0.12,0.27 0.25,0.58 0,1.71 0,2.86 0,3.43"
       id="lJzoOxVMS"
       inkscape:connector-curvature="0" />
    <path
       d="m 306.66,431.43 c -0.25,0.28 -0.41,0.45 -0.47,0.52 -0.05,0.06 -0.06,0.14 -0.03,0.2 0.04,0.08 0.12,0.27 0.26,0.58 0,1.72 0,2.86 0,3.44"
       id="aH7Tan4M"
       inkscape:connector-curvature="0" />
    <path
       d="m 452.99,317.68 -38.6,3.92"
       id="a2ZmxOZfC"
       inkscape:connector-curvature="0" />
    <path
       d="m 460.97,319.36 -48.63,4.2"
       id="c3MHD0T4uM"
       inkscape:connector-curvature="0" />
    <path
       d="m 468.54,321.32 -58.63,4.49"
       id="bT1f8vu5X"
       inkscape:connector-curvature="0" />
    <path
       d="m 299.2,458.6 350.68,-5.34 v -74.99 h -7.23 l -1.89,-4.71 -17.29,1.57 -1.57,-2.52 -5.66,0.95 -2.2,-2.52 h -4.72 l -7.23,17.61 -232.02,0.94 -24.53,-3.46 -10.69,2.52 v 2.51 l -7.23,2.52 -0.94,7.86 h -26.27 z"
       id="m2FgZz5rJQ"
       inkscape:connector-curvature="0" />
    <path
       d="m 368.09,364.28 4.4,-3.46 34.9,-32.69 4.4,-4.41 7.54,-6.28 8.81,-1.89 h 7.54 l 16.35,1.89 26.72,6.28 55.02,16.35 69.17,17.3 7.86,6.91 -7.86,25.78 h -13.2 l -42.13,-3.77 -43.08,-4.72 -33.32,-2.83 -38.67,1.89 -35.53,5.66 -27.35,6.29 -1.57,-8.11 -3.15,-14.53 z"
       id="b87ubVelI"
       inkscape:connector-curvature="0" />
    <path
       d="m 606.87,387.04 c -12.41,-1.46 -37.24,-4.4 -74.49,-8.8 l -74.81,-7.2 -17.74,-1.29 -15.48,1.29 -17.41,4.37 -38.38,12.58"
       id="f6fjISzQIw"
       inkscape:connector-curvature="0" />
    <path
       d="m 606.87,388.58 c -12.41,-1.46 -37.24,-4.4 -74.49,-8.8 l -74.81,-7.2 -17.74,-1.29 -15.48,1.29 -17.41,4.37 -38.38,12.58"
       id="ahMODCZlk"
       inkscape:connector-curvature="0" />
    <path
       d="m 606.52,390.12 c -12.41,-1.47 -37.24,-4.4 -74.49,-8.8 l -74.81,-7.2 -17.74,-1.29 -15.48,1.29 -17.41,4.37 -38.38,12.57"
       id="bAlooaodV"
       inkscape:connector-curvature="0" />
    <path
       d="m 606.52,383.99 c -12.41,-1.47 -37.24,-4.4 -74.49,-8.8 l -74.81,-7.2 -17.74,-1.29 -15.48,1.29 -17.41,4.37 -38.38,12.58"
       id="c5QfTKRjNj"
       inkscape:connector-curvature="0" />
    <path
       d="m 606.17,385.53 c -12.41,-1.47 -37.24,-4.4 -74.49,-8.8 l -74.81,-7.2 -17.74,-1.29 -15.48,1.29 -17.41,4.37 -38.37,12.57"
       id="c35OP4PnRV"
       inkscape:connector-curvature="0" />
    <path
       d="m 607.91,379.45 c -12.55,-1.46 -37.64,-4.4 -75.28,-8.8 l -75.6,-7.2 -17.92,-1.29 -15.64,1.29 -17.6,4.37 -38.78,12.58"
       id="aPcFz3OF"
       inkscape:connector-curvature="0" />
    <path
       d="m 607.91,380.99 c -12.55,-1.47 -37.64,-4.4 -75.28,-8.8 l -75.6,-7.2 -17.92,-1.29 -15.64,1.29 -17.6,4.37 -38.78,12.57"
       id="n3fp0idVmT"
       inkscape:connector-curvature="0" />
    <path
       d="m 607.56,382.53 c -12.55,-1.47 -37.64,-4.4 -75.28,-8.8 l -75.6,-7.2 -17.92,-1.29 -15.64,1.29 -17.6,4.37 -38.78,12.57"
       id="eaoAlXVoKT"
       inkscape:connector-curvature="0" />
    <path
       d="m 607.56,376.4 c -12.55,-1.47 -37.64,-4.4 -75.28,-8.8 l -75.6,-7.2 -17.92,-1.29 -15.64,1.29 -17.6,4.37 -38.78,12.57"
       id="a69chLO2ER"
       inkscape:connector-curvature="0" />
    <path
       d="m 607.2,377.94 c -12.54,-1.47 -37.63,-4.4 -75.27,-8.8 l -75.6,-7.2 -17.93,-1.29 -15.64,1.29 -17.59,4.37 -38.78,12.57"
       id="gDJnNg6JF"
       inkscape:connector-curvature="0" />
    <path
       d="m 609.39,371.8 c -12.68,-1.47 -38.03,-4.4 -76.06,-8.8 l -76.39,-7.2 -18.11,-1.29 -15.8,1.29 -17.78,4.37 -39.19,12.57"
       id="cv82OCDWz"
       inkscape:connector-curvature="0" />
    <path
       d="m 609.39,373.34 c -12.68,-1.47 -38.03,-4.4 -76.06,-8.81 l -76.39,-7.2 -18.11,-1.28 -15.8,1.28 -17.78,4.37 -39.19,12.58"
       id="b9GlKoG5JQ"
       inkscape:connector-curvature="0" />
    <path
       d="m 609.03,374.87 c -12.68,-1.46 -38.03,-4.4 -76.06,-8.8 l -76.39,-7.2 -18.11,-1.29 -15.8,1.29 -17.78,4.37 -39.18,12.58"
       id="c6euHsNrR"
       inkscape:connector-curvature="0" />
    <path
       d="m 609.03,368.75 c -12.68,-1.47 -38.03,-4.4 -76.06,-8.81 l -76.39,-7.2 -18.11,-1.29 -15.8,1.29 -17.78,4.37 -39.18,12.58"
       id="d32VrITke5"
       inkscape:connector-curvature="0" />
    <path
       d="m 608.67,370.28 c -12.67,-1.46 -38.03,-4.4 -76.06,-8.8 l -76.38,-7.2 -18.11,-1.29 -15.81,1.29 -17.78,4.37 -39.18,12.58"
       id="a3QcdTTSvi"
       inkscape:connector-curvature="0" />
    <path
       d="m 609.39,389.67 c -12.42,-1.11 -37.25,-3.34 -74.49,-6.68 l -74.82,-5.46 -17.73,-0.98 -15.48,0.98 -17.42,3.32 -38.37,9.54"
       id="eCXBjihBT"
       inkscape:connector-curvature="0" />
    <path
       d="m 324.1,458.6 h 47.15 l -2.14,-69.91 -24.5,-4.22 -11.19,3.19 v 4.1 l -8.26,2.05 v 8.46"
       id="a99gwO3eo"
       inkscape:connector-curvature="0" />
  </defs>
  <g
     id="g638"
     transform="translate(0.2100005,-314.55)">
    <g
       id="g636">
      <g
         id="g490">
        <g
           id="g410">
          <use
             xlink:href="#b1e2bpbDu"
             id="use404"
             style="opacity:1;fill:#000000;fill-opacity:1"
             x="0"
             y="0"
             width="100%"
             height="100%" />
          <g
             id="g408">
            <use
               xlink:href="#b1e2bpbDu"
               id="use406"
               style="opacity:1;fill-opacity:0;stroke:#000000;stroke-width:0;stroke-opacity:1"
               x="0"
               y="0"
               width="100%"
               height="100%" />
          </g>
        </g>
        <g
           id="g416">
          <g
             id="g414">
            <use
               xlink:href="#a1nOr3eSe6"
               id="use412"
               style="opacity:1;fill-opacity:0;stroke:#000000;stroke-width:1.5;stroke-opacity:1"
               x="0"
               y="0"
               width="100%"
               height="100%" />
          </g>
        </g>
        <g
           id="g422">
          <g
             id="g420">
            <use
               xlink:href="#b7aL3m2uHb"
               id="use418"
               style="opacity:1;fill-opacity:0;stroke:#000000;stroke-width:1.5;stroke-opacity:1"
               x="0"
               y="0"
               width="100%"
               height="100%" />
          </g>
        </g>
        <g
           id="g428">
          <g
             id="g426">
            <use
               xlink:href="#b8XFCNWlN"
               id="use424"
               style="opacity:1;fill-opacity:0;stroke:#000000;stroke-width:1.5;stroke-opacity:1"
               x="0"
               y="0"
               width="100%"
               height="100%" />
          </g>
        </g>
        <g
           id="g434">
          <g
             id="g432">
            <use
               xlink:href="#b7sI3IEJSK"
               id="use430"
               style="opacity:1;fill-opacity:0;stroke:#000000;stroke-width:1.5;stroke-opacity:1"
               x="0"
               y="0"
               width="100%"
               height="100%" />
          </g>
        </g>
        <g
           id="g440">
          <g
             id="g438">
            <use
               xlink:href="#b1M6w4p8B"
               id="use436"
               style="opacity:1;fill-opacity:0;stroke:#000000;stroke-width:1.5;stroke-opacity:1"
               x="0"
               y="0"
               width="100%"
               height="100%" />
          </g>
        </g>
        <g
           id="g446">
          <g
             id="g444">
            <use
               xlink:href="#b54Bl0kuFq"
               id="use442"
               style="opacity:1;fill-opacity:0;stroke:#000000;stroke-width:1.5;stroke-opacity:1"
               x="0"
               y="0"
               width="100%"
               height="100%" />
          </g>
        </g>
        <g
           id="g452">
          <g
             id="g450">
            <use
               xlink:href="#a4UV3SiTa3"
               id="use448"
               style="opacity:1;fill-opacity:0;stroke:#000000;stroke-width:1.5;stroke-opacity:1"
               x="0"
               y="0"
               width="100%"
               height="100%" />
          </g>
        </g>
        <g
           id="g458">
          <g
             id="g456">
            <use
               xlink:href="#a5khScErp"
               id="use454"
               style="opacity:1;fill-opacity:0;stroke:#000000;stroke-width:1.5;stroke-opacity:1"
               x="0"
               y="0"
               width="100%"
               height="100%" />
          </g>
        </g>
        <g
           id="g464">
          <g
             id="g462">
            <use
               xlink:href="#e5spcnXsr"
               id="use460"
               style="opacity:1;fill-opacity:0;stroke:#000000;stroke-width:1.5;stroke-opacity:1"
               x="0"
               y="0"
               width="100%"
               height="100%" />
          </g>
        </g>
        <g
           id="g470">
          <g
             id="g468">
            <use
               xlink:href="#a38wG4KBmk"
               id="use466"
               style="opacity:1;fill-opacity:0;stroke:#000000;stroke-width:1.5;stroke-opacity:1"
               x="0"
               y="0"
               width="100%"
               height="100%" />
          </g>
        </g>
        <g
           id="g476">
          <g
             id="g474">
            <use
               xlink:href="#a4HW8eERn"
               id="use472"
               style="opacity:1;fill-opacity:0;stroke:#000000;stroke-width:1.5;stroke-opacity:1"
               x="0"
               y="0"
               width="100%"
               height="100%" />
          </g>
        </g>
        <g
           id="g482">
          <g
             id="g480">
            <use
               xlink:href="#aNZXLe9Xc"
               id="use478"
               style="opacity:1;fill-opacity:0;stroke:#000000;stroke-width:1.5;stroke-opacity:1"
               x="0"
               y="0"
               width="100%"
               height="100%" />
          </g>
        </g>
        <g
           id="g488">
          <g
             id="g486">
            <use
               xlink:href="#lJzoOxVMS"
               id="use484"
               style="opacity:1;fill-opacity:0;stroke:#000000;stroke-width:1.5;stroke-opacity:1"
               x="0"
               y="0"
               width="100%"
               height="100%" />
          </g>
        </g>
      </g>
      <g
         id="g496">
        <g
           id="g494">
          <use
             xlink:href="#aH7Tan4M"
             id="use492"
             style="opacity:1;fill-opacity:0;stroke:#000000;stroke-width:2;stroke-opacity:1"
             x="0"
             y="0"
             width="100%"
             height="100%" />
        </g>
      </g>
      <g
         id="g502">
        <g
           id="g500">
          <use
             xlink:href="#a2ZmxOZfC"
             id="use498"
             style="opacity:1;fill-opacity:0;stroke:#000000;stroke-width:1;stroke-opacity:1"
             x="0"
             y="0"
             width="100%"
             height="100%" />
        </g>
      </g>
      <g
         id="g508">
        <g
           id="g506">
          <use
             xlink:href="#c3MHD0T4uM"
             id="use504"
             style="opacity:1;fill-opacity:0;stroke:#000000;stroke-width:1;stroke-opacity:1"
             x="0"
             y="0"
             width="100%"
             height="100%" />
        </g>
      </g>
      <g
         id="g514">
        <g
           id="g512">
          <use
             xlink:href="#bT1f8vu5X"
             id="use510"
             style="opacity:1;fill-opacity:0;stroke:#000000;stroke-width:1;stroke-opacity:1"
             x="0"
             y="0"
             width="100%"
             height="100%" />
        </g>
      </g>
      <g
         id="g634">
        <g
           id="g522">
          <use
             xlink:href="#m2FgZz5rJQ"
             id="use516"
             style="opacity:1;fill:#000000;fill-opacity:1"
             x="0"
             y="0"
             width="100%"
             height="100%" />
          <g
             id="g520">
            <use
               xlink:href="#m2FgZz5rJQ"
               id="use518"
               style="opacity:1;fill-opacity:0;stroke:#000000;stroke-width:0;stroke-opacity:1"
               x="0"
               y="0"
               width="100%"
               height="100%" />
          </g>
        </g>
        <g
           id="g528">
          <g
             id="g526">
            <use
               xlink:href="#b87ubVelI"
               id="use524"
               style="opacity:1;fill-opacity:0;stroke:#000000;stroke-width:2;stroke-opacity:1"
               x="0"
               y="0"
               width="100%"
               height="100%" />
          </g>
        </g>
        <g
           id="g534">
          <g
             id="g532">
            <use
               xlink:href="#f6fjISzQIw"
               id="use530"
               style="opacity:1;fill-opacity:0;stroke:#000000;stroke-width:1;stroke-opacity:1"
               x="0"
               y="0"
               width="100%"
               height="100%" />
          </g>
        </g>
        <g
           id="g540">
          <g
             id="g538">
            <use
               xlink:href="#ahMODCZlk"
               id="use536"
               style="opacity:1;fill-opacity:0;stroke:#000000;stroke-width:1;stroke-opacity:1"
               x="0"
               y="0"
               width="100%"
               height="100%" />
          </g>
        </g>
        <g
           id="g546">
          <g
             id="g544">
            <use
               xlink:href="#bAlooaodV"
               id="use542"
               style="opacity:1;fill-opacity:0;stroke:#000000;stroke-width:1;stroke-opacity:1"
               x="0"
               y="0"
               width="100%"
               height="100%" />
          </g>
        </g>
        <g
           id="g552">
          <g
             id="g550">
            <use
               xlink:href="#c5QfTKRjNj"
               id="use548"
               style="opacity:1;fill-opacity:0;stroke:#000000;stroke-width:1;stroke-opacity:1"
               x="0"
               y="0"
               width="100%"
               height="100%" />
          </g>
        </g>
        <g
           id="g558">
          <g
             id="g556">
            <use
               xlink:href="#c35OP4PnRV"
               id="use554"
               style="opacity:1;fill-opacity:0;stroke:#000000;stroke-width:1;stroke-opacity:1"
               x="0"
               y="0"
               width="100%"
               height="100%" />
          </g>
        </g>
        <g
           id="g564">
          <g
             id="g562">
            <use
               xlink:href="#aPcFz3OF"
               id="use560"
               style="opacity:1;fill-opacity:0;stroke:#000000;stroke-width:1;stroke-opacity:1"
               x="0"
               y="0"
               width="100%"
               height="100%" />
          </g>
        </g>
        <g
           id="g570">
          <g
             id="g568">
            <use
               xlink:href="#n3fp0idVmT"
               id="use566"
               style="opacity:1;fill-opacity:0;stroke:#000000;stroke-width:1;stroke-opacity:1"
               x="0"
               y="0"
               width="100%"
               height="100%" />
          </g>
        </g>
        <g
           id="g576">
          <g
             id="g574">
            <use
               xlink:href="#eaoAlXVoKT"
               id="use572"
               style="opacity:1;fill-opacity:0;stroke:#000000;stroke-width:1;stroke-opacity:1"
               x="0"
               y="0"
               width="100%"
               height="100%" />
          </g>
        </g>
        <g
           id="g582">
          <g
             id="g580">
            <use
               xlink:href="#a69chLO2ER"
               id="use578"
               style="opacity:1;fill-opacity:0;stroke:#000000;stroke-width:1;stroke-opacity:1"
               x="0"
               y="0"
               width="100%"
               height="100%" />
          </g>
        </g>
        <g
           id="g588">
          <g
             id="g586">
            <use
               xlink:href="#gDJnNg6JF"
               id="use584"
               style="opacity:1;fill-opacity:0;stroke:#000000;stroke-width:1;stroke-opacity:1"
               x="0"
               y="0"
               width="100%"
               height="100%" />
          </g>
        </g>
        <g
           id="g594">
          <g
             id="g592">
            <use
               xlink:href="#cv82OCDWz"
               id="use590"
               style="opacity:1;fill-opacity:0;stroke:#000000;stroke-width:1;stroke-opacity:1"
               x="0"
               y="0"
               width="100%"
               height="100%" />
          </g>
        </g>
        <g
           id="g600">
          <g
             id="g598">
            <use
               xlink:href="#b9GlKoG5JQ"
               id="use596"
               style="opacity:1;fill-opacity:0;stroke:#000000;stroke-width:1;stroke-opacity:1"
               x="0"
               y="0"
               width="100%"
               height="100%" />
          </g>
        </g>
        <g
           id="g606">
          <g
             id="g604">
            <use
               xlink:href="#c6euHsNrR"
               id="use602"
               style="opacity:1;fill-opacity:0;stroke:#000000;stroke-width:1;stroke-opacity:1"
               x="0"
               y="0"
               width="100%"
               height="100%" />
          </g>
        </g>
        <g
           id="g612">
          <g
             id="g610">
            <use
               xlink:href="#d32VrITke5"
               id="use608"
               style="opacity:1;fill-opacity:0;stroke:#000000;stroke-width:1;stroke-opacity:1"
               x="0"
               y="0"
               width="100%"
               height="100%" />
          </g>
        </g>
        <g
           id="g618">
          <g
             id="g616">
            <use
               xlink:href="#a3QcdTTSvi"
               id="use614"
               style="opacity:1;fill-opacity:0;stroke:#000000;stroke-width:1;stroke-opacity:1"
               x="0"
               y="0"
               width="100%"
               height="100%" />
          </g>
        </g>
        <g
           id="g624">
          <g
             id="g622">
            <use
               xlink:href="#eCXBjihBT"
               id="use620"
               style="opacity:1;fill-opacity:0;stroke:#000000;stroke-width:1;stroke-opacity:1"
               x="0"
               y="0"
               width="100%"
               height="100%" />
          </g>
        </g>
        <g
           id="g632">
          <use
             xlink:href="#a99gwO3eo"
             id="use626"
             style="opacity:1;fill:#7e7e7e;fill-opacity:1"
             x="0"
             y="0"
             width="100%"
             height="100%" />
          <g
             id="g630">
            <use
               xlink:href="#a99gwO3eo"
               id="use628"
               style="opacity:1;fill-opacity:0;stroke:#000000;stroke-width:0;stroke-opacity:1"
               x="0"
               y="0"
               width="100%"
               height="100%" />
          </g>
        </g>
      </g>
    </g>
  </g>
</svg>
