<?xml version="1.0" encoding="UTF-8" standalone="no"?>
<!-- Created with Inkscape (http://www.inkscape.org/) -->

<svg
   xmlns:dc="http://purl.org/dc/elements/1.1/"
   xmlns:cc="http://creativecommons.org/ns#"
   xmlns:rdf="http://www.w3.org/1999/02/22-rdf-syntax-ns#"
   xmlns:svg="http://www.w3.org/2000/svg"
   xmlns="http://www.w3.org/2000/svg"
   xmlns:sodipodi="http://sodipodi.sourceforge.net/DTD/sodipodi-0.dtd"
   xmlns:inkscape="http://www.inkscape.org/namespaces/inkscape"
   version="1.1"
   id="svg83"
   xml:space="preserve"
   width="209.17332"
   height="63.641331"
   viewBox="0 0 209.17332 63.641331"
   sodipodi:docname="cloud2.svg"
   inkscape:version="0.92.2 (5c3e80d, 2017-08-06)"><metadata
     id="metadata89"><rdf:RDF><cc:Work
         rdf:about=""><dc:format>image/svg+xml</dc:format><dc:type
           rdf:resource="http://purl.org/dc/dcmitype/StillImage" /><dc:title></dc:title></cc:Work></rdf:RDF></metadata><defs
     id="defs87"><clipPath
       clipPathUnits="userSpaceOnUse"
       id="clipPath101"><path
         d="M 0,500 H 500 V 0 H 0 Z"
         id="path99"
         inkscape:connector-curvature="0" /></clipPath><clipPath
       clipPathUnits="userSpaceOnUse"
       id="clipPath109"><path
         d="M 0,500 H 500 V 282 H 0 Z"
         id="path107"
         inkscape:connector-curvature="0" /></clipPath><clipPath
       clipPathUnits="userSpaceOnUse"
       id="clipPath113"><path
         d="M 0,500 H 500 V 282 H 0 Z"
         id="path111"
         inkscape:connector-curvature="0" /></clipPath><clipPath
       clipPathUnits="userSpaceOnUse"
       id="clipPath117"><path
         d="M 0,500 H 500 V 375.472 H 0 Z"
         id="path115"
         inkscape:connector-curvature="0" /></clipPath><clipPath
       clipPathUnits="userSpaceOnUse"
       id="clipPath159"><path
         d="M 0,500 H 500 V 0 H 0 Z"
         id="path157"
         inkscape:connector-curvature="0" /></clipPath><clipPath
       clipPathUnits="userSpaceOnUse"
       id="clipPath291"><path
         d="M 245.06,247.053 H 407.216 V 201.442 H 245.06 Z"
         id="path289"
         inkscape:connector-curvature="0" /></clipPath><clipPath
       clipPathUnits="userSpaceOnUse"
       id="clipPath315"><path
         d="M 28.5354,104.265 H 153.14 V 58.708 H 28.5354 Z"
         id="path313"
         inkscape:connector-curvature="0" /></clipPath><clipPath
       clipPathUnits="userSpaceOnUse"
       id="clipPath335"><path
         d="m 128.666,211.482 h 42.518 v -21.907 h -42.518 z"
         id="path333"
         inkscape:connector-curvature="0" /></clipPath><clipPath
       clipPathUnits="userSpaceOnUse"
       id="clipPath355"><path
         d="M 122.576,271.139 H 411.998 V 189.574 H 122.576 Z"
         id="path353"
         inkscape:connector-curvature="0" /></clipPath><clipPath
       clipPathUnits="userSpaceOnUse"
       id="clipPath371"><path
         d="m 257.997,238.905 h 63.675 v -25.911 h -63.675 z"
         id="path369"
         inkscape:connector-curvature="0" /></clipPath><clipPath
       clipPathUnits="userSpaceOnUse"
       id="clipPath403"><path
         d="m 207.268,221.222 h 19.123 v -7.795 h -19.123 z"
         id="path401"
         inkscape:connector-curvature="0" /></clipPath><clipPath
       clipPathUnits="userSpaceOnUse"
       id="clipPath427"><path
         d="m 114.104,211.482 h 57.08 v -18.123 h -57.08 z"
         id="path425"
         inkscape:connector-curvature="0" /></clipPath><clipPath
       clipPathUnits="userSpaceOnUse"
       id="clipPath547"><path
         d="m 212.739,239.605 h 109.03 v -26.178 h -109.03 z"
         id="path545"
         inkscape:connector-curvature="0" /></clipPath><clipPath
       clipPathUnits="userSpaceOnUse"
       id="clipPath599"><path
         d="M 0,0 H 500 V 500 H 0 Z"
         id="path597"
         inkscape:connector-curvature="0" /></clipPath><clipPath
       clipPathUnits="userSpaceOnUse"
       id="clipPath611"><path
         d="M 425.216,183.731 H 614.965 V 126 H 425.216 Z"
         id="path609"
         inkscape:connector-curvature="0" /></clipPath></defs><sodipodi:namedview
     pagecolor="#ffffff"
     bordercolor="#666666"
     borderopacity="1"
     objecttolerance="10"
     gridtolerance="10"
     guidetolerance="10"
     inkscape:pageopacity="0"
     inkscape:pageshadow="2"
     inkscape:window-width="1159"
     inkscape:window-height="689"
     id="namedview85"
     showgrid="false"
     inkscape:zoom="0.74034078"
     inkscape:cx="-178.32619"
     inkscape:cy="13.16137"
     inkscape:window-x="0"
     inkscape:window-y="23"
     inkscape:window-maximized="0"
     inkscape:current-layer="g91" /><g
     id="g91"
     inkscape:groupmode="layer"
     inkscape:label="129645-ORH7QR-434"
     transform="matrix(1.3333333,0,0,-1.3333333,-228.56497,666.67933)"><g
       id="g285"
       transform="translate(123.73814,250.94182)"><g
         id="g287" /><g
         id="g299"><g
           clip-path="url(#clipPath291)"
           id="g297"
           style="opacity:0.22000098"><g
             transform="translate(407.2158,203.7686)"
             id="g295"><path
               d="m 0,0 c 0,5.737 -4.651,10.389 -10.389,10.389 -0.48,0 -0.95,-0.044 -1.413,-0.108 -0.786,8.264 -7.74,14.729 -16.21,14.729 -2.869,0 -5.561,-0.747 -7.903,-2.05 -2.241,5.189 -7.4,8.824 -13.413,8.824 -2.644,0 -5.117,-0.713 -7.257,-1.941 -4.637,8.032 -13.31,13.442 -23.251,13.442 -11.31,0 -20.979,-7.001 -24.93,-16.902 -2.684,1.805 -5.917,2.859 -9.395,2.859 -8.468,0 -15.476,-6.24 -16.681,-14.372 -2.055,2.064 -4.899,3.342 -8.042,3.342 -6.268,0 -11.35,-5.082 -11.35,-11.351 0,-0.325 0.021,-0.644 0.048,-0.962 h -3.907 c -4.453,0 -8.063,-3.61 -8.063,-8.062 V -2.326 H -0.271 C -0.1,-1.577 0,-0.801 0,0"
               style="fill:#69d7f5;fill-opacity:1;fill-rule:nonzero;stroke:none"
               id="path293"
               inkscape:connector-curvature="0" /></g></g></g></g><g
       id="g301"
       transform="translate(317.14273,463.44051)"><path
         d="m 0,0 c -1.694,0 -3.294,-0.389 -4.732,-1.064 -2.447,4.334 -7.088,7.265 -12.42,7.265 -0.869,0 -1.715,-0.09 -2.54,-0.239 -2.445,9.746 -11.179,16.99 -21.639,17.177 0,0.004 0.001,0.007 0.001,0.011 0,6.164 -4.998,11.162 -11.162,11.162 -3.621,0 -6.829,-1.732 -8.868,-4.405 -4.661,4.142 -10.795,6.662 -17.52,6.662 -12.301,0 -22.635,-8.416 -25.56,-19.804 -2.208,0.829 -4.599,1.286 -7.098,1.286 -10.563,0 -19.225,-8.114 -20.108,-18.448 -0.93,0.251 -1.903,0.397 -2.912,0.397 -6.164,0 -11.161,-4.997 -11.161,-11.162 H 11.161 C 11.161,-4.997 6.164,0 0,0"
         style="fill:#ffffff;fill-opacity:1;fill-rule:nonzero;stroke:none"
         id="path303"
         inkscape:connector-curvature="0" /></g><g
       id="g309"
       transform="translate(-31.674203,394.73088)"><g
         id="g311" /><g
         id="g323"><g
           clip-path="url(#clipPath315)"
           id="g321"
           style="opacity:0.49000501"><g
             transform="translate(153.1401,60.9746)"
             id="g319"><path
               d="m 0,0 c 0,5.591 -4.533,10.123 -10.124,10.123 -1.09,0 -2.137,-0.177 -3.121,-0.496 -1.734,6.888 -7.95,11.994 -15.376,11.994 -1.143,0 -2.256,-0.127 -3.332,-0.356 -0.972,12.325 -11.275,22.026 -23.851,22.026 -10.259,0 -19.007,-6.457 -22.411,-15.527 -3.24,2.12 -7.11,3.356 -11.27,3.356 -11.39,0 -20.622,-9.233 -20.622,-20.622 0,-1.635 0.196,-3.224 0.556,-4.749 h -7.197 c -4.339,0 -7.857,-3.518 -7.857,-7.856 v -0.16 H -0.264 C -0.097,-1.537 0,-0.78 0,0"
               style="fill:#a7e3f5;fill-opacity:1;fill-rule:nonzero;stroke:none"
               id="path317"
               inkscape:connector-curvature="0" /></g></g></g></g></g></svg>