<svg height="60.742664" viewBox="0 0 166.13946 60.742665" width="166.13947" xmlns="http://www.w3.org/2000/svg" xmlns:xlink="http://www.w3.org/1999/xlink"><clipPath id="a"><path d="m245.06 247.053h162.156v-45.611h-162.156z"/></clipPath><clipPath id="b"><path d="m28.5354 104.265h124.6046v-45.557h-124.6046z"/></clipPath><g clip-path="url(#a)" opacity=".220001" transform="matrix(1.3333333 0 0 -1.3333333 169.16925354206 330.73873503139)"><path d="m0 0c0 5.737-4.651 10.389-10.389 10.389-.48 0-.95-.044-1.413-.108-.786 8.264-7.74 14.729-16.21 14.729-2.869 0-5.561-.747-7.903-2.05-2.241 5.189-7.4 8.824-13.413 8.824-2.644 0-5.117-.713-7.257-1.941-4.637 8.032-13.31 13.442-23.251 13.442-11.31 0-20.979-7.001-24.93-16.902-2.684 1.805-5.917 2.859-9.395 2.859-8.468 0-15.476-6.24-16.681-14.372-2.055 2.064-4.899 3.342-8.042 3.342-6.268 0-11.35-5.082-11.35-11.351 0-.325.021-.644.048-.962h-3.907c-4.453 0-8.063-3.61-8.063-8.062v-.163h161.885c.171.749.271 1.525.271 2.326" fill="#69d7f5" transform="translate(407.2158 203.7686)"/></g><path d="m0 0c-1.694 0-3.294-.389-4.732-1.064-2.447 4.334-7.088 7.265-12.42 7.265-.869 0-1.715-.09-2.54-.239-2.445 9.746-11.179 16.99-21.639 17.177 0 .004.001.007.001.011 0 6.164-4.998 11.162-11.162 11.162-3.621 0-6.829-1.732-8.868-4.405-4.661 4.142-10.795 6.662-17.52 6.662-12.301 0-22.635-8.416-25.56-19.804-2.208.829-4.599 1.286-7.098 1.286-10.563 0-19.225-8.114-20.108-18.448-.93.251-1.903.397-2.912.397-6.164 0-11.161-4.997-11.161-11.162h156.88c0 6.165-4.997 11.162-11.161 11.162" fill="#fff" transform="matrix(1.3333333 0 0 -1.3333333 427.04203376191 47.40715544802)"/><g clip-path="url(#b)" opacity=".490005" transform="matrix(1.3333333 0 0 -1.3333333 -38.04719861086 139.0199931577)"><path d="m0 0c0 5.591-4.533 10.123-10.124 10.123-1.09 0-2.137-.177-3.121-.496-1.734 6.888-7.95 11.994-15.376 11.994-1.143 0-2.256-.127-3.332-.356-.972 12.325-11.275 22.026-23.851 22.026-10.259 0-19.007-6.457-22.411-15.527-3.24 2.12-7.11 3.356-11.27 3.356-11.39 0-20.622-9.233-20.622-20.622 0-1.635.196-3.224.556-4.749h-7.197c-4.339 0-7.857-3.518-7.857-7.856v-.16h124.341c.167.73.264 1.487.264 2.267" fill="#a7e3f5" transform="translate(153.1401 60.9746)"/></g></svg>