<svg height="263.52731" viewBox="0 0 358.16664 263.5273" width="358.16666" xmlns="http://www.w3.org/2000/svg" xmlns:xlink="http://www.w3.org/1999/xlink"><clipPath><path d="m638.509 131.764h26.864v-26.615h-26.864z"/></clipPath><clipPath id="a"><path d="m341.8 174.01v-99.762h149.941v99.762l-74.971 73.338z"/></clipPath><clipPath id="b"><path d="m341.8 247.348h149.941v-81.856h-149.941z"/></clipPath><clipPath id="c"><path d="m405.709 148.007h22.178v-27.592h-22.178z"/></clipPath><clipPath id="d"><path d="m405.709 108.022h22.178v-27.5904h-22.178z"/></clipPath><clipPath id="e"><path d="m357.888 141.058h26.864v-26.615h-26.864z"/></clipPath><clipPath id="f"><path d="m357.888 131.765h26.864v-26.616h-26.864z"/></clipPath><clipPath id="g"><path d="m448.79 141.058h26.863v-26.615h-26.863z"/></clipPath><clipPath id="h"><path d="m448.79 131.765h26.863v-26.616h-26.863z"/></clipPath><g transform="matrix(1.3333333 0 0 -1.3333333 -376.61066 353.15492)"><path d="m0 0 8.313-161.929h-16.627z" fill="#42210b" transform="translate(518.8594 229.8516)"/><g fill="#8bc53f"><path d="m0 0c0-6.046-4.901-10.946-10.946-10.946-6.046 0-10.948 4.9-10.948 10.946s4.902 10.946 10.948 10.946c6.045 0 10.946-4.9 10.946-10.946" transform="translate(539.333 165.6064)"/><path d="m0 0c0-8.534-6.917-15.451-15.451-15.451s-15.451 6.917-15.451 15.451c0 8.533 6.917 15.451 15.451 15.451s15.451-6.918 15.451-15.451" transform="translate(510.7529 171.3701)"/><path d="m0 0c0-9.321-7.558-16.879-16.879-16.879s-16.879 7.558-16.879 16.879 7.558 16.879 16.879 16.879 16.879-7.558 16.879-16.879" transform="translate(526.7402 159.5283)"/><path d="m0 0c0-10.77-8.731-19.5-19.5-19.5-10.771 0-19.501 8.73-19.501 19.5s8.73 19.501 19.501 19.501c10.769 0 19.5-8.731 19.5-19.501" transform="translate(545.3203 193.2686)"/><path d="m0 0c0-7.726-6.263-13.988-13.988-13.988-7.726 0-13.99 6.262-13.99 13.988s6.264 13.988 13.99 13.988c7.725 0 13.988-6.262 13.988-13.988" transform="translate(492.9824 182.8428)"/><path d="m0 0c0-7.725-6.263-13.988-13.988-13.988-7.726 0-13.989 6.263-13.989 13.988 0 7.726 6.263 13.989 13.989 13.989 7.725 0 13.988-6.263 13.988-13.989" transform="translate(539.8086 123.5664)"/><path d="m0 0c0-4.359-3.535-7.895-7.895-7.895-4.359 0-7.894 3.536-7.894 7.895s3.535 7.895 7.894 7.895c4.36 0 7.895-3.536 7.895-7.895" transform="translate(526.8857 113.2676)"/><path d="m0 0c0-4.359-3.535-7.895-7.896-7.895-4.359 0-7.894 3.536-7.894 7.895 0 4.36 3.535 7.896 7.894 7.896 4.361 0 7.896-3.536 7.896-7.896" transform="translate(545.3203 111.0615)"/><path d="m0 0c0-4.359-3.535-7.895-7.895-7.895-4.359 0-7.894 3.536-7.894 7.895 0 4.36 3.535 7.896 7.894 7.896 4.36 0 7.895-3.536 7.895-7.896" transform="translate(547.7031 126.2295)"/><path d="m0 0c0-4.359-3.535-7.895-7.895-7.895s-7.895 3.536-7.895 7.895c0 4.36 3.535 7.896 7.895 7.896s7.895-3.536 7.895-7.896" transform="translate(518.9912 126.2295)"/><path d="m0 0c0-7.546-6.117-13.662-13.663-13.662s-13.662 6.116-13.662 13.662 6.116 13.663 13.662 13.663 13.663-6.117 13.663-13.663" transform="translate(506.3193 185.0322)"/><path d="m0 0c0-10.249-8.31-18.557-18.558-18.557s-18.556 8.308-18.556 18.557 8.308 18.557 18.556 18.557 18.558-8.308 18.558-18.557" transform="translate(513.6992 200.1055)"/><path d="m0 0c0-6.835-5.541-12.374-12.375-12.374-6.833 0-12.372 5.539-12.372 12.374 0 6.833 5.539 12.373 12.372 12.373 6.834 0 12.375-5.54 12.375-12.373" transform="translate(514.6934 217.4785)"/><path d="m0 0c0-8.639-7.001-15.64-15.64-15.64-8.636 0-15.638 7.001-15.638 15.64 0 8.638 7.002 15.639 15.638 15.639 8.639 0 15.64-7.001 15.64-15.639" transform="translate(514.0986 220.7441)"/><path d="m0 0c0-4.674-3.789-8.462-8.462-8.462s-8.462 3.788-8.462 8.462 3.789 8.462 8.462 8.462 8.462-3.788 8.462-8.462" transform="translate(509.5801 239.7979)"/><path d="m0 0c0-7.981-6.471-14.452-14.452-14.452-7.983 0-14.453 6.471-14.453 14.452 0 7.98 6.47 14.451 14.453 14.451 7.981 0 14.452-6.471 14.452-14.451" transform="translate(531.2236 219.5566)"/><path d="m0 0c0-7.641-6.194-13.835-13.835-13.835-7.64 0-13.835 6.194-13.835 13.835 0 7.64 6.195 13.835 13.835 13.835 7.641 0 13.835-6.195 13.835-13.835" transform="translate(531.2734 239.7695)"/><path d="m0 0c0-8.381-6.793-15.174-15.174-15.174s-15.174 6.793-15.174 15.174 6.793 15.174 15.174 15.174 15.174-6.793 15.174-15.174" transform="translate(527.1934 208.4424)"/><path d="m0 0c0-10.525-8.533-19.059-19.059-19.059-10.525 0-19.057 8.534-19.057 19.059s8.532 19.058 19.057 19.058c10.526 0 19.059-8.533 19.059-19.058" transform="translate(531.0986 184.665)"/><path d="m0 0c2.635 2.52 4.284 6.062 4.284 9.994 0 7.64-6.194 13.834-13.835 13.834-5.008 0-9.381-2.67-11.809-6.654-1.307.825-2.851 1.31-4.511 1.31-4.673 0-8.462-3.788-8.462-8.463 0-1.504.398-2.916 1.087-4.141-6.332-2-10.923-7.918-10.923-14.911 0-2.072.411-4.043 1.142-5.853-4.473-3.387-7.377-8.741-7.377-14.786 0-1.179.121-2.328.331-3.445-6.737-1.005-11.911-6.8-11.911-13.818 0-6.436 4.352-11.841 10.269-13.472-.024-.394-.06-.783-.06-1.182 0-4.843 1.775-9.264 4.698-12.674-.031-.405-.062-.811-.062-1.225 0-8.535 6.918-15.452 15.452-15.452 1.264 0 2.487.168 3.664.457 1.18-4.773 5.479-8.316 10.615-8.316 6.045 0 10.947 4.901 10.947 10.946 0 1.401-.273 2.735-.752 3.965 4.213 3.069 6.963 8.028 6.963 13.638 0 3.717-1.215 7.141-3.249 9.929 4.612 3.477 7.608 8.986 7.608 15.208 0 5.921-2.7 11.211-6.936 14.707 1.895 2.531 3.031 5.664 3.031 9.07 0 .357-.029.708-.053 1.06 2.523 2.602 4.083 6.144 4.083 10.055 0 3.99-1.617 7.604-4.234 10.219" transform="translate(354.5747 178.4922)"/></g><path d="m0 0v47.043l4.436 5.938 4.432-5.938v-47.043z" fill="#e5e5e5" transform="translate(495.2031 67.2207)"/><path d="m0 0v47.043l4.434 5.938 4.434-5.938v-47.043z" fill="#e5e5e5" transform="translate(512.9736 67.2207)"/><path d="m0 0v47.043l4.436 5.938 4.432-5.938v-47.043z" fill="#e5e5e5" transform="translate(530.7422 67.2207)"/><path d="m551.083 96.462h-67.353v8.869h67.353z" fill="#f1f1f1"/><path d="m551.083 96.462h-67.353v-1.279h67.353z" fill="#cbcbcb"/><path d="m551.083 75.857h-67.353v8.869h67.353z" fill="#f1f1f1"/><path d="m551.083 75.857h-67.353v-1.279h67.353z" fill="#cbcbcb"/><path d="m0 0v47.043l4.433 5.938 4.435-5.938v-47.043z" fill="#e5e5e5" transform="translate(293.9312 67.2207)"/><path d="m0 0v47.043l4.435 5.938 4.433-5.938v-47.043z" fill="#e5e5e5" transform="translate(311.6997 67.2207)"/><path d="m0 0v47.043l4.433 5.938 4.435-5.938v-47.043z" fill="#e5e5e5" transform="translate(329.4702 67.2207)"/><path d="m349.811 96.462h-67.353v8.869h67.353z" fill="#f1f1f1"/><path d="m349.811 96.462h-67.353v-1.279h67.353z" fill="#cbcbcb"/><path d="m349.811 75.857h-67.353v8.869h67.353z" fill="#f1f1f1"/><path d="m349.811 75.857h-67.353v-1.279h67.353z" fill="#cbcbcb"/><g clip-path="url(#a)"><path d="m341.652 80.855h150.238v-6.607h-150.238z" fill="#f1d085"/><path d="m341.652 80.855h150.238v1.76h-150.238z" fill="#d1b062"/><path d="m341.652 89.223h150.238v-6.607h-150.238z" fill="#f1d085"/><path d="m341.652 89.223h150.238v1.759h-150.238z" fill="#d1b062"/><path d="m341.652 97.59h150.238v-6.608h-150.238z" fill="#f1d085"/><path d="m341.652 97.59h150.238v1.759h-150.238z" fill="#d1b062"/><path d="m341.652 105.956h150.238v-6.607h-150.238z" fill="#f1d085"/><path d="m341.652 105.956h150.238v1.76h-150.238z" fill="#d1b062"/><path d="m341.652 114.323h150.238v-6.607h-150.238z" fill="#f1d085"/><path d="m341.652 114.323h150.238v1.76h-150.238z" fill="#d1b062"/><path d="m341.652 122.69h150.238v-6.607h-150.238z" fill="#f1d085"/><path d="m341.652 122.69h150.238v1.759h-150.238z" fill="#d1b062"/><path d="m341.652 131.057h150.238v-6.607h-150.238z" fill="#f1d085"/><path d="m341.652 131.057h150.238v1.76h-150.238z" fill="#d1b062"/><path d="m341.652 139.424h150.238v-6.607h-150.238z" fill="#f1d085"/><path d="m341.652 139.424h150.238v1.76h-150.238z" fill="#d1b062"/><path d="m341.652 147.791h150.238v-6.607h-150.238z" fill="#f1d085"/><path d="m341.652 147.791h150.238v1.759h-150.238z" fill="#d1b062"/><path d="m341.652 156.157h150.238v-6.607h-150.238z" fill="#f1d085"/><path d="m341.652 156.157h150.238v1.76h-150.238z" fill="#d1b062"/><path d="m341.652 164.524h150.238v-6.607h-150.238z" fill="#f1d085"/><path d="m341.652 164.524h150.238v1.76h-150.238z" fill="#d1b062"/><path d="m341.652 172.892h150.238v-6.607h-150.238z" fill="#f1d085"/><path d="m341.652 172.892h150.238v1.76h-150.238z" fill="#d1b062"/><path d="m341.652 181.259h150.238v-6.607h-150.238z" fill="#f1d085"/><path d="m341.652 181.259h150.238v1.759h-150.238z" fill="#d1b062"/><path d="m341.652 189.625h150.238v-6.607h-150.238z" fill="#f1d085"/><path d="m341.652 189.625h150.238v1.76h-150.238z" fill="#d1b062"/><path d="m341.652 197.992h150.238v-6.607h-150.238z" fill="#f1d085"/><path d="m341.652 197.992h150.238v1.76h-150.238z" fill="#d1b062"/><path d="m341.652 206.359h150.238v-6.607h-150.238z" fill="#f1d085"/><path d="m341.652 206.359h150.238v1.759h-150.238z" fill="#d1b062"/><path d="m341.652 214.726h150.238v-6.607h-150.238z" fill="#f1d085"/><path d="m341.652 214.726h150.238v1.76h-150.238z" fill="#d1b062"/><path d="m341.652 223.093h150.238v-6.607h-150.238z" fill="#f1d085"/><path d="m341.652 223.093h150.238v1.76h-150.238z" fill="#d1b062"/><path d="m341.652 231.46h150.238v-6.607h-150.238z" fill="#f1d085"/><path d="m341.652 231.46h150.238v1.759h-150.238z" fill="#d1b062"/><path d="m341.652 239.827h150.238v-6.608h-150.238z" fill="#f1d085"/><path d="m341.652 239.827h150.238v1.759h-150.238z" fill="#d1b062"/><path d="m341.652 248.193h150.238v-6.607h-150.238z" fill="#f1d085"/><path d="m341.652 248.193h150.238v1.76h-150.238z" fill="#d1b062"/></g><path d="m376.741 208.19h-15.345v26.984h15.345z" fill="#1a1a1a"/><g clip-path="url(#b)" opacity=".5"><path d="m0 0v8.519l-74.971 73.336-74.97-73.336v-8.519l74.97 73.542z" fill="#b2b2b2" transform="translate(491.7412 165.4922)"/></g><path d="m0 0v3.783c0 1.792-1.595 3.244-3.563 3.244h-150.535c-1.968 0-3.563-1.452-3.563-3.244v-3.783z" fill="#4d4d4d" transform="translate(495.6016 67.2207)"/><path d="m337.94 67.221h157.661v1.403h-157.661z" fill="#1a1a1a"/><path d="m432.581 74.248h-31.473v79.572h31.473z" fill="#c0272d"/><path d="m0 0v-83.136h3.565v3.563h-.002v76.01h27.91v-76.01h-.02v-3.563h3.583v83.136z" fill="#4d4d4d" transform="translate(399.3271 155.6025)"/><path d="m436.887 67.221h-40.083v7.027h40.083z" fill="#1a1a1a"/><g clip-path="url(#c)"><path d="m0 0-.173 6.644-.139 6.642-.182 13.286.494-.494-21.081-.099.593.593-.06-13.286-.03-6.642-.086-6.644-.417.417c3.514-.055 7.027-.081 10.541-.158 3.513-.084 7.026-.141 10.54-.259m0 0c-3.514-.118-7.027-.175-10.54-.259-3.514-.077-7.027-.103-10.541-.158l-.412-.007-.005.424-.086 6.644-.03 6.642-.06 13.286-.003.596.596-.003 21.081-.099.501-.002-.007-.492-.182-13.286-.139-6.642z" fill="#c0272d" transform="translate(427.3857 120.8389)"/></g><g clip-path="url(#d)"><path d="m0 0-.173 6.643-.139 6.642-.182 13.286.494-.494-21.081-.098.593.592-.06-13.286-.03-6.642-.086-6.643-.417.417c3.514-.054 7.027-.081 10.541-.158 3.513-.084 7.026-.141 10.54-.259m0 0c-3.514-.118-7.027-.175-10.54-.259-3.514-.077-7.027-.104-10.541-.158l-.412-.007-.005.424-.086 6.643-.03 6.642-.06 13.286-.003.596.596-.003 21.081-.099.501-.002-.007-.492-.182-13.286-.139-6.642z" fill="#c0272d" transform="translate(427.3857 80.8555)"/></g><path d="m0 0c0-.973-.788-1.759-1.76-1.759-.971 0-1.76.786-1.76 1.759 0 .972.789 1.761 1.76 1.761.972 0 1.76-.789 1.76-1.761" fill="#1a1a1a" transform="translate(428.4043 112.8203)"/><path d="m416.7705 264.8662-92.339-92.34h17.13l75.209 73.04 75.21-73.04h17.13z" fill="#c0272d"/><path d="m0 0c0-1.968-1.595-3.563-3.563-3.563h-16.131c-1.968 0-3.563 1.595-3.563 3.563v5.938c0 1.968 1.595 3.563 3.563 3.563h16.131c1.968 0 3.563-1.595 3.563-3.563z" fill="#c0272d" transform="translate(380.6973 235.7686)"/><path d="m0 0c0-11.79 9.558-21.35 21.35-21.35 11.791 0 21.348 9.56 21.348 21.35s-9.557 21.35-21.348 21.35c-11.792 0-21.35-9.56-21.35-21.35" fill="#9fd6ed" transform="translate(395.4209 190.5098)"/><path d="m414.989 169.16h3.563v42.699h-3.563z" fill="#4d4d4d"/><path d="m395.421 188.729h42.7v3.563h-42.7z" fill="#4d4d4d"/><path d="m0 0c0-10.79 8.779-19.568 19.568-19.568 10.79 0 19.567 8.778 19.567 19.568s-8.777 19.567-19.567 19.567c-10.789 0-19.568-8.777-19.568-19.567m-3.563 0c0 12.755 10.377 23.131 23.131 23.131 12.755 0 23.131-10.376 23.131-23.131s-10.376-23.131-23.131-23.131c-12.754 0-23.131 10.376-23.131 23.131" fill="#1a1a1a" transform="translate(397.2026 190.5098)"/><path d="m357.888 105.149h26.864v36.835h-26.864z" fill="#9fd6ed"/><path d="m384.752 105.149h-26.864v36.835h26.864zm-30.427-3.563h33.99v43.962h-33.99z" fill="#4d4d4d"/><g clip-path="url(#e)" opacity=".300003"><path d="m0 0-26.864-20.652v-5.962l26.864 20.654z" fill="#f1f1f1" transform="translate(384.752 141.0576)"/></g><g clip-path="url(#f)" opacity=".300003"><path d="m0 0-26.864-20.654v-5.961l26.864 20.653z" fill="#f1f1f1" transform="translate(384.752 131.7646)"/></g><path d="m351.12 101.586h40.401v11.682h-40.401z" fill="#1a1a1a"/><path d="m448.79 105.149h26.863v36.835h-26.863z" fill="#9fd6ed"/><path d="m475.653 105.149h-26.863v36.835h26.863zm-30.426-3.563h33.99v43.962h-33.99z" fill="#4d4d4d"/><g clip-path="url(#g)" opacity=".300003"><path d="m0 0-26.863-20.652v-5.962l26.863 20.654z" fill="#f1f1f1" transform="translate(475.6533 141.0576)"/></g><g clip-path="url(#h)" opacity=".300003"><path d="m0 0-26.863-20.654v-5.961l26.863 20.653z" fill="#f1f1f1" transform="translate(475.6533 131.7646)"/></g><path d="m442.021 101.586h40.4v11.682h-40.4z" fill="#1a1a1a"/><path d="m0 0h13.266l3.562 6.705h-20.391z" fill="#a57c52" transform="translate(436.4893 74.248)"/><path d="m0 0c-.016.13-.024.262-.024.395 0 1.789 1.414 3.283 3.303 3.658.523.629 1.356 1.042 2.303 1.042 1.23 0 2.272-.692 2.676-1.657.867 1.004 2.232 1.657 3.769 1.657 2.621 0 4.747-1.884 4.747-4.206 0-.535-.118-1.047-.325-1.519.964-.454 1.627-1.341 1.627-2.376 0-.422-.12-.817-.315-1.174h-3.325-1.936-.203-3.416-.57-.385-2.263-.063-2.889-1.683-3.183c-.355.437-.569.968-.569 1.545 0 1.385 1.199 2.508 2.724 2.635" fill="#8bc53f" transform="translate(435.4453 88.418)"/><path d="m431.468 80.278h23.308v4.04h-23.308z" fill="#c59b6d"/><path d="m0 0h13.266l3.563 6.705h-20.392z" fill="#a57c52" transform="translate(383.7871 74.248)"/><path d="m0 0c-.015.13-.024.262-.024.395 0 1.789 1.413 3.283 3.304 3.658.522.629 1.354 1.042 2.302 1.042 1.23 0 2.272-.692 2.676-1.657.867 1.004 2.232 1.657 3.769 1.657 2.621 0 4.747-1.884 4.747-4.206 0-.535-.118-1.047-.324-1.519.963-.454 1.627-1.341 1.627-2.376 0-.422-.121-.817-.316-1.174h-3.325-1.936-.203-3.417-.569-.385-2.263-.063-2.889-1.682-3.184c-.355.437-.568.968-.568 1.545 0 1.385 1.198 2.508 2.723 2.635" fill="#8bc53f" transform="translate(382.7432 88.418)"/><path d="m378.766 80.278h23.307v4.04h-23.307z" fill="#c59b6d"/></g></svg>