<svg height="180.644" viewBox="0 0 588.70667 180.644" width="588.70667" xmlns="http://www.w3.org/2000/svg"><g fill-rule="evenodd" transform="matrix(1.3333333 0 0 -1.3333333 -39.058666 494.05465)"><g fill="#b3b3b3"><path d="m0 0h4.37l4.253 3.307v1.89h.945v-1.89l4.252-3.307h4.252v-3.071h.709v-6.379-15.119h.709v-24.214h-19.49z" transform="translate(436.9242 291.1647)"/><path d="m0 0h4.252l4.253 3.307v1.89h.945v-1.89l4.252-3.307h4.252v-3.071h.709v-6.379-15.119h.709v-24.214h-19.372z" transform="translate(418.2613 291.1647)"/><path d="m0 0h4.37l4.253 3.307v1.89h.945v-1.89l4.252-3.307h4.252v-3.071h.709v-6.379-15.119h.709v-24.214h-19.49z" transform="translate(399.4803 291.1647)"/><path d="m67.328 311.009h23.27v-49.374h-23.27zm-23.978-8.623 21.734 11.339v-56.697h-21.734zm153.437 15.474h15.592v-6.261h1.89v-3.898h3.307v-47.72h-23.742v47.72h1.181v3.898h1.772zm56.343-29.766h29.412v-38.626h-40.279v1.772h-8.504v48.665h19.371zm58.351 47.011h14.293v-74.415h-14.293v3.425h-8.977v-18.426h-9.568v5.197h-7.323v49.728h.945v19.726h8.623v-5.67h7.323v-30.593h8.977zm19.136 0h14.292v-74.415h-14.292zm-174.463 28.585-28.112-90.007-29.885 2.953v-16.182h30.948v3.661l37.207-6.614 6.615-4.016h19.844v43.586h-1.299v9.331h-1.181v2.244h-14.175v-2.244h-2.598v-9.331h-.591v-31.302z"/></g><path d="m255.02 302.977h1.772v-17.245h-1.772zm-2.953 0h1.772v-17.245h-1.772zm-2.953 0h1.772v-17.245h-1.772zm-3.071 0h1.772v-17.245h-1.772zm-2.953 0h1.772v-17.245h-1.772zm6.851 23.86c5.552 0 10.04-4.489 10.04-9.922 0-5.552-4.488-10.04-10.04-10.04-5.434 0-9.922 4.488-9.922 10.04 0 5.433 4.488 9.922 9.922 9.922m0-10.04 3.662 4.016-.591.59-4.016-4.252v-7.323h.945zm27.167-48.311v-4.843h.709v1.535c0 .591.236 1.182.591 1.654v.591c-.355.354-.827.708-1.3 1.063m-5.787 6.733v-1.772c0-1.063-.709-1.89-1.536-2.245v-1.417h1.772v4.961c0 .118-.118.236-.236.473m-4.135 12.756c-.236-.945-1.181-1.771-2.244-1.771-.827 0-1.654.59-2.008 1.299v-6.378h5.552c-.709 2.244-1.181 4.488-1.3 6.85m11.222-17.954c-.355.355-.827.709-1.3 1.181v-1.299c.473-.354.945-.709 1.3-1.063zm-4.725 32.719 20.553-11.812-11.812 20.553c-1.772-1.063-3.426-2.362-4.843-3.78-1.536-1.535-2.835-3.189-3.898-4.961m-1.654 1.063.709-.472c1.181 1.89 2.481 3.544 4.016 5.079 1.536 1.536 3.189 2.835 5.079 4.016l-.354.473c-.355-.237-.709-.473-1.299-.473-1.418-.945-2.835-2.126-4.017-3.307-1.653-1.654-3.071-3.426-4.134-5.316m24.805-15.119-.59.355.59-1.064zm-26.577 1.654h1.3v6.496h5.551v-6.496h1.3v.945h5.551v-.945h2.008v.945h5.434v-.945h2.48l-20.552 11.812c-1.89-3.544-3.072-7.56-3.072-11.812m-2.008 0h.827c.118 4.488 1.3 8.741 3.308 12.402l-.709.473c-2.126-3.898-3.426-8.269-3.426-12.875m.827-.709h-.827c0-2.953.473-5.788 1.418-8.504h.118v-.119c.472-1.417 1.063-2.834 1.772-4.134v2.008c-1.536 3.189-2.363 6.851-2.481 10.749m2.481 0h-1.3c0-2.835.473-5.433 1.3-7.914zm25.277 0h-.236l.236-.118zm16.183 0h-7.678v-5.079l.827-.473h6.851zm-21.616-1.417 2.48 1.417h-2.48zm-7.087-4.135 1.653.945v4.607h-2.008v-5.552zm-7.206-4.134 1.3.709v8.977h-1.3zm1.3-.118-1.3-.709v-6.378c.119-.236.237-.354.473-.472.236-.237.591-.591.827-.827zm7.559 4.371-.236-.119h.236zm10.867 6.26-.236-.118h.236zm17.482 10.158-8.977-5.197v-5.079h6.733v8.741h2.244zm-22.915-16.418 2.835 4.843-2.835-1.654zm5.433 7.795-.59-1.063.59.355zm5.316 9.214-2.126-3.662v-1.299h2.126zm5.906 10.276-4.134-7.087v-8.15h1.417l9.922 5.788v.826l.945.591c-.945 1.536-2.008 2.953-3.307 4.252-1.418 1.418-3.071 2.717-4.843 3.78m.827 1.418-.355-.473c1.89-1.181 3.544-2.48 5.079-4.016 1.418-1.299 2.481-2.717 3.544-4.37l.827.59c-1.063 1.536-2.363 3.071-3.662 4.489-1.299 1.181-2.599 2.362-4.134 3.307-.473 0-.945.236-1.299.473m-14.057 3.189v.472c-.354 0-.708.118-.945.355-4.252-.237-8.268-1.418-11.812-3.308v-.118l.355-.708c3.662 2.008 7.914 3.189 12.402 3.307m0-24.805v23.624c-4.252 0-8.268-1.182-11.812-3.071zm0-7.206v4.607l-2.598-4.607zm.709 4.607v-4.607h1.299v2.363zm0 26.223v-23.624l1.299 2.126v2.835h1.3v14.765h1.89v-12.048l2.126 3.661v2.126h1.181l4.016 7.088c-3.425 1.889-7.442 3.071-11.812 3.071m0 1.653v-.472c4.489-.118 8.741-1.299 12.403-3.307l.472.708v.118c-3.543 1.89-7.56 3.071-11.812 3.308-.354-.237-.709-.355-1.063-.355m-266.241-53.508h5.669v2.363h5.434v13.583h4.488v2.717h15.356v-2.717-7.559h1.417v4.252h4.489v-4.252h2.008v6.378h6.851v-2.835h2.953v-3.543-6.024h1.181v16.891h6.733v-16.891h2.008v18.781h6.615v24.096h3.071v2.362h2.362v10.041h.827v-10.041h2.362v-2.362h1.063v-24.096-3.19h5.67v26.932c0 18.663 4.134 33.9 9.095 33.9 5.08 0 9.214-15.237 9.214-33.9v-26.932-6.732h5.197v7.795h7.914v5.316h1.181v13.82h2.599v3.071h7.914v-3.071h2.598v-13.82h1.064v-5.316-7.795-.945-4.371h4.37v3.189h4.843v24.097h1.772v20.434 2.835h1.181v12.285h1.181v2.244h8.032v-2.244h1.299v-12.285h1.182v-2.835h2.008v-20.434h1.771v-24.097-1.771h7.914v10.985 1.772h11.34v-1.772h1.772v-10.985h2.362v9.449 4.843 8.623h2.599v3.071h1.417v-3.071h4.016v3.071h1.3v-3.071h2.716v-8.623h11.576v-4.843h4.37v-8.386h1.3v9.686 23.387h-1.3v24.687l6.851 10.631v11.812h-1.417l7.796 10.04v3.898h.709v4.961h.826v-4.961h.709v-4.016l7.678-9.922h-1.418v-11.812l6.851-10.631v-24.687h-1.299v-12.048c.354.709 1.181 1.181 2.008 1.181 1.063 0 2.008-.709 2.244-1.654.237 3.308 1.063 6.497 2.363 9.45-.118 0-.355-.118-.473-.118-1.299 0-2.362 1.063-2.362 2.362v2.835c0 1.3 1.063 2.244 2.362 2.244 1.181 0 2.245-.944 2.245-2.244v-1.772c1.181 1.89 2.48 3.544 4.016 5.08 1.063 1.063 2.244 2.126 3.543 2.953-.708.472-1.063 1.181-1.063 1.889v2.953c0 1.182 1.063 2.245 2.244 2.245 1.3 0 2.363-1.063 2.363-2.245v-2.716c3.189 1.771 6.851 2.835 10.631 3.071-.119.236-.119.472-.119.827v2.834c0 1.3 1.064 2.245 2.245 2.245 1.299 0 2.362-.945 2.362-2.245v-2.834c0-.355-.118-.591-.236-.827 3.898-.236 7.441-1.3 10.749-3.071v2.716c0 1.182 1.063 2.245 2.244 2.245 1.299 0 2.244-1.063 2.244-2.245v-2.953c0-.708-.354-1.417-.945-1.889 1.182-.827 2.363-1.89 3.426-2.953 1.417-1.418 2.717-2.953 3.78-4.607l.354.118v1.181c0 .827.472 1.654 1.181 2.008v1.181h1.536v-.945c1.063-.236 1.772-1.181 1.772-2.244v-1.535l3.189-2.127v-1.535h1.772v-2.244h1.653v8.977h1.181v3.189h2.481v3.544h1.654v-3.544h2.244v8.505h1.299l.591 11.93h.709v-11.93h1.653l.591 19.135h.709v-19.135h3.189v19.135h.708l.709-19.135h1.654v11.93h.709l.59-11.93h1.181v-8.505h1.536v-3.189h.945v-1.3h2.362v-1.299h3.189v-2.008h5.434l5.433 4.607v2.717h1.182v-2.717l5.315-4.607h5.434v-4.37h.826v-8.977-21.262h2.953v57.17h3.308v4.016h4.37v10.867h.945v-10.867h4.37v-4.016h3.308v-46.067h2.362v-16.3h1.772v18.426h32.365v-18.426h2.48v16.3h6.497v-16.3h1.772v8.623h2.126v4.252h6.615v-4.252-4.371h2.48v5.906h4.252v-5.906h2.953v-4.252h2.126v-9.095-8.505-10.985h-441.53v10.985 8.505z" fill="#1e1e1e"/></g></svg>