<svg height="119.03191" viewBox="0 0 415.34509 119.03191" width="415.34509" xmlns="http://www.w3.org/2000/svg" xmlns:xlink="http://www.w3.org/1999/xlink"><clipPath id="a"><path d="m128.666 211.482h42.518v-21.907h-42.518z"/></clipPath><clipPath id="b"><path d="m122.576 271.139h289.422v-81.565h-289.422z"/></clipPath><clipPath id="c"><path d="m257.997 238.905h63.675v-25.911h-63.675z"/></clipPath><clipPath id="d"><path d="m207.268 221.222h19.123v-7.795h-19.123z"/></clipPath><clipPath id="e"><path d="m114.104 211.482h57.08v-18.123h-57.08z"/></clipPath><clipPath id="f"><path d="m212.739 239.605h109.03v-26.178h-109.03z"/></clipPath><g transform="matrix(1.3333333 0 0 -1.3333333 -133.98813 371.79651)"><path d="m0 0c1.003 1.65.307 3.799-1.457 4.588-7.907 3.535-30.593 11.196-63.079 1.411-40.818-12.294-124.764-35.096-159.855-48.148-31.333-11.655-59.028-26.936-64.6-30.075-.597-.337-.878-1.041-.68-1.698l.072-.243c.321-1.062 1.177-1.877 2.257-2.135 7.466-1.783 38.896-7.151 97.074 10.373 67.325 20.278 157.438 44.757 171.458 50.845 10.666 4.632 16.194 10.777 18.81 15.082" fill="#e9f1f3" transform="translate(411.5381 268.0571)"/><g clip-path="url(#a)"><path d="m0 0-35.945-11.387-6.572-9.212c4.39-.704 11.131-1.401 20.303-1.298z" fill="#dbe9eb" transform="translate(171.1836 211.4824)"/></g><path d="m0 0c35.091 13.053 119.037 35.854 159.854 48.149 22.651 6.822 41.434 6.741 53.417 4.87-11.248 3.176-30.065 5.622-54.372-1.699-40.817-12.295-124.763-35.096-159.854-48.148-27.761-10.326-52.663-23.497-61.856-28.55 13.482 5.985 39.104 16.561 62.811 25.378" fill="#fff" transform="translate(188.1025 222.7363)"/><g clip-path="url(#b)"><path d="m0 0c-14.021-6.088-104.134-30.567-171.458-50.845-46.921-14.133-81.18-16.781-96.599-16.342.419-.482.978-.836 1.62-.989 7.466-1.782 38.896-7.151 97.074 10.373 67.325 20.278 157.438 44.757 171.459 50.845 10.666 4.632 16.193 10.777 18.809 15.082.597.982.588 2.138.116 3.082-4.543-3.623-12.792-7.632-21.021-11.206" fill="#dbe9eb" transform="translate(390.6328 259.9331)"/></g><g clip-path="url(#c)"><path d="m0 0 5.41 9.116c-4.919-1.415-10.814-3.108-15.963-4.587l-33.659-9.686-14.053-11.638c21.705 6.379 37.248 10.76 58.265 16.795" fill="#dbe9eb" transform="translate(316.2617 229.7891)"/></g><path d="m0 0s-33.443 12.496-50.554 24.547l-15.286-4.605 26.026-39.396c7.32 3.989 22.054 11.721 39.814 19.454" fill="#366ca7" transform="translate(166.3311 217.4824)"/><path d="m0 0 11.19 3.371c-3.64 1.015-8.055 1.948-13.183 2.503l-5.081-1.531c-.378-.114-.43-.627-.082-.814l6.437-3.457c.221-.118.479-.144.719-.072" fill="#4487ba" transform="translate(389.9521 272.4482)"/><path d="m0 0-4.913-1.479c-.885-.267-1.193-1.362-.578-2.052l1.454-1.63c1.085-1.216 2.775-1.693 4.336-1.223l6.928 2.087c.453.136.514.753.097.977l-5.919 3.179c-.43.231-.936.282-1.405.141" fill="#4487ba" transform="translate(379.0527 275.6392)"/><path d="m0 0-12.253 3.683-6.869-2.069 5.471-5.726z" fill="#d7e7eb" transform="translate(226.3906 217.5391)"/><g clip-path="url(#d)"><path d="m0 0-12.253 3.683-6.869-2.069 5.471-5.726z" fill="#dbe9eb" transform="translate(226.3906 217.5391)"/></g><path d="m0 0 3.457 2.066s-6.363-.37-19.047-4.19-38.032-13.002-38.032-13.002z" fill="#fff" transform="translate(167.7266 209.416)"/><path d="m0 0s-4.129-4.841-18.277-9.103c-12.31-3.707-32.312-7.953-37.303-8.994-.655-.136-1.303.251-1.496.893l-.003.012z" fill="#d7e7eb" transform="translate(171.1836 211.4824)"/><g clip-path="url(#e)"><path d="m0 0s-4.129-4.841-18.277-9.103c-12.31-3.707-32.312-7.953-37.303-8.994-.655-.136-1.303.251-1.496.893l-.003.012z" fill="#dbe9eb" transform="translate(171.1836 211.4824)"/></g><g fill="#4487ba"><path d="m0 0-.035-.011c-.979-.295-2.01.26-2.305 1.238l-.61 2.027c-.295.978.259 2.01 1.237 2.305l.035.01c.979.295 2.01-.259 2.305-1.237l.61-2.028c.295-.978-.258-2.01-1.237-2.304" transform="translate(343.1328 256.6392)"/><path d="m0 0-.036-.011c-.978-.295-2.01.26-2.304 1.238l-.611 2.027c-.294.978.26 2.01 1.237 2.305l.036.01c.979.295 2.01-.259 2.305-1.237l.61-2.028c.295-.978-.259-2.01-1.237-2.304" transform="translate(337.4414 254.9248)"/><path d="m0 0-.036-.011c-.978-.295-2.01.26-2.305 1.238l-.61 2.027c-.295.978.26 2.01 1.237 2.305l.036.011c.978.294 2.01-.26 2.304-1.238l.611-2.028c.294-.978-.259-2.01-1.237-2.304" transform="translate(331.75 253.2104)"/><path d="m0 0-.035-.011c-.979-.295-2.01.26-2.305 1.238l-.61 2.027c-.295.978.259 2.01 1.237 2.305l.035.011c.979.294 2.01-.26 2.305-1.238l.611-2.028c.294-.978-.259-2.01-1.238-2.304" transform="translate(326.0576 251.4961)"/><path d="m0 0-.036-.011c-.978-.295-2.009.26-2.304 1.238l-.611 2.027c-.294.978.26 2.01 1.238 2.305l.035.011c.979.294 2.01-.26 2.305-1.238l.61-2.028c.295-.978-.258-2.01-1.237-2.304" transform="translate(320.3662 249.7817)"/><path d="m0 0-.036-.011c-.978-.295-2.01.26-2.304 1.238l-.611 2.027c-.295.978.26 2.01 1.237 2.305l.036.011c.978.294 2.01-.26 2.305-1.238l.61-2.028c.295-.978-.259-2.009-1.237-2.304" transform="translate(314.6748 248.0674)"/><path d="m0 0-.036-.011c-.979-.294-2.01.26-2.305 1.239l-.61 2.027c-.295.978.26 2.01 1.237 2.305l.036.01c.978.295 2.01-.259 2.304-1.237l.611-2.028c.294-.978-.259-2.01-1.237-2.305" transform="translate(308.9834 246.3525)"/><path d="m0 0-.035-.011c-.979-.295-2.01.26-2.305 1.238l-.61 2.028c-.295.977.259 2.009 1.237 2.304l.035.011c.979.294 2.01-.26 2.305-1.238l.611-2.027c.294-.979-.259-2.01-1.238-2.305" transform="translate(303.291 244.6387)"/><path d="m0 0-.036-.012c-.978-.294-2.01.26-2.304 1.239l-.611 2.027c-.294.978.26 2.01 1.238 2.305l.035.01c.979.295 2.01-.259 2.305-1.237l.61-2.028c.295-.978-.258-2.01-1.237-2.304" transform="translate(297.5996 242.9248)"/><path d="m0 0-.035-.011c-.979-.295-2.01.26-2.305 1.238l-.61 2.028c-.295.977.259 2.01 1.237 2.304l.035.01c.979.295 2.01-.258 2.305-1.237l.61-2.027c.295-.979-.258-2.01-1.237-2.305" transform="translate(280.5244 237.7812)"/><path d="m0 0-.036-.011c-.978-.295-2.01.259-2.304 1.238l-.611 2.027c-.294.978.26 2.01 1.237 2.305l.036.01c.979.295 2.01-.259 2.305-1.237l.61-2.028c.295-.978-.259-2.01-1.237-2.304" transform="translate(274.833 236.0674)"/><path d="m0 0-.036-.011c-.978-.295-2.01.26-2.305 1.238l-.61 2.028c-.295.977.26 2.01 1.237 2.304l.036.01c.978.295 2.01-.258 2.304-1.237l.611-2.027c.295-.979-.259-2.01-1.237-2.305" transform="translate(269.1416 234.3525)"/><path d="m0 0-.035-.011c-.979-.295-2.01.259-2.305 1.238l-.61 2.027c-.295.978.259 2.01 1.237 2.305l.036.01c.978.295 2.01-.259 2.304-1.237l.611-2.028c.294-.978-.259-2.01-1.238-2.304" transform="translate(263.4492 232.6387)"/><path d="m0 0-.035-.011c-.979-.295-2.01.26-2.305 1.238l-.611 2.028c-.294.977.26 2.01 1.238 2.304l.035.011c.979.294 2.01-.259 2.305-1.238l.61-2.027c.295-.979-.258-2.01-1.237-2.305" transform="translate(257.7578 230.9238)"/><path d="m0 0-.036-.011c-.978-.295-2.009.259-2.304 1.238l-.611 2.027c-.295.978.26 2.01 1.238 2.305l.035.01c.979.295 2.01-.259 2.305-1.237l.61-2.028c.295-.978-.259-2.01-1.237-2.304" transform="translate(252.0664 229.21)"/><path d="m0 0-.036-.011c-.978-.295-2.009.26-2.304 1.238l-.611 2.028c-.294.977.26 2.01 1.238 2.305l.035.01c.979.294 2.01-.259 2.305-1.238l.611-2.027c.294-.979-.26-2.01-1.238-2.305" transform="translate(246.3745 227.4951)"/><path d="m0 0-.036-.011c-.978-.295-2.01.259-2.304 1.238l-.611 2.027c-.295.978.26 2.01 1.238 2.305l.035.01c.978.295 2.01-.259 2.304-1.237l.611-2.028c.295-.978-.259-2.01-1.237-2.304" transform="translate(240.6831 225.7812)"/><path d="m0 0-.036-.011c-.978-.294-2.009.26-2.304 1.238l-.611 2.028c-.295.977.26 2.01 1.238 2.305l.035.01c.979.294 2.01-.259 2.305-1.238l.611-2.027c.294-.979-.26-2.01-1.238-2.305" transform="translate(234.9912 224.0664)"/><path d="m0 0-.036-.011c-.978-.295-2.009.259-2.304 1.238l-.611 2.027c-.294.978.26 2.01 1.238 2.305l.036.01c.978.295 2.009-.259 2.304-1.237l.611-2.028c.294-.978-.26-2.01-1.238-2.304" transform="translate(203.1992 214.4912)"/><path d="m0 0-.036-.011c-.978-.295-2.009.26-2.304 1.238l-.611 2.028c-.295.977.26 2.01 1.238 2.304l.035.011c.978.294 2.01-.259 2.304-1.238l.611-2.027c.295-.979-.259-2.01-1.237-2.305" transform="translate(197.5078 212.7764)"/><path d="m0 0-.036-.011c-.978-.295-2.009.259-2.304 1.238l-.611 2.027c-.295.978.26 2.01 1.238 2.305l.035.01c.979.295 2.01-.259 2.305-1.237l.611-2.028c.294-.978-.26-2.01-1.238-2.304" transform="translate(191.8159 211.0625)"/><path d="m0 0-.036-.011c-.978-.295-2.01.26-2.304 1.238l-.611 2.028c-.295.977.26 2.01 1.238 2.305l.035.01c.978.294 2.01-.259 2.304-1.238l.611-2.027c.295-.979-.259-2.01-1.237-2.305" transform="translate(186.1245 209.3477)"/><path d="m0 0-2.928-.881c-1.01-.305-2.076.268-2.38 1.278l-2.449 8.131c-.305 1.01.268 2.076 1.278 2.38l2.928.882c1.01.304 2.075-.268 2.38-1.278l2.449-8.131c.305-1.011-.268-2.076-1.278-2.381" transform="translate(354.3467 253.9414)"/><path d="m0 0-2.927-.882c-1.011-.305-2.076.268-2.381 1.278l-2.449 8.131c-.304 1.011.269 2.077 1.279 2.381l2.927.881c1.011.305 2.076-.268 2.381-1.278l2.448-8.131c.305-1.01-.267-2.076-1.278-2.38" transform="translate(292.4697 235.3047)"/></g><path d="m0 0 3.558 2.336s-10.023-.304-25.649-5.01c-15.627-4.707-39.329-12.304-54.508-14.68 0 0 34.757 3.768 37.788 4.587s38.811 12.767 38.811 12.767" fill="#fff" transform="translate(318.1689 237.2695)"/><path d="m0 0s-62.257-18.097-95.336-22.066l-13.651-4.113s34.955.228 68.956 10.469c0 0 41.583 10.559 40.031 15.71" fill="#d7e7eb" transform="translate(321.7266 239.6055)"/><g clip-path="url(#f)"><path d="m0 0s-62.257-18.097-95.336-22.066l-13.651-4.113s34.955.228 68.956 10.469c0 0 41.583 10.559 40.031 15.71" fill="#dbe9eb" transform="translate(321.7266 239.6055)"/></g><path d="m0 0-39.684-3.559 3.802-5.754 39.085 7.961c-1.022.427-2.093.878-3.203 1.352" fill="#dbe9eb" transform="translate(151.8262 223.3467)"/><path d="m0 0 2.001-3.029 26.34 1.781z" fill="#dbe9eb" transform="translate(108.333 225.5547)"/></g></svg>