<?xml version="1.0" encoding="UTF-8" standalone="no"?>
<!-- Created with Inkscape (http://www.inkscape.org/) -->

<svg
   xmlns:dc="http://purl.org/dc/elements/1.1/"
   xmlns:cc="http://creativecommons.org/ns#"
   xmlns:rdf="http://www.w3.org/1999/02/22-rdf-syntax-ns#"
   xmlns:svg="http://www.w3.org/2000/svg"
   xmlns="http://www.w3.org/2000/svg"
   xmlns:sodipodi="http://sodipodi.sourceforge.net/DTD/sodipodi-0.dtd"
   xmlns:inkscape="http://www.inkscape.org/namespaces/inkscape"
   version="1.1"
   id="svg83"
   xml:space="preserve"
   width="415.34509"
   height="119.03191"
   viewBox="0 0 415.34509 119.03191"
   sodipodi:docname="plane.svg"
   inkscape:version="0.92.2 (5c3e80d, 2017-08-06)"><metadata
     id="metadata89"><rdf:RDF><cc:Work
         rdf:about=""><dc:format>image/svg+xml</dc:format><dc:type
           rdf:resource="http://purl.org/dc/dcmitype/StillImage" /><dc:title></dc:title></cc:Work></rdf:RDF></metadata><defs
     id="defs87"><clipPath
       clipPathUnits="userSpaceOnUse"
       id="clipPath101"><path
         d="M 0,500 H 500 V 0 H 0 Z"
         id="path99"
         inkscape:connector-curvature="0" /></clipPath><clipPath
       clipPathUnits="userSpaceOnUse"
       id="clipPath109"><path
         d="M 0,500 H 500 V 282 H 0 Z"
         id="path107"
         inkscape:connector-curvature="0" /></clipPath><clipPath
       clipPathUnits="userSpaceOnUse"
       id="clipPath113"><path
         d="M 0,500 H 500 V 282 H 0 Z"
         id="path111"
         inkscape:connector-curvature="0" /></clipPath><clipPath
       clipPathUnits="userSpaceOnUse"
       id="clipPath117"><path
         d="M 0,500 H 500 V 375.472 H 0 Z"
         id="path115"
         inkscape:connector-curvature="0" /></clipPath><clipPath
       clipPathUnits="userSpaceOnUse"
       id="clipPath159"><path
         d="M 0,500 H 500 V 0 H 0 Z"
         id="path157"
         inkscape:connector-curvature="0" /></clipPath><clipPath
       clipPathUnits="userSpaceOnUse"
       id="clipPath291"><path
         d="M 245.06,247.053 H 407.216 V 201.442 H 245.06 Z"
         id="path289"
         inkscape:connector-curvature="0" /></clipPath><clipPath
       clipPathUnits="userSpaceOnUse"
       id="clipPath315"><path
         d="M 28.5354,104.265 H 153.14 V 58.708 H 28.5354 Z"
         id="path313"
         inkscape:connector-curvature="0" /></clipPath><clipPath
       clipPathUnits="userSpaceOnUse"
       id="clipPath335"><path
         d="m 128.666,211.482 h 42.518 v -21.907 h -42.518 z"
         id="path333"
         inkscape:connector-curvature="0" /></clipPath><clipPath
       clipPathUnits="userSpaceOnUse"
       id="clipPath355"><path
         d="M 122.576,271.139 H 411.998 V 189.574 H 122.576 Z"
         id="path353"
         inkscape:connector-curvature="0" /></clipPath><clipPath
       clipPathUnits="userSpaceOnUse"
       id="clipPath371"><path
         d="m 257.997,238.905 h 63.675 v -25.911 h -63.675 z"
         id="path369"
         inkscape:connector-curvature="0" /></clipPath><clipPath
       clipPathUnits="userSpaceOnUse"
       id="clipPath403"><path
         d="m 207.268,221.222 h 19.123 v -7.795 h -19.123 z"
         id="path401"
         inkscape:connector-curvature="0" /></clipPath><clipPath
       clipPathUnits="userSpaceOnUse"
       id="clipPath427"><path
         d="m 114.104,211.482 h 57.08 v -18.123 h -57.08 z"
         id="path425"
         inkscape:connector-curvature="0" /></clipPath><clipPath
       clipPathUnits="userSpaceOnUse"
       id="clipPath547"><path
         d="m 212.739,239.605 h 109.03 v -26.178 h -109.03 z"
         id="path545"
         inkscape:connector-curvature="0" /></clipPath><clipPath
       clipPathUnits="userSpaceOnUse"
       id="clipPath599"><path
         d="M 0,0 H 500 V 500 H 0 Z"
         id="path597"
         inkscape:connector-curvature="0" /></clipPath><clipPath
       clipPathUnits="userSpaceOnUse"
       id="clipPath611"><path
         d="M 425.216,183.731 H 614.965 V 126 H 425.216 Z"
         id="path609"
         inkscape:connector-curvature="0" /></clipPath></defs><sodipodi:namedview
     pagecolor="#ffffff"
     bordercolor="#666666"
     borderopacity="1"
     objecttolerance="10"
     gridtolerance="10"
     guidetolerance="10"
     inkscape:pageopacity="0"
     inkscape:pageshadow="2"
     inkscape:window-width="1159"
     inkscape:window-height="689"
     id="namedview85"
     showgrid="false"
     inkscape:zoom="0.52349998"
     inkscape:cx="-88.000728"
     inkscape:cy="163.97745"
     inkscape:window-x="0"
     inkscape:window-y="23"
     inkscape:window-maximized="0"
     inkscape:current-layer="g91" /><g
     id="g91"
     inkscape:groupmode="layer"
     inkscape:label="129645-ORH7QR-434"
     transform="matrix(1.3333333,0,0,-1.3333333,-133.98813,371.79651)"><g
       id="g325"
       transform="translate(411.5381,268.0571)"><path
         d="M 0,0 C 1.003,1.65 0.307,3.799 -1.457,4.588 -9.364,8.123 -32.05,15.784 -64.536,5.999 -105.354,-6.295 -189.3,-29.097 -224.391,-42.149 c -31.333,-11.655 -59.028,-26.936 -64.6,-30.075 -0.597,-0.337 -0.878,-1.041 -0.68,-1.698 l 0.072,-0.243 c 0.321,-1.062 1.177,-1.877 2.257,-2.135 7.466,-1.783 38.896,-7.151 97.074,10.373 67.325,20.278 157.438,44.757 171.458,50.845 C -8.144,-10.45 -2.616,-4.305 0,0"
         style="fill:#e9f1f3;fill-opacity:1;fill-rule:nonzero;stroke:none"
         id="path327"
         inkscape:connector-curvature="0" /></g><g
       id="g329"><g
         id="g331" /><g
         id="g343"><g
           clip-path="url(#clipPath335)"
           id="g341"><g
             transform="translate(171.1836,211.4824)"
             id="g339"><path
               d="m 0,0 -35.945,-11.387 -6.572,-9.212 c 4.39,-0.704 11.131,-1.401 20.303,-1.298 z"
               style="fill:#dbe9eb;fill-opacity:1;fill-rule:nonzero;stroke:none"
               id="path337"
               inkscape:connector-curvature="0" /></g></g></g></g><g
       id="g345"
       transform="translate(188.1025,222.7363)"><path
         d="m 0,0 c 35.091,13.053 119.037,35.854 159.854,48.149 22.651,6.822 41.434,6.741 53.417,4.87 -11.248,3.176 -30.065,5.622 -54.372,-1.699 C 118.082,39.025 34.136,16.224 -0.955,3.172 -28.716,-7.154 -53.618,-20.325 -62.811,-25.378 -49.329,-19.393 -23.707,-8.817 0,0"
         style="fill:#ffffff;fill-opacity:1;fill-rule:nonzero;stroke:none"
         id="path347"
         inkscape:connector-curvature="0" /></g><g
       id="g349"><g
         id="g351" /><g
         id="g363"><g
           clip-path="url(#clipPath355)"
           id="g361"><g
             transform="translate(390.6328,259.9331)"
             id="g359"><path
               d="m 0,0 c -14.021,-6.088 -104.134,-30.567 -171.458,-50.845 -46.921,-14.133 -81.18,-16.781 -96.599,-16.342 0.419,-0.482 0.978,-0.836 1.62,-0.989 7.466,-1.782 38.896,-7.151 97.074,10.373 67.325,20.278 157.438,44.757 171.459,50.845 10.666,4.632 16.193,10.777 18.809,15.082 0.597,0.982 0.588,2.138 0.116,3.082 C 16.478,7.583 8.229,3.574 0,0"
               style="fill:#dbe9eb;fill-opacity:1;fill-rule:nonzero;stroke:none"
               id="path357"
               inkscape:connector-curvature="0" /></g></g></g></g><g
       id="g365"><g
         id="g367" /><g
         id="g379"><g
           clip-path="url(#clipPath371)"
           id="g377"><g
             transform="translate(316.2617,229.7891)"
             id="g375"><path
               d="M 0,0 5.41,9.116 C 0.491,7.701 -5.404,6.008 -10.553,4.529 L -44.212,-5.157 -58.265,-16.795 C -36.56,-10.416 -21.017,-6.035 0,0"
               style="fill:#dbe9eb;fill-opacity:1;fill-rule:nonzero;stroke:none"
               id="path373"
               inkscape:connector-curvature="0" /></g></g></g></g><g
       id="g381"
       transform="translate(166.3311,217.4824)"><path
         d="M 0,0 V 0 C 0,0 -33.443,12.496 -50.554,24.547 L -65.84,19.942 -39.814,-19.454 C -32.494,-15.465 -17.76,-7.733 0,0"
         style="fill:#366ca7;fill-opacity:1;fill-rule:nonzero;stroke:none"
         id="path383"
         inkscape:connector-curvature="0" /></g><g
       id="g385"
       transform="translate(389.9521,272.4482)"><path
         d="M 0,0 11.19,3.371 C 7.55,4.386 3.135,5.319 -1.993,5.874 L -7.074,4.343 C -7.452,4.229 -7.504,3.716 -7.156,3.529 L -0.719,0.072 C -0.498,-0.046 -0.24,-0.072 0,0"
         style="fill:#4487ba;fill-opacity:1;fill-rule:nonzero;stroke:none"
         id="path387"
         inkscape:connector-curvature="0" /></g><g
       id="g389"
       transform="translate(379.0527,275.6392)"><path
         d="m 0,0 -4.913,-1.479 c -0.885,-0.267 -1.193,-1.362 -0.578,-2.052 l 1.454,-1.63 c 1.085,-1.216 2.775,-1.693 4.336,-1.223 l 6.928,2.087 c 0.453,0.136 0.514,0.753 0.097,0.977 L 1.405,-0.141 C 0.975,0.09 0.469,0.141 0,0"
         style="fill:#4487ba;fill-opacity:1;fill-rule:nonzero;stroke:none"
         id="path391"
         inkscape:connector-curvature="0" /></g><g
       id="g393"
       transform="translate(226.3906,217.5391)"><path
         d="m 0,0 -12.253,3.683 -6.869,-2.069 5.471,-5.726 z"
         style="fill:#d7e7eb;fill-opacity:1;fill-rule:nonzero;stroke:none"
         id="path395"
         inkscape:connector-curvature="0" /></g><g
       id="g397"><g
         id="g399" /><g
         id="g411"><g
           clip-path="url(#clipPath403)"
           id="g409"><g
             transform="translate(226.3906,217.5391)"
             id="g407"><path
               d="m 0,0 -12.253,3.683 -6.869,-2.069 5.471,-5.726 z"
               style="fill:#dbe9eb;fill-opacity:1;fill-rule:nonzero;stroke:none"
               id="path405"
               inkscape:connector-curvature="0" /></g></g></g></g><g
       id="g413"
       transform="translate(167.7266,209.416)"><path
         d="m 0,0 3.457,2.066 c 0,0 -6.363,-0.37 -19.047,-4.19 -12.684,-3.82 -38.032,-13.002 -38.032,-13.002 z"
         style="fill:#ffffff;fill-opacity:1;fill-rule:nonzero;stroke:none"
         id="path415"
         inkscape:connector-curvature="0" /></g><g
       id="g417"
       transform="translate(171.1836,211.4824)"><path
         d="m 0,0 c 0,0 -4.129,-4.841 -18.277,-9.103 -12.31,-3.707 -32.312,-7.953 -37.303,-8.994 -0.655,-0.136 -1.303,0.251 -1.496,0.893 l -0.003,0.012 z"
         style="fill:#d7e7eb;fill-opacity:1;fill-rule:nonzero;stroke:none"
         id="path419"
         inkscape:connector-curvature="0" /></g><g
       id="g421"><g
         id="g423" /><g
         id="g435"><g
           clip-path="url(#clipPath427)"
           id="g433"><g
             transform="translate(171.1836,211.4824)"
             id="g431"><path
               d="m 0,0 c 0,0 -4.129,-4.841 -18.277,-9.103 -12.31,-3.707 -32.312,-7.953 -37.303,-8.994 -0.655,-0.136 -1.303,0.251 -1.496,0.893 l -0.003,0.012 z"
               style="fill:#dbe9eb;fill-opacity:1;fill-rule:nonzero;stroke:none"
               id="path429"
               inkscape:connector-curvature="0" /></g></g></g></g><g
       id="g437"
       transform="translate(343.1328,256.6392)"><path
         d="m 0,0 -0.035,-0.011 c -0.979,-0.295 -2.01,0.26 -2.305,1.238 l -0.61,2.027 c -0.295,0.978 0.259,2.01 1.237,2.305 l 0.035,0.01 C -0.699,5.864 0.332,5.31 0.627,4.332 L 1.237,2.304 C 1.532,1.326 0.979,0.294 0,0"
         style="fill:#4487ba;fill-opacity:1;fill-rule:nonzero;stroke:none"
         id="path439"
         inkscape:connector-curvature="0" /></g><g
       id="g441"
       transform="translate(337.4414,254.9248)"><path
         d="m 0,0 -0.036,-0.011 c -0.978,-0.295 -2.01,0.26 -2.304,1.238 l -0.611,2.027 c -0.294,0.978 0.26,2.01 1.237,2.305 l 0.036,0.01 C -0.699,5.864 0.332,5.31 0.627,4.332 L 1.237,2.304 C 1.532,1.326 0.978,0.294 0,0"
         style="fill:#4487ba;fill-opacity:1;fill-rule:nonzero;stroke:none"
         id="path443"
         inkscape:connector-curvature="0" /></g><g
       id="g445"
       transform="translate(331.75,253.2104)"><path
         d="m 0,0 -0.036,-0.011 c -0.978,-0.295 -2.01,0.26 -2.305,1.238 l -0.61,2.027 c -0.295,0.978 0.26,2.01 1.237,2.305 L -1.678,5.57 C -0.7,5.864 0.332,5.31 0.626,4.332 L 1.237,2.304 C 1.531,1.326 0.978,0.294 0,0"
         style="fill:#4487ba;fill-opacity:1;fill-rule:nonzero;stroke:none"
         id="path447"
         inkscape:connector-curvature="0" /></g><g
       id="g449"
       transform="translate(326.0576,251.4961)"><path
         d="m 0,0 -0.035,-0.011 c -0.979,-0.295 -2.01,0.26 -2.305,1.238 l -0.61,2.027 c -0.295,0.978 0.259,2.01 1.237,2.305 L -1.678,5.57 C -0.699,5.864 0.332,5.31 0.627,4.332 L 1.238,2.304 C 1.532,1.326 0.979,0.294 0,0"
         style="fill:#4487ba;fill-opacity:1;fill-rule:nonzero;stroke:none"
         id="path451"
         inkscape:connector-curvature="0" /></g><g
       id="g453"
       transform="translate(320.3662,249.7817)"><path
         d="m 0,0 -0.036,-0.011 c -0.978,-0.295 -2.009,0.26 -2.304,1.238 l -0.611,2.027 c -0.294,0.978 0.26,2.01 1.238,2.305 L -1.678,5.57 C -0.699,5.864 0.332,5.31 0.627,4.332 L 1.237,2.304 C 1.532,1.326 0.979,0.294 0,0"
         style="fill:#4487ba;fill-opacity:1;fill-rule:nonzero;stroke:none"
         id="path455"
         inkscape:connector-curvature="0" /></g><g
       id="g457"
       transform="translate(314.6748,248.0674)"><path
         d="m 0,0 -0.036,-0.011 c -0.978,-0.295 -2.01,0.26 -2.304,1.238 l -0.611,2.027 c -0.295,0.978 0.26,2.01 1.237,2.305 L -1.678,5.57 C -0.7,5.864 0.332,5.31 0.627,4.332 L 1.237,2.304 C 1.532,1.326 0.978,0.295 0,0"
         style="fill:#4487ba;fill-opacity:1;fill-rule:nonzero;stroke:none"
         id="path459"
         inkscape:connector-curvature="0" /></g><g
       id="g461"
       transform="translate(308.9834,246.3525)"><path
         d="m 0,0 -0.036,-0.011 c -0.979,-0.294 -2.01,0.26 -2.305,1.239 l -0.61,2.027 c -0.295,0.978 0.26,2.01 1.237,2.305 l 0.036,0.01 C -0.7,5.865 0.332,5.311 0.626,4.333 L 1.237,2.305 C 1.531,1.327 0.978,0.295 0,0"
         style="fill:#4487ba;fill-opacity:1;fill-rule:nonzero;stroke:none"
         id="path463"
         inkscape:connector-curvature="0" /></g><g
       id="g465"
       transform="translate(303.291,244.6387)"><path
         d="m 0,0 -0.035,-0.011 c -0.979,-0.295 -2.01,0.26 -2.305,1.238 l -0.61,2.028 c -0.295,0.977 0.259,2.009 1.237,2.304 L -1.678,5.57 C -0.699,5.864 0.332,5.31 0.627,4.332 L 1.238,2.305 C 1.532,1.326 0.979,0.295 0,0"
         style="fill:#4487ba;fill-opacity:1;fill-rule:nonzero;stroke:none"
         id="path467"
         inkscape:connector-curvature="0" /></g><g
       id="g469"
       transform="translate(297.5996,242.9248)"><path
         d="m 0,0 -0.036,-0.012 c -0.978,-0.294 -2.01,0.26 -2.304,1.239 l -0.611,2.027 c -0.294,0.978 0.26,2.01 1.238,2.305 l 0.035,0.01 C -0.699,5.864 0.332,5.31 0.627,4.332 L 1.237,2.304 C 1.532,1.326 0.979,0.294 0,0"
         style="fill:#4487ba;fill-opacity:1;fill-rule:nonzero;stroke:none"
         id="path471"
         inkscape:connector-curvature="0" /></g><g
       id="g473"
       transform="translate(280.5244,237.7812)"><path
         d="m 0,0 -0.035,-0.011 c -0.979,-0.295 -2.01,0.26 -2.305,1.238 l -0.61,2.028 c -0.295,0.977 0.259,2.01 1.237,2.304 l 0.035,0.01 C -0.699,5.864 0.332,5.311 0.627,4.332 L 1.237,2.305 C 1.532,1.326 0.979,0.295 0,0"
         style="fill:#4487ba;fill-opacity:1;fill-rule:nonzero;stroke:none"
         id="path475"
         inkscape:connector-curvature="0" /></g><g
       id="g477"
       transform="translate(274.833,236.0674)"><path
         d="m 0,0 -0.036,-0.011 c -0.978,-0.295 -2.01,0.259 -2.304,1.238 l -0.611,2.027 c -0.294,0.978 0.26,2.01 1.237,2.305 l 0.036,0.01 C -0.699,5.864 0.332,5.31 0.627,4.332 L 1.237,2.304 C 1.532,1.326 0.978,0.294 0,0"
         style="fill:#4487ba;fill-opacity:1;fill-rule:nonzero;stroke:none"
         id="path479"
         inkscape:connector-curvature="0" /></g><g
       id="g481"
       transform="translate(269.1416,234.3525)"><path
         d="m 0,0 -0.036,-0.011 c -0.978,-0.295 -2.01,0.26 -2.305,1.238 l -0.61,2.028 c -0.295,0.977 0.26,2.01 1.237,2.304 l 0.036,0.01 C -0.7,5.864 0.332,5.311 0.626,4.332 L 1.237,2.305 C 1.532,1.326 0.978,0.295 0,0"
         style="fill:#4487ba;fill-opacity:1;fill-rule:nonzero;stroke:none"
         id="path483"
         inkscape:connector-curvature="0" /></g><g
       id="g485"
       transform="translate(263.4492,232.6387)"><path
         d="m 0,0 -0.035,-0.011 c -0.979,-0.295 -2.01,0.259 -2.305,1.238 l -0.61,2.027 c -0.295,0.978 0.259,2.01 1.237,2.305 l 0.036,0.01 C -0.699,5.864 0.333,5.31 0.627,4.332 L 1.238,2.304 C 1.532,1.326 0.979,0.294 0,0"
         style="fill:#4487ba;fill-opacity:1;fill-rule:nonzero;stroke:none"
         id="path487"
         inkscape:connector-curvature="0" /></g><g
       id="g489"
       transform="translate(257.7578,230.9238)"><path
         d="m 0,0 -0.035,-0.011 c -0.979,-0.295 -2.01,0.26 -2.305,1.238 l -0.611,2.028 c -0.294,0.977 0.26,2.01 1.238,2.304 L -1.678,5.57 C -0.699,5.864 0.332,5.311 0.627,4.332 L 1.237,2.305 C 1.532,1.326 0.979,0.295 0,0"
         style="fill:#4487ba;fill-opacity:1;fill-rule:nonzero;stroke:none"
         id="path491"
         inkscape:connector-curvature="0" /></g><g
       id="g493"
       transform="translate(252.0664,229.21)"><path
         d="M 0,0 -0.036,-0.011 C -1.014,-0.306 -2.045,0.248 -2.34,1.227 l -0.611,2.027 c -0.295,0.978 0.26,2.01 1.238,2.305 l 0.035,0.01 C -0.699,5.864 0.332,5.31 0.627,4.332 L 1.237,2.304 C 1.532,1.326 0.978,0.294 0,0"
         style="fill:#4487ba;fill-opacity:1;fill-rule:nonzero;stroke:none"
         id="path495"
         inkscape:connector-curvature="0" /></g><g
       id="g497"
       transform="translate(246.3745,227.4951)"><path
         d="m 0,0 -0.036,-0.011 c -0.978,-0.295 -2.009,0.26 -2.304,1.238 l -0.611,2.028 c -0.294,0.977 0.26,2.01 1.238,2.305 l 0.035,0.01 C -0.699,5.864 0.332,5.311 0.627,4.332 L 1.238,2.305 C 1.532,1.326 0.978,0.295 0,0"
         style="fill:#4487ba;fill-opacity:1;fill-rule:nonzero;stroke:none"
         id="path499"
         inkscape:connector-curvature="0" /></g><g
       id="g501"
       transform="translate(240.6831,225.7812)"><path
         d="m 0,0 -0.036,-0.011 c -0.978,-0.295 -2.01,0.259 -2.304,1.238 l -0.611,2.027 c -0.295,0.978 0.26,2.01 1.238,2.305 l 0.035,0.01 C -0.7,5.864 0.332,5.31 0.626,4.332 L 1.237,2.304 C 1.532,1.326 0.978,0.294 0,0"
         style="fill:#4487ba;fill-opacity:1;fill-rule:nonzero;stroke:none"
         id="path503"
         inkscape:connector-curvature="0" /></g><g
       id="g505"
       transform="translate(234.9912,224.0664)"><path
         d="m 0,0 -0.036,-0.011 c -0.978,-0.294 -2.009,0.26 -2.304,1.238 l -0.611,2.028 c -0.295,0.977 0.26,2.01 1.238,2.305 l 0.035,0.01 C -0.699,5.864 0.332,5.311 0.627,4.332 L 1.238,2.305 C 1.532,1.326 0.978,0.295 0,0"
         style="fill:#4487ba;fill-opacity:1;fill-rule:nonzero;stroke:none"
         id="path507"
         inkscape:connector-curvature="0" /></g><g
       id="g509"
       transform="translate(203.1992,214.4912)"><path
         d="M 0,0 -0.036,-0.011 C -1.014,-0.306 -2.045,0.248 -2.34,1.227 l -0.611,2.027 c -0.294,0.978 0.26,2.01 1.238,2.305 l 0.036,0.01 C -0.699,5.864 0.332,5.31 0.627,4.332 L 1.238,2.304 C 1.532,1.326 0.978,0.294 0,0"
         style="fill:#4487ba;fill-opacity:1;fill-rule:nonzero;stroke:none"
         id="path511"
         inkscape:connector-curvature="0" /></g><g
       id="g513"
       transform="translate(197.5078,212.7764)"><path
         d="m 0,0 -0.036,-0.011 c -0.978,-0.295 -2.009,0.26 -2.304,1.238 l -0.611,2.028 c -0.295,0.977 0.26,2.01 1.238,2.304 L -1.678,5.57 C -0.7,5.864 0.332,5.311 0.626,4.332 L 1.237,2.305 C 1.532,1.326 0.978,0.295 0,0"
         style="fill:#4487ba;fill-opacity:1;fill-rule:nonzero;stroke:none"
         id="path515"
         inkscape:connector-curvature="0" /></g><g
       id="g517"
       transform="translate(191.8159,211.0625)"><path
         d="M 0,0 -0.036,-0.011 C -1.014,-0.306 -2.045,0.248 -2.34,1.227 l -0.611,2.027 c -0.295,0.978 0.26,2.01 1.238,2.305 l 0.035,0.01 C -0.699,5.864 0.332,5.31 0.627,4.332 L 1.238,2.304 C 1.532,1.326 0.978,0.294 0,0"
         style="fill:#4487ba;fill-opacity:1;fill-rule:nonzero;stroke:none"
         id="path519"
         inkscape:connector-curvature="0" /></g><g
       id="g521"
       transform="translate(186.1245,209.3477)"><path
         d="m 0,0 -0.036,-0.011 c -0.978,-0.295 -2.01,0.26 -2.304,1.238 l -0.611,2.028 c -0.295,0.977 0.26,2.01 1.238,2.305 l 0.035,0.01 C -0.7,5.864 0.332,5.311 0.626,4.332 L 1.237,2.305 C 1.532,1.326 0.978,0.295 0,0"
         style="fill:#4487ba;fill-opacity:1;fill-rule:nonzero;stroke:none"
         id="path523"
         inkscape:connector-curvature="0" /></g><g
       id="g525"
       transform="translate(354.3467,253.9414)"><path
         d="m 0,0 -2.928,-0.881 c -1.01,-0.305 -2.076,0.268 -2.38,1.278 l -2.449,8.131 c -0.305,1.01 0.268,2.076 1.278,2.38 l 2.928,0.882 c 1.01,0.304 2.075,-0.268 2.38,-1.278 L 1.278,2.381 C 1.583,1.37 1.01,0.305 0,0"
         style="fill:#4487ba;fill-opacity:1;fill-rule:nonzero;stroke:none"
         id="path527"
         inkscape:connector-curvature="0" /></g><g
       id="g529"
       transform="translate(292.4697,235.3047)"><path
         d="m 0,0 -2.927,-0.882 c -1.011,-0.305 -2.076,0.268 -2.381,1.278 l -2.449,8.131 c -0.304,1.011 0.269,2.077 1.279,2.381 l 2.927,0.881 c 1.011,0.305 2.076,-0.268 2.381,-1.278 L 1.278,2.38 C 1.583,1.37 1.011,0.304 0,0"
         style="fill:#4487ba;fill-opacity:1;fill-rule:nonzero;stroke:none"
         id="path531"
         inkscape:connector-curvature="0" /></g><g
       id="g533"
       transform="translate(318.1689,237.2695)"><path
         d="m 0,0 3.558,2.336 c 0,0 -10.023,-0.304 -25.649,-5.01 -15.627,-4.707 -39.329,-12.304 -54.508,-14.68 0,0 34.757,3.768 37.788,4.587 C -35.78,-11.948 0,0 0,0"
         style="fill:#ffffff;fill-opacity:1;fill-rule:nonzero;stroke:none"
         id="path535"
         inkscape:connector-curvature="0" /></g><g
       id="g537"
       transform="translate(321.7266,239.6055)"><path
         d="m 0,0 c 0,0 -62.257,-18.097 -95.336,-22.066 l -13.651,-4.113 c 0,0 34.955,0.228 68.956,10.469 0,0 41.583,10.559 40.031,15.71"
         style="fill:#d7e7eb;fill-opacity:1;fill-rule:nonzero;stroke:none"
         id="path539"
         inkscape:connector-curvature="0" /></g><g
       id="g541"><g
         id="g543" /><g
         id="g555"><g
           clip-path="url(#clipPath547)"
           id="g553"><g
             transform="translate(321.7266,239.6055)"
             id="g551"><path
               d="m 0,0 c 0,0 -62.257,-18.097 -95.336,-22.066 l -13.651,-4.113 c 0,0 34.955,0.228 68.956,10.469 0,0 41.583,10.559 40.031,15.71"
               style="fill:#dbe9eb;fill-opacity:1;fill-rule:nonzero;stroke:none"
               id="path549"
               inkscape:connector-curvature="0" /></g></g></g></g><g
       id="g557"
       transform="translate(151.8262,223.3467)"><path
         d="m 0,0 -39.684,-3.559 3.802,-5.754 39.085,7.961 C 2.181,-0.925 1.11,-0.474 0,0"
         style="fill:#dbe9eb;fill-opacity:1;fill-rule:nonzero;stroke:none"
         id="path559"
         inkscape:connector-curvature="0" /></g><g
       id="g561"
       transform="translate(108.333,225.5547)"><path
         d="m 0,0 2.001,-3.029 26.34,1.781 z"
         style="fill:#dbe9eb;fill-opacity:1;fill-rule:nonzero;stroke:none"
         id="path563"
         inkscape:connector-curvature="0" /></g></g></svg>