<svg height="141.89" preserveAspectRatio="xMidYMid meet" viewBox="0 0 640.06 141.89" width="640.06" xmlns="http://www.w3.org/2000/svg" xmlns:xlink="http://www.w3.org/1999/xlink"><defs><path id="a" d="m63.63 365.87 51.71 9.6 51.1 10.84 25.39 6.34 24.15 7.59 12.7 5.11 21.05 7.28 26.63 9.59 21.99 8.06 4.95 4.64 6.19 7.65-4.02-.84-4.96-4.02-8.36-2.79-11.14-3.41-6.2-1.23-3.4 1.23v8.21l2.47 3.87-4.33 2.79h-13.94v-3.81l6.82-2.85v-9.44l-4.34-4.34-8.36-3.72-11.46-3.46-8.67-1.49h-6.19l-4.33.56v24.74l13 1.79v5.11l-9.29 1.24-26.94-2.48v-5.66l12.08-2.85v-21.89l-2.48-2.57-9.6-5.27-11.45-4.64-9.91-3.1-11.15-3.09-9.6-1.86-11.77-1.55-15.48-1.55h-13-13.32l-16.1 1.55v45.21l4.64 3.4h12.7v10.84l-14.55 1.24-37.16-3.72v-8.36h5.26v-3.4l8.05-1.24.62-43.97-8.67-3.1-35.61-8.67-19.35-4.64v-26.32z"/><path id="b" d="m27.4 341.41c-1.24 1.1-2.02 1.79-2.33 2.07-.26.23-.33.63-.16.94.17.3.59 1.05 1.26 2.25v13.93"/><path id="c" d="m117.29 356.36c-1.24 1.11-2.01 1.8-2.33 2.07-.26.24-.33.63-.16.94.17.3.59 1.05 1.26 2.26v13.93"/><path id="d" d="m135.66 366.67c-1.25 1.11-2.02 1.8-2.33 2.08-.27.23-.34.62-.16.93.16.3.58 1.06 1.25 2.26v13.93"/><path id="e" d="m127.39 366.46c-1.24 1.1-2.02 1.79-2.33 2.07-.27.24-.33.63-.16.94.17.3.58 1.05 1.25 2.25v13.93"/><path id="f" d="m189.72 375.56c-1.24 1.11-2.02 1.8-2.33 2.07-.27.24-.33.63-.16.94.17.3.59 1.05 1.25 2.25v13.94"/><path id="g" d="m195.7 385.87c-1.25 1.11-2.02 1.8-2.33 2.07-.27.24-.34.63-.16.94.16.3.58 1.05 1.25 2.26v13.93"/><path id="h" d="m232.36 396.59c-.64.72-1.03 1.16-1.19 1.34-.13.14-.16.34-.08.51.08.19.3.69.65 1.48v8.8"/><path id="i" d="m229.33 400.13c-.64.71-1.03 1.15-1.19 1.33-.13.14-.16.34-.08.51.08.2.3.69.65 1.48v8.81"/><path id="j" d="m255.24 409.21c-.64.71-1.03 1.16-1.19 1.34-.13.14-.16.34-.08.51.08.19.3.69.65 1.48v8.8"/><path id="k" d="m258.1 404.73c-.64.71-1.03 1.16-1.19 1.34-.13.14-.16.33-.08.5.08.2.3.7.65 1.49v8.8"/><path id="l" d="m275.5 418.13c-.63.71-1.03 1.16-1.19 1.33-.12.14-.15.34-.08.51.09.2.31.69.66 1.48v8.81"/><path id="m" d="m278.36 413.65c-.63.71-1.03 1.16-1.19 1.33-.12.14-.15.34-.08.51.09.2.31.69.66 1.48v8.81"/><path id="n" d="m291.15 423.02c-.25.27-.4.44-.46.51-.05.06-.06.13-.03.2s.11.26.25.57v3.38"/><path id="o" d="m294.68 456.44 345.38-5.26v-73.85h-7.12l-1.86-4.65-17.03 1.55-1.55-2.48-5.57.93-2.17-2.48h-4.64l-7.12 17.34-228.53.93-24.15-3.4-10.53 2.47v2.48l-7.12 2.48-.93 7.74h-25.87z"/><path id="p" d="m362.52 363.55 4.34-3.41 34.37-32.2 4.34-4.34 7.43-6.19 8.67-1.86h7.43l16.1 1.86 26.32 6.19 54.19 16.1 68.12 17.03 7.74 6.82-7.74 25.39h-13l-41.5-3.72-42.42-4.64-32.82-2.79-38.09 1.86-34.99 5.57-26.94 6.19-1.55-7.98-3.09-14.31z"/><path id="q" d="m597.7 385.96c-12.23-1.44-36.68-4.33-73.36-8.67l-73.69-7.09-17.47-1.27-15.24 1.27-17.15 4.31-37.8 12.38"/><path id="r" d="m597.7 387.48c-12.23-1.45-36.68-4.34-73.36-8.67l-73.69-7.09-17.47-1.27-15.24 1.27-17.15 4.3-37.8 12.39"/><path id="s" d="m597.36 388.99c-12.23-1.44-36.68-4.33-73.37-8.67l-73.68-7.09-17.47-1.27-15.24 1.27-17.15 4.31-37.8 12.38"/><path id="t" d="m597.36 382.96c-12.23-1.45-36.68-4.34-73.37-8.67l-73.68-7.09-17.47-1.27-15.24 1.27-17.15 4.3-37.8 12.39"/><path id="u" d="m597.01 384.47c-12.22-1.44-36.68-4.33-73.36-8.67l-73.68-7.09-17.47-1.27-15.25 1.27-17.15 4.31-37.79 12.38"/><path id="v" d="m598.72 378.49c-12.35-1.45-37.07-4.34-74.13-8.67l-74.46-7.09-17.65-1.27-15.41 1.27-17.33 4.3-38.19 12.39"/><path id="w" d="m598.72 380c-12.35-1.44-37.07-4.33-74.13-8.67l-74.46-7.09-17.65-1.27-15.41 1.27-17.33 4.31-38.19 12.38"/><path id="x" d="m598.38 381.52c-12.36-1.45-37.07-4.34-74.14-8.67l-74.46-7.09-17.65-1.27-15.41 1.27-17.33 4.3-38.19 12.39"/><path id="y" d="m598.38 375.48c-12.36-1.44-37.07-4.33-74.14-8.67l-74.46-7.09-17.65-1.27-15.41 1.27-17.33 4.3-38.19 12.39"/><path id="z" d="m598.03 377c-12.36-1.45-37.07-4.34-74.14-8.67l-74.46-7.1-17.65-1.27-15.4 1.27-17.34 4.31-38.19 12.38"/><path id="A" d="m600.18 370.95c-12.49-1.45-37.46-4.34-74.91-8.67l-75.24-7.09-17.83-1.27-15.57 1.27-17.51 4.3-38.59 12.39"/><path id="B" d="m600.18 372.46c-12.49-1.44-37.46-4.33-74.91-8.67l-75.24-7.09-17.83-1.27-15.57 1.27-17.51 4.31-38.59 12.38"/><path id="C" d="m599.83 373.98c-12.49-1.45-37.46-4.34-74.91-8.67l-75.24-7.09-17.83-1.27-15.57 1.27-17.51 4.3-38.59 12.39"/><path id="D" d="m599.83 367.94c-12.49-1.44-37.46-4.33-74.91-8.67l-75.24-7.09-17.83-1.27-15.57 1.27-17.51 4.31-38.59 12.38"/><path id="E" d="m599.48 369.46c-12.49-1.45-37.46-4.34-74.91-8.67l-75.24-7.09-17.83-1.27-15.57 1.27-17.51 4.3-38.59 12.39"/><path id="F" d="m600.18 388.55c-12.23-1.09-36.68-3.29-73.37-6.57l-73.68-5.38-17.47-.97-15.24.97-17.15 3.26-37.8 9.4"/><path id="G" d="m319.2 456.44h46.44l-2.1-68.86-24.14-4.15-11.02 3.14v4.04l-8.13 2.02v8.33"/></defs><g transform="translate(.000001 -314.55)"><g><use fill="#1e1e1e" height="100%" width="100%" xlink:href="#a"/><use fill="none" height="100%" width="100%" xlink:href="#a"/></g><g><use fill="#1e1e1e" height="100%" width="100%" xlink:href="#b"/><use fill="none" height="100%" stroke="#000" stroke-width="1.5" width="100%" xlink:href="#b"/></g><g><use fill="#1e1e1e" height="100%" width="100%" xlink:href="#c"/><use fill="none" height="100%" stroke="#000" stroke-width="1.5" width="100%" xlink:href="#c"/></g><g><use fill="#1e1e1e" height="100%" width="100%" xlink:href="#d"/><use fill="none" height="100%" stroke="#000" stroke-width="1.5" width="100%" xlink:href="#d"/></g><g><use fill="#1e1e1e" height="100%" width="100%" xlink:href="#e"/><use fill="none" height="100%" stroke="#000" stroke-width="1.5" width="100%" xlink:href="#e"/></g><g><use fill="#1e1e1e" height="100%" width="100%" xlink:href="#f"/><use fill="none" height="100%" stroke="#000" stroke-width="1.5" width="100%" xlink:href="#f"/></g><g><use fill="#1e1e1e" height="100%" width="100%" xlink:href="#g"/><use fill="none" height="100%" stroke="#000" stroke-width="1.5" width="100%" xlink:href="#g"/></g><g><use fill="#1e1e1e" height="100%" width="100%" xlink:href="#h"/><use fill="none" height="100%" stroke="#000" stroke-width="1.5" width="100%" xlink:href="#h"/></g><g><use fill="#1e1e1e" height="100%" width="100%" xlink:href="#i"/><use fill="none" height="100%" stroke="#000" stroke-width="1.5" width="100%" xlink:href="#i"/></g><g><use fill="#1e1e1e" height="100%" width="100%" xlink:href="#j"/><use fill="none" height="100%" stroke="#000" stroke-width="1.5" width="100%" xlink:href="#j"/></g><g><use fill="#1e1e1e" height="100%" width="100%" xlink:href="#k"/><use fill="none" height="100%" stroke="#000" stroke-width="1.5" width="100%" xlink:href="#k"/></g><g><use fill="#1e1e1e" height="100%" width="100%" xlink:href="#l"/><use fill="none" height="100%" stroke="#000" stroke-width="1.5" width="100%" xlink:href="#l"/></g><g><use fill="#1e1e1e" height="100%" width="100%" xlink:href="#m"/><use fill="none" height="100%" stroke="#000" stroke-width="1.5" width="100%" xlink:href="#m"/></g><g><use fill="#1e1e1e" height="100%" width="100%" xlink:href="#n"/><use fill="none" height="100%" stroke="#000" stroke-width="1.5" width="100%" xlink:href="#n"/></g><g fill="none" stroke="#000"><path d="m302.02 429.68c-.24.28-.39.45-.45.52-.05.05-.06.13-.03.19.03.08.11.27.25.57v3.38" height="100%" stroke-width="2" width="100%"/><path d="m446.14 317.65-38.01 3.86" height="100%" width="100%"/><path d="m454 319.3-47.89 4.14" height="100%" width="100%"/><path d="m461.46 321.23-57.74 4.43" height="100%" width="100%"/></g><g><use fill="#1e1e1e" height="100%" width="100%" xlink:href="#o"/><use fill="none" height="100%" width="100%" xlink:href="#o"/></g><g><use fill="#fff" fill-opacity=".62" height="100%" width="100%" xlink:href="#p"/><use fill="none" height="100%" stroke="#000" stroke-width="2" width="100%" xlink:href="#p"/></g><g><use fill="#fff" fill-opacity=".29" height="100%" width="100%" xlink:href="#q"/><use fill="none" height="100%" stroke="#000" width="100%" xlink:href="#q"/></g><g><use fill="#fff" fill-opacity=".29" height="100%" width="100%" xlink:href="#r"/><use fill="none" height="100%" stroke="#000" width="100%" xlink:href="#r"/></g><g><use fill="#fff" fill-opacity=".29" height="100%" width="100%" xlink:href="#s"/><use fill="none" height="100%" stroke="#000" width="100%" xlink:href="#s"/></g><g><use fill="#fff" fill-opacity=".29" height="100%" width="100%" xlink:href="#t"/><use fill="none" height="100%" stroke="#000" width="100%" xlink:href="#t"/></g><g><use fill="#fff" fill-opacity=".29" height="100%" width="100%" xlink:href="#u"/><use fill="none" height="100%" stroke="#000" width="100%" xlink:href="#u"/></g><g><use fill="#fff" fill-opacity=".29" height="100%" width="100%" xlink:href="#v"/><use fill="none" height="100%" stroke="#000" width="100%" xlink:href="#v"/></g><g><use fill="#fff" fill-opacity=".29" height="100%" width="100%" xlink:href="#w"/><use fill="none" height="100%" stroke="#000" width="100%" xlink:href="#w"/></g><g><use fill="#fff" fill-opacity=".29" height="100%" width="100%" xlink:href="#x"/><use fill="none" height="100%" stroke="#000" width="100%" xlink:href="#x"/></g><g><use fill="#fff" fill-opacity=".29" height="100%" width="100%" xlink:href="#y"/><use fill="none" height="100%" stroke="#000" width="100%" xlink:href="#y"/></g><g><use fill="#fff" fill-opacity=".29" height="100%" width="100%" xlink:href="#z"/><use fill="none" height="100%" stroke="#000" width="100%" xlink:href="#z"/></g><g><use fill="#fff" fill-opacity=".29" height="100%" width="100%" xlink:href="#A"/><use fill="none" height="100%" stroke="#000" width="100%" xlink:href="#A"/></g><g><use fill="#fff" fill-opacity=".29" height="100%" width="100%" xlink:href="#B"/><use fill="none" height="100%" stroke="#000" width="100%" xlink:href="#B"/></g><g><use fill="#fff" fill-opacity=".29" height="100%" width="100%" xlink:href="#C"/><use fill="none" height="100%" stroke="#000" width="100%" xlink:href="#C"/></g><g><use fill="#fff" fill-opacity=".29" height="100%" width="100%" xlink:href="#D"/><use fill="none" height="100%" stroke="#000" width="100%" xlink:href="#D"/></g><g><use fill="#fff" fill-opacity=".29" height="100%" width="100%" xlink:href="#E"/><use fill="none" height="100%" stroke="#000" width="100%" xlink:href="#E"/></g><g><use fill="#fff" fill-opacity=".29" height="100%" width="100%" xlink:href="#F"/><use fill="none" height="100%" stroke="#000" width="100%" xlink:href="#F"/></g><g><use fill="#868686" height="100%" width="100%" xlink:href="#G"/><use fill="none" height="100%" width="100%" xlink:href="#G"/></g></g></svg>