<?xml version="1.0" encoding="UTF-8" standalone="no"?>
<svg
   xmlns:dc="http://purl.org/dc/elements/1.1/"
   xmlns:cc="http://creativecommons.org/ns#"
   xmlns:rdf="http://www.w3.org/1999/02/22-rdf-syntax-ns#"
   xmlns:svg="http://www.w3.org/2000/svg"
   xmlns="http://www.w3.org/2000/svg"
   xmlns:xlink="http://www.w3.org/1999/xlink"
   xmlns:sodipodi="http://sodipodi.sourceforge.net/DTD/sodipodi-0.dtd"
   xmlns:inkscape="http://www.inkscape.org/namespaces/inkscape"
   version="1.1"
   preserveAspectRatio="xMidYMid meet"
   viewBox="0 0 640.06 141.89"
   width="640.06"
   height="141.89"
   id="svg5661"
   sodipodi:docname="southamptonCitySkyline.svg"
   inkscape:version="0.92.2 (5c3e80d, 2017-08-06)">
  <metadata
     id="metadata5665">
    <rdf:RDF>
      <cc:Work
         rdf:about="">
        <dc:format>image/svg+xml</dc:format>
        <dc:type
           rdf:resource="http://purl.org/dc/dcmitype/StillImage" />
        <dc:title></dc:title>
      </cc:Work>
    </rdf:RDF>
  </metadata>
  <sodipodi:namedview
     pagecolor="#ffffff"
     bordercolor="#666666"
     borderopacity="1"
     objecttolerance="10"
     gridtolerance="10"
     guidetolerance="10"
     inkscape:pageopacity="0"
     inkscape:pageshadow="2"
     inkscape:window-width="1369"
     inkscape:window-height="772"
     id="namedview5663"
     showgrid="false"
     inkscape:zoom="1.810084"
     inkscape:cx="320"
     inkscape:cy="92.243157"
     inkscape:window-x="0"
     inkscape:window-y="23"
     inkscape:window-maximized="0"
     inkscape:current-layer="g5659" />
  <defs
     id="defs5365">
    <path
       d="m 63.63,365.87 51.71,9.6 51.1,10.84 25.39,6.34 24.15,7.59 12.7,5.11 21.05,7.28 26.63,9.59 21.99,8.06 4.95,4.64 6.19,7.65 -4.02,-0.84 -4.96,-4.02 -8.36,-2.79 -11.14,-3.41 -6.2,-1.23 -3.4,1.23 v 8.21 l 2.47,3.87 -4.33,2.79 h -13.94 v -3.81 l 6.82,-2.85 v -9.44 l -4.34,-4.34 -8.36,-3.72 -11.46,-3.46 -8.67,-1.49 h -6.19 l -4.33,0.56 v 24.74 l 13,1.79 v 5.11 l -9.29,1.24 -26.94,-2.48 v -5.66 l 12.08,-2.85 v -21.89 l -2.48,-2.57 -9.6,-5.27 -11.45,-4.64 -9.91,-3.1 -11.15,-3.09 -9.6,-1.86 -11.77,-1.55 -15.48,-1.55 h -13 -13.32 l -16.1,1.55 v 45.21 l 4.64,3.4 h 12.7 v 10.84 l -14.55,1.24 -37.16,-3.72 v -8.36 h 5.26 v -3.4 l 8.05,-1.24 0.62,-43.97 -8.67,-3.1 L 19.35,383.98 0,379.34 v -26.32 z"
       id="a15hMvBy9W"
       inkscape:connector-curvature="0" />
    <path
       d="m 27.4,341.41 c -1.24,1.1 -2.02,1.79 -2.33,2.07 -0.26,0.23 -0.33,0.63 -0.16,0.94 0.17,0.3 0.59,1.05 1.26,2.25 0,6.97 0,11.61 0,13.93"
       id="b38gFT2g"
       inkscape:connector-curvature="0" />
    <path
       d="m 117.29,356.36 c -1.24,1.11 -2.01,1.8 -2.33,2.07 -0.26,0.24 -0.33,0.63 -0.16,0.94 0.17,0.3 0.59,1.05 1.26,2.26 0,6.96 0,11.61 0,13.93"
       id="k8KtkM5jN"
       inkscape:connector-curvature="0" />
    <path
       d="m 135.66,366.67 c -1.25,1.11 -2.02,1.8 -2.33,2.08 -0.27,0.23 -0.34,0.62 -0.16,0.93 0.16,0.3 0.58,1.06 1.25,2.26 0,6.96 0,11.61 0,13.93"
       id="a5HjhkhFh"
       inkscape:connector-curvature="0" />
    <path
       d="m 127.39,366.46 c -1.24,1.1 -2.02,1.79 -2.33,2.07 -0.27,0.24 -0.33,0.63 -0.16,0.94 0.17,0.3 0.58,1.05 1.25,2.25 0,6.97 0,11.61 0,13.93"
       id="d8SWrBcdPI"
       inkscape:connector-curvature="0" />
    <path
       d="m 189.72,375.56 c -1.24,1.11 -2.02,1.8 -2.33,2.07 -0.27,0.24 -0.33,0.63 -0.16,0.94 0.17,0.3 0.59,1.05 1.25,2.25 0,6.97 0,11.62 0,13.94"
       id="dZqQdq3cE"
       inkscape:connector-curvature="0" />
    <path
       d="m 195.7,385.87 c -1.25,1.11 -2.02,1.8 -2.33,2.07 -0.27,0.24 -0.34,0.63 -0.16,0.94 0.16,0.3 0.58,1.05 1.25,2.26 0,6.96 0,11.61 0,13.93"
       id="bMTehgqSl"
       inkscape:connector-curvature="0" />
    <path
       d="m 232.36,396.59 c -0.64,0.72 -1.03,1.16 -1.19,1.34 -0.13,0.14 -0.16,0.34 -0.08,0.51 0.08,0.19 0.3,0.69 0.65,1.48 0,4.4 0,7.34 0,8.8"
       id="a4VLzIFUu"
       inkscape:connector-curvature="0" />
    <path
       d="m 229.33,400.13 c -0.64,0.71 -1.03,1.15 -1.19,1.33 -0.13,0.14 -0.16,0.34 -0.08,0.51 0.08,0.2 0.3,0.69 0.65,1.48 0,4.4 0,7.34 0,8.81"
       id="bojWWHV4P"
       inkscape:connector-curvature="0" />
    <path
       d="m 255.24,409.21 c -0.64,0.71 -1.03,1.16 -1.19,1.34 -0.13,0.14 -0.16,0.34 -0.08,0.51 0.08,0.19 0.3,0.69 0.65,1.48 0,4.4 0,7.34 0,8.8"
       id="b7LjTb64f"
       inkscape:connector-curvature="0" />
    <path
       d="m 258.1,404.73 c -0.64,0.71 -1.03,1.16 -1.19,1.34 -0.13,0.14 -0.16,0.33 -0.08,0.5 0.08,0.2 0.3,0.7 0.65,1.49 0,4.4 0,7.33 0,8.8"
       id="b7Q6RTifE"
       inkscape:connector-curvature="0" />
    <path
       d="m 275.5,418.13 c -0.63,0.71 -1.03,1.16 -1.19,1.33 -0.12,0.14 -0.15,0.34 -0.08,0.51 0.09,0.2 0.31,0.69 0.66,1.48 0,4.41 0,7.34 0,8.81"
       id="aROBlZeQ"
       inkscape:connector-curvature="0" />
    <path
       d="m 278.36,413.65 c -0.63,0.71 -1.03,1.16 -1.19,1.33 -0.12,0.14 -0.15,0.34 -0.08,0.51 0.09,0.2 0.31,0.69 0.66,1.48 0,4.41 0,7.34 0,8.81"
       id="a5XWO3Rlw"
       inkscape:connector-curvature="0" />
    <path
       d="m 291.15,423.02 c -0.25,0.27 -0.4,0.44 -0.46,0.51 -0.05,0.06 -0.06,0.13 -0.03,0.2 0.03,0.07 0.11,0.26 0.25,0.57 0,1.69 0,2.82 0,3.38"
       id="bfwdflnIh"
       inkscape:connector-curvature="0" />
    <path
       d="m 302.02,429.68 c -0.24,0.28 -0.39,0.45 -0.45,0.52 -0.05,0.05 -0.06,0.13 -0.03,0.19 0.03,0.08 0.11,0.27 0.25,0.57 0,1.69 0,2.82 0,3.38"
       id="lZjVnohM"
       inkscape:connector-curvature="0" />
    <path
       d="m 446.14,317.65 -38.01,3.86"
       id="ah86To63w"
       inkscape:connector-curvature="0" />
    <path
       d="m 454,319.3 -47.89,4.14"
       id="a7RRdMkdz"
       inkscape:connector-curvature="0" />
    <path
       d="m 461.46,321.23 -57.74,4.43"
       id="b6PqKNIRT"
       inkscape:connector-curvature="0" />
    <path
       d="m 294.68,456.44 345.38,-5.26 v -73.85 h -7.12 l -1.86,-4.65 -17.03,1.55 -1.55,-2.48 -5.57,0.93 -2.17,-2.48 h -4.64 l -7.12,17.34 -228.53,0.93 -24.15,-3.4 -10.53,2.47 v 2.48 l -7.12,2.48 -0.93,7.74 h -25.87 z"
       id="d25CYS6PUh"
       inkscape:connector-curvature="0" />
    <path
       d="m 362.52,363.55 4.34,-3.41 34.37,-32.2 4.34,-4.34 7.43,-6.19 8.67,-1.86 h 7.43 l 16.1,1.86 26.32,6.19 54.19,16.1 68.12,17.03 7.74,6.82 -7.74,25.39 h -13 l -41.5,-3.72 -42.42,-4.64 -32.82,-2.79 -38.09,1.86 -34.99,5.57 -26.94,6.19 -1.55,-7.98 -3.09,-14.31 z"
       id="b4xlDNbvOT"
       inkscape:connector-curvature="0" />
    <path
       d="m 597.7,385.96 c -12.23,-1.44 -36.68,-4.33 -73.36,-8.67 l -73.69,-7.09 -17.47,-1.27 -15.24,1.27 -17.15,4.31 -37.8,12.38"
       id="b3wEvJ1fgX"
       inkscape:connector-curvature="0" />
    <path
       d="m 597.7,387.48 c -12.23,-1.45 -36.68,-4.34 -73.36,-8.67 l -73.69,-7.09 -17.47,-1.27 -15.24,1.27 -17.15,4.3 -37.8,12.39"
       id="b25MtjvlCF"
       inkscape:connector-curvature="0" />
    <path
       d="m 597.36,388.99 c -12.23,-1.44 -36.68,-4.33 -73.37,-8.67 l -73.68,-7.09 -17.47,-1.27 -15.24,1.27 -17.15,4.31 -37.8,12.38"
       id="a35C6PGE2p"
       inkscape:connector-curvature="0" />
    <path
       d="m 597.36,382.96 c -12.23,-1.45 -36.68,-4.34 -73.37,-8.67 l -73.68,-7.09 -17.47,-1.27 -15.24,1.27 -17.15,4.3 -37.8,12.39"
       id="afaC3KkxC"
       inkscape:connector-curvature="0" />
    <path
       d="m 597.01,384.47 c -12.22,-1.44 -36.68,-4.33 -73.36,-8.67 l -73.68,-7.09 -17.47,-1.27 -15.25,1.27 -17.15,4.31 -37.79,12.38"
       id="bccxDO191"
       inkscape:connector-curvature="0" />
    <path
       d="m 598.72,378.49 c -12.35,-1.45 -37.07,-4.34 -74.13,-8.67 l -74.46,-7.09 -17.65,-1.27 -15.41,1.27 -17.33,4.3 -38.19,12.39"
       id="c1iKZfzjCv"
       inkscape:connector-curvature="0" />
    <path
       d="m 598.72,380 c -12.35,-1.44 -37.07,-4.33 -74.13,-8.67 l -74.46,-7.09 -17.65,-1.27 -15.41,1.27 -17.33,4.31 -38.19,12.38"
       id="b3mQR7XKSw"
       inkscape:connector-curvature="0" />
    <path
       d="m 598.38,381.52 c -12.36,-1.45 -37.07,-4.34 -74.14,-8.67 l -74.46,-7.09 -17.65,-1.27 -15.41,1.27 -17.33,4.3 -38.19,12.39"
       id="da5zeBC25"
       inkscape:connector-curvature="0" />
    <path
       d="m 598.38,375.48 c -12.36,-1.44 -37.07,-4.33 -74.14,-8.67 l -74.46,-7.09 -17.65,-1.27 -15.41,1.27 -17.33,4.3 -38.19,12.39"
       id="b7GFbzsutv"
       inkscape:connector-curvature="0" />
    <path
       d="m 598.03,377 c -12.36,-1.45 -37.07,-4.34 -74.14,-8.67 l -74.46,-7.1 -17.65,-1.27 -15.4,1.27 -17.34,4.31 -38.19,12.38"
       id="c3KiKXbMwi"
       inkscape:connector-curvature="0" />
    <path
       d="m 600.18,370.95 c -12.49,-1.45 -37.46,-4.34 -74.91,-8.67 l -75.24,-7.09 -17.83,-1.27 -15.57,1.27 -17.51,4.3 -38.59,12.39"
       id="a2nOvvUBEc"
       inkscape:connector-curvature="0" />
    <path
       d="m 600.18,372.46 c -12.49,-1.44 -37.46,-4.33 -74.91,-8.67 l -75.24,-7.09 -17.83,-1.27 -15.57,1.27 -17.51,4.31 -38.59,12.38"
       id="e1JIwz4oLt"
       inkscape:connector-curvature="0" />
    <path
       d="m 599.83,373.98 c -12.49,-1.45 -37.46,-4.34 -74.91,-8.67 l -75.24,-7.09 -17.83,-1.27 -15.57,1.27 -17.51,4.3 -38.59,12.39"
       id="aDkhGttna"
       inkscape:connector-curvature="0" />
    <path
       d="m 599.83,367.94 c -12.49,-1.44 -37.46,-4.33 -74.91,-8.67 l -75.24,-7.09 -17.83,-1.27 -15.57,1.27 -17.51,4.31 -38.59,12.38"
       id="dl91Spsw0"
       inkscape:connector-curvature="0" />
    <path
       d="m 599.48,369.46 c -12.49,-1.45 -37.46,-4.34 -74.91,-8.67 l -75.24,-7.09 -17.83,-1.27 -15.57,1.27 -17.51,4.3 -38.59,12.39"
       id="aV6s0exPr"
       inkscape:connector-curvature="0" />
    <path
       d="m 600.18,388.55 c -12.23,-1.09 -36.68,-3.29 -73.37,-6.57 l -73.68,-5.38 -17.47,-0.97 -15.24,0.97 -17.15,3.26 -37.8,9.4"
       id="a5T6EvPR4"
       inkscape:connector-curvature="0" />
    <path
       d="m 319.2,456.44 h 46.44 l -2.1,-68.86 -24.14,-4.15 -11.02,3.14 v 4.04 l -8.13,2.02 v 8.33"
       id="ah9h1Q3ca"
       inkscape:connector-curvature="0" />
  </defs>
  <g
     id="g5659"
     transform="translate(5e-7,-314.55)">
    <g
       id="g5657">
      <g
         id="g5479">
        <g
           id="g5373">
          <use
             xlink:href="#a15hMvBy9W"
             id="use5367"
             style="opacity:1;fill:#1e1e1e;fill-opacity:1"
             x="0"
             y="0"
             width="100%"
             height="100%" />
          <g
             id="g5371">
            <use
               xlink:href="#a15hMvBy9W"
               id="use5369"
               style="opacity:1;fill-opacity:0;stroke:#000000;stroke-width:0;stroke-opacity:1"
               x="0"
               y="0"
               width="100%"
               height="100%" />
          </g>
        </g>
        <g
           id="g5381">
          <use
             xlink:href="#b38gFT2g"
             id="use5375"
             style="opacity:1;fill:#1e1e1e;fill-opacity:1"
             x="0"
             y="0"
             width="100%"
             height="100%" />
          <g
             id="g5379">
            <use
               xlink:href="#b38gFT2g"
               id="use5377"
               style="opacity:1;fill-opacity:0;stroke:#000000;stroke-width:1.5;stroke-opacity:1"
               x="0"
               y="0"
               width="100%"
               height="100%" />
          </g>
        </g>
        <g
           id="g5389">
          <use
             xlink:href="#k8KtkM5jN"
             id="use5383"
             style="opacity:1;fill:#1e1e1e;fill-opacity:1"
             x="0"
             y="0"
             width="100%"
             height="100%" />
          <g
             id="g5387">
            <use
               xlink:href="#k8KtkM5jN"
               id="use5385"
               style="opacity:1;fill-opacity:0;stroke:#000000;stroke-width:1.5;stroke-opacity:1"
               x="0"
               y="0"
               width="100%"
               height="100%" />
          </g>
        </g>
        <g
           id="g5397">
          <use
             xlink:href="#a5HjhkhFh"
             id="use5391"
             style="opacity:1;fill:#1e1e1e;fill-opacity:1"
             x="0"
             y="0"
             width="100%"
             height="100%" />
          <g
             id="g5395">
            <use
               xlink:href="#a5HjhkhFh"
               id="use5393"
               style="opacity:1;fill-opacity:0;stroke:#000000;stroke-width:1.5;stroke-opacity:1"
               x="0"
               y="0"
               width="100%"
               height="100%" />
          </g>
        </g>
        <g
           id="g5405">
          <use
             xlink:href="#d8SWrBcdPI"
             id="use5399"
             style="opacity:1;fill:#1e1e1e;fill-opacity:1"
             x="0"
             y="0"
             width="100%"
             height="100%" />
          <g
             id="g5403">
            <use
               xlink:href="#d8SWrBcdPI"
               id="use5401"
               style="opacity:1;fill-opacity:0;stroke:#000000;stroke-width:1.5;stroke-opacity:1"
               x="0"
               y="0"
               width="100%"
               height="100%" />
          </g>
        </g>
        <g
           id="g5413">
          <use
             xlink:href="#dZqQdq3cE"
             id="use5407"
             style="opacity:1;fill:#1e1e1e;fill-opacity:1"
             x="0"
             y="0"
             width="100%"
             height="100%" />
          <g
             id="g5411">
            <use
               xlink:href="#dZqQdq3cE"
               id="use5409"
               style="opacity:1;fill-opacity:0;stroke:#000000;stroke-width:1.5;stroke-opacity:1"
               x="0"
               y="0"
               width="100%"
               height="100%" />
          </g>
        </g>
        <g
           id="g5421">
          <use
             xlink:href="#bMTehgqSl"
             id="use5415"
             style="opacity:1;fill:#1e1e1e;fill-opacity:1"
             x="0"
             y="0"
             width="100%"
             height="100%" />
          <g
             id="g5419">
            <use
               xlink:href="#bMTehgqSl"
               id="use5417"
               style="opacity:1;fill-opacity:0;stroke:#000000;stroke-width:1.5;stroke-opacity:1"
               x="0"
               y="0"
               width="100%"
               height="100%" />
          </g>
        </g>
        <g
           id="g5429">
          <use
             xlink:href="#a4VLzIFUu"
             id="use5423"
             style="opacity:1;fill:#1e1e1e;fill-opacity:1"
             x="0"
             y="0"
             width="100%"
             height="100%" />
          <g
             id="g5427">
            <use
               xlink:href="#a4VLzIFUu"
               id="use5425"
               style="opacity:1;fill-opacity:0;stroke:#000000;stroke-width:1.5;stroke-opacity:1"
               x="0"
               y="0"
               width="100%"
               height="100%" />
          </g>
        </g>
        <g
           id="g5437">
          <use
             xlink:href="#bojWWHV4P"
             id="use5431"
             style="opacity:1;fill:#1e1e1e;fill-opacity:1"
             x="0"
             y="0"
             width="100%"
             height="100%" />
          <g
             id="g5435">
            <use
               xlink:href="#bojWWHV4P"
               id="use5433"
               style="opacity:1;fill-opacity:0;stroke:#000000;stroke-width:1.5;stroke-opacity:1"
               x="0"
               y="0"
               width="100%"
               height="100%" />
          </g>
        </g>
        <g
           id="g5445">
          <use
             xlink:href="#b7LjTb64f"
             id="use5439"
             style="opacity:1;fill:#1e1e1e;fill-opacity:1"
             x="0"
             y="0"
             width="100%"
             height="100%" />
          <g
             id="g5443">
            <use
               xlink:href="#b7LjTb64f"
               id="use5441"
               style="opacity:1;fill-opacity:0;stroke:#000000;stroke-width:1.5;stroke-opacity:1"
               x="0"
               y="0"
               width="100%"
               height="100%" />
          </g>
        </g>
        <g
           id="g5453">
          <use
             xlink:href="#b7Q6RTifE"
             id="use5447"
             style="opacity:1;fill:#1e1e1e;fill-opacity:1"
             x="0"
             y="0"
             width="100%"
             height="100%" />
          <g
             id="g5451">
            <use
               xlink:href="#b7Q6RTifE"
               id="use5449"
               style="opacity:1;fill-opacity:0;stroke:#000000;stroke-width:1.5;stroke-opacity:1"
               x="0"
               y="0"
               width="100%"
               height="100%" />
          </g>
        </g>
        <g
           id="g5461">
          <use
             xlink:href="#aROBlZeQ"
             id="use5455"
             style="opacity:1;fill:#1e1e1e;fill-opacity:1"
             x="0"
             y="0"
             width="100%"
             height="100%" />
          <g
             id="g5459">
            <use
               xlink:href="#aROBlZeQ"
               id="use5457"
               style="opacity:1;fill-opacity:0;stroke:#000000;stroke-width:1.5;stroke-opacity:1"
               x="0"
               y="0"
               width="100%"
               height="100%" />
          </g>
        </g>
        <g
           id="g5469">
          <use
             xlink:href="#a5XWO3Rlw"
             id="use5463"
             style="opacity:1;fill:#1e1e1e;fill-opacity:1"
             x="0"
             y="0"
             width="100%"
             height="100%" />
          <g
             id="g5467">
            <use
               xlink:href="#a5XWO3Rlw"
               id="use5465"
               style="opacity:1;fill-opacity:0;stroke:#000000;stroke-width:1.5;stroke-opacity:1"
               x="0"
               y="0"
               width="100%"
               height="100%" />
          </g>
        </g>
        <g
           id="g5477">
          <use
             xlink:href="#bfwdflnIh"
             id="use5471"
             style="opacity:1;fill:#1e1e1e;fill-opacity:1"
             x="0"
             y="0"
             width="100%"
             height="100%" />
          <g
             id="g5475">
            <use
               xlink:href="#bfwdflnIh"
               id="use5473"
               style="opacity:1;fill-opacity:0;stroke:#000000;stroke-width:1.5;stroke-opacity:1"
               x="0"
               y="0"
               width="100%"
               height="100%" />
          </g>
        </g>
      </g>
      <g
         id="g5485">
        <g
           id="g5483">
          <use
             xlink:href="#lZjVnohM"
             id="use5481"
             style="opacity:1;fill-opacity:0;stroke:#000000;stroke-width:2;stroke-opacity:1"
             x="0"
             y="0"
             width="100%"
             height="100%" />
        </g>
      </g>
      <g
         id="g5491">
        <g
           id="g5489">
          <use
             xlink:href="#ah86To63w"
             id="use5487"
             style="opacity:1;fill-opacity:0;stroke:#000000;stroke-width:1;stroke-opacity:1"
             x="0"
             y="0"
             width="100%"
             height="100%" />
        </g>
      </g>
      <g
         id="g5497">
        <g
           id="g5495">
          <use
             xlink:href="#a7RRdMkdz"
             id="use5493"
             style="opacity:1;fill-opacity:0;stroke:#000000;stroke-width:1;stroke-opacity:1"
             x="0"
             y="0"
             width="100%"
             height="100%" />
        </g>
      </g>
      <g
         id="g5503">
        <g
           id="g5501">
          <use
             xlink:href="#b6PqKNIRT"
             id="use5499"
             style="opacity:1;fill-opacity:0;stroke:#000000;stroke-width:1;stroke-opacity:1"
             x="0"
             y="0"
             width="100%"
             height="100%" />
        </g>
      </g>
      <g
         id="g5511">
        <use
           xlink:href="#d25CYS6PUh"
           id="use5505"
           style="opacity:1;fill:#1e1e1e;fill-opacity:1"
           x="0"
           y="0"
           width="100%"
           height="100%" />
        <g
           id="g5509">
          <use
             xlink:href="#d25CYS6PUh"
             id="use5507"
             style="opacity:1;fill-opacity:0;stroke:#000000;stroke-width:0;stroke-opacity:1"
             x="0"
             y="0"
             width="100%"
             height="100%" />
        </g>
      </g>
      <g
         id="g5519">
        <use
           xlink:href="#b4xlDNbvOT"
           id="use5513"
           style="opacity:1;fill:#ffffff;fill-opacity:0.62000002"
           x="0"
           y="0"
           width="100%"
           height="100%" />
        <g
           id="g5517">
          <use
             xlink:href="#b4xlDNbvOT"
             id="use5515"
             style="opacity:1;fill-opacity:0;stroke:#000000;stroke-width:2;stroke-opacity:1"
             x="0"
             y="0"
             width="100%"
             height="100%" />
        </g>
      </g>
      <g
         id="g5527">
        <use
           xlink:href="#b3wEvJ1fgX"
           id="use5521"
           style="opacity:1;fill:#ffffff;fill-opacity:0.28999999"
           x="0"
           y="0"
           width="100%"
           height="100%" />
        <g
           id="g5525">
          <use
             xlink:href="#b3wEvJ1fgX"
             id="use5523"
             style="opacity:1;fill-opacity:0;stroke:#000000;stroke-width:1;stroke-opacity:1"
             x="0"
             y="0"
             width="100%"
             height="100%" />
        </g>
      </g>
      <g
         id="g5535">
        <use
           xlink:href="#b25MtjvlCF"
           id="use5529"
           style="opacity:1;fill:#ffffff;fill-opacity:0.28999999"
           x="0"
           y="0"
           width="100%"
           height="100%" />
        <g
           id="g5533">
          <use
             xlink:href="#b25MtjvlCF"
             id="use5531"
             style="opacity:1;fill-opacity:0;stroke:#000000;stroke-width:1;stroke-opacity:1"
             x="0"
             y="0"
             width="100%"
             height="100%" />
        </g>
      </g>
      <g
         id="g5543">
        <use
           xlink:href="#a35C6PGE2p"
           id="use5537"
           style="opacity:1;fill:#ffffff;fill-opacity:0.28999999"
           x="0"
           y="0"
           width="100%"
           height="100%" />
        <g
           id="g5541">
          <use
             xlink:href="#a35C6PGE2p"
             id="use5539"
             style="opacity:1;fill-opacity:0;stroke:#000000;stroke-width:1;stroke-opacity:1"
             x="0"
             y="0"
             width="100%"
             height="100%" />
        </g>
      </g>
      <g
         id="g5551">
        <use
           xlink:href="#afaC3KkxC"
           id="use5545"
           style="opacity:1;fill:#ffffff;fill-opacity:0.28999999"
           x="0"
           y="0"
           width="100%"
           height="100%" />
        <g
           id="g5549">
          <use
             xlink:href="#afaC3KkxC"
             id="use5547"
             style="opacity:1;fill-opacity:0;stroke:#000000;stroke-width:1;stroke-opacity:1"
             x="0"
             y="0"
             width="100%"
             height="100%" />
        </g>
      </g>
      <g
         id="g5559">
        <use
           xlink:href="#bccxDO191"
           id="use5553"
           style="opacity:1;fill:#ffffff;fill-opacity:0.28999999"
           x="0"
           y="0"
           width="100%"
           height="100%" />
        <g
           id="g5557">
          <use
             xlink:href="#bccxDO191"
             id="use5555"
             style="opacity:1;fill-opacity:0;stroke:#000000;stroke-width:1;stroke-opacity:1"
             x="0"
             y="0"
             width="100%"
             height="100%" />
        </g>
      </g>
      <g
         id="g5567">
        <use
           xlink:href="#c1iKZfzjCv"
           id="use5561"
           style="opacity:1;fill:#ffffff;fill-opacity:0.28999999"
           x="0"
           y="0"
           width="100%"
           height="100%" />
        <g
           id="g5565">
          <use
             xlink:href="#c1iKZfzjCv"
             id="use5563"
             style="opacity:1;fill-opacity:0;stroke:#000000;stroke-width:1;stroke-opacity:1"
             x="0"
             y="0"
             width="100%"
             height="100%" />
        </g>
      </g>
      <g
         id="g5575">
        <use
           xlink:href="#b3mQR7XKSw"
           id="use5569"
           style="opacity:1;fill:#ffffff;fill-opacity:0.28999999"
           x="0"
           y="0"
           width="100%"
           height="100%" />
        <g
           id="g5573">
          <use
             xlink:href="#b3mQR7XKSw"
             id="use5571"
             style="opacity:1;fill-opacity:0;stroke:#000000;stroke-width:1;stroke-opacity:1"
             x="0"
             y="0"
             width="100%"
             height="100%" />
        </g>
      </g>
      <g
         id="g5583">
        <use
           xlink:href="#da5zeBC25"
           id="use5577"
           style="opacity:1;fill:#ffffff;fill-opacity:0.28999999"
           x="0"
           y="0"
           width="100%"
           height="100%" />
        <g
           id="g5581">
          <use
             xlink:href="#da5zeBC25"
             id="use5579"
             style="opacity:1;fill-opacity:0;stroke:#000000;stroke-width:1;stroke-opacity:1"
             x="0"
             y="0"
             width="100%"
             height="100%" />
        </g>
      </g>
      <g
         id="g5591">
        <use
           xlink:href="#b7GFbzsutv"
           id="use5585"
           style="opacity:1;fill:#ffffff;fill-opacity:0.28999999"
           x="0"
           y="0"
           width="100%"
           height="100%" />
        <g
           id="g5589">
          <use
             xlink:href="#b7GFbzsutv"
             id="use5587"
             style="opacity:1;fill-opacity:0;stroke:#000000;stroke-width:1;stroke-opacity:1"
             x="0"
             y="0"
             width="100%"
             height="100%" />
        </g>
      </g>
      <g
         id="g5599">
        <use
           xlink:href="#c3KiKXbMwi"
           id="use5593"
           style="opacity:1;fill:#ffffff;fill-opacity:0.28999999"
           x="0"
           y="0"
           width="100%"
           height="100%" />
        <g
           id="g5597">
          <use
             xlink:href="#c3KiKXbMwi"
             id="use5595"
             style="opacity:1;fill-opacity:0;stroke:#000000;stroke-width:1;stroke-opacity:1"
             x="0"
             y="0"
             width="100%"
             height="100%" />
        </g>
      </g>
      <g
         id="g5607">
        <use
           xlink:href="#a2nOvvUBEc"
           id="use5601"
           style="opacity:1;fill:#ffffff;fill-opacity:0.28999999"
           x="0"
           y="0"
           width="100%"
           height="100%" />
        <g
           id="g5605">
          <use
             xlink:href="#a2nOvvUBEc"
             id="use5603"
             style="opacity:1;fill-opacity:0;stroke:#000000;stroke-width:1;stroke-opacity:1"
             x="0"
             y="0"
             width="100%"
             height="100%" />
        </g>
      </g>
      <g
         id="g5615">
        <use
           xlink:href="#e1JIwz4oLt"
           id="use5609"
           style="opacity:1;fill:#ffffff;fill-opacity:0.28999999"
           x="0"
           y="0"
           width="100%"
           height="100%" />
        <g
           id="g5613">
          <use
             xlink:href="#e1JIwz4oLt"
             id="use5611"
             style="opacity:1;fill-opacity:0;stroke:#000000;stroke-width:1;stroke-opacity:1"
             x="0"
             y="0"
             width="100%"
             height="100%" />
        </g>
      </g>
      <g
         id="g5623">
        <use
           xlink:href="#aDkhGttna"
           id="use5617"
           style="opacity:1;fill:#ffffff;fill-opacity:0.28999999"
           x="0"
           y="0"
           width="100%"
           height="100%" />
        <g
           id="g5621">
          <use
             xlink:href="#aDkhGttna"
             id="use5619"
             style="opacity:1;fill-opacity:0;stroke:#000000;stroke-width:1;stroke-opacity:1"
             x="0"
             y="0"
             width="100%"
             height="100%" />
        </g>
      </g>
      <g
         id="g5631">
        <use
           xlink:href="#dl91Spsw0"
           id="use5625"
           style="opacity:1;fill:#ffffff;fill-opacity:0.28999999"
           x="0"
           y="0"
           width="100%"
           height="100%" />
        <g
           id="g5629">
          <use
             xlink:href="#dl91Spsw0"
             id="use5627"
             style="opacity:1;fill-opacity:0;stroke:#000000;stroke-width:1;stroke-opacity:1"
             x="0"
             y="0"
             width="100%"
             height="100%" />
        </g>
      </g>
      <g
         id="g5639">
        <use
           xlink:href="#aV6s0exPr"
           id="use5633"
           style="opacity:1;fill:#ffffff;fill-opacity:0.28999999"
           x="0"
           y="0"
           width="100%"
           height="100%" />
        <g
           id="g5637">
          <use
             xlink:href="#aV6s0exPr"
             id="use5635"
             style="opacity:1;fill-opacity:0;stroke:#000000;stroke-width:1;stroke-opacity:1"
             x="0"
             y="0"
             width="100%"
             height="100%" />
        </g>
      </g>
      <g
         id="g5647">
        <use
           xlink:href="#a5T6EvPR4"
           id="use5641"
           style="opacity:1;fill:#ffffff;fill-opacity:0.28999999"
           x="0"
           y="0"
           width="100%"
           height="100%" />
        <g
           id="g5645">
          <use
             xlink:href="#a5T6EvPR4"
             id="use5643"
             style="opacity:1;fill-opacity:0;stroke:#000000;stroke-width:1;stroke-opacity:1"
             x="0"
             y="0"
             width="100%"
             height="100%" />
        </g>
      </g>
      <g
         id="g5655">
        <use
           xlink:href="#ah9h1Q3ca"
           id="use5649"
           style="opacity:1;fill:#868686;fill-opacity:1"
           x="0"
           y="0"
           width="100%"
           height="100%" />
        <g
           id="g5653">
          <use
             xlink:href="#ah9h1Q3ca"
             id="use5651"
             style="opacity:1;fill-opacity:0;stroke:#000000;stroke-width:0;stroke-opacity:1"
             x="0"
             y="0"
             width="100%"
             height="100%" />
        </g>
      </g>
    </g>
  </g>
</svg>
