<svg height="71.440918" viewBox="0 0 1190.2963 71.440918" width="1190.2963" xmlns="http://www.w3.org/2000/svg"><g transform="matrix(-1.33242139336 0 0 -1.3333333 1249.05822227852 460.35504)"><path d="m291.899 301.69h-7.522v37.573h7.522z" fill="#595a5c"/><path d="m287.9 298.053h-209.258v8.997h209.258z" fill="#595a5c"/><path d="m0 0c0-3.517-2.851-6.367-6.367-6.367-3.517 0-6.368 2.85-6.368 6.367s2.851 6.367 6.368 6.367c3.516 0 6.367-2.85 6.367-6.367" fill="#68696b" transform="translate(102.6825 298.0526)"/><path d="m0 0c0-3.517-2.851-6.367-6.367-6.367-3.517 0-6.368 2.85-6.368 6.367s2.851 6.367 6.368 6.367c3.516 0 6.367-2.85 6.367-6.367" fill="#68696b" transform="translate(130.7033 298.0526)"/><path d="m0 0c0-3.517-2.851-6.367-6.367-6.367-3.517 0-6.368 2.85-6.368 6.367s2.851 6.367 6.368 6.367c3.516 0 6.367-2.85 6.367-6.367" fill="#68696b" transform="translate(235.6148 298.0526)"/><path d="m0 0c0-3.517-2.851-6.367-6.367-6.367-3.517 0-6.368 2.85-6.368 6.367s2.851 6.367 6.368 6.367c3.516 0 6.367-2.85 6.367-6.367" fill="#68696b" transform="translate(263.6355 298.0526)"/><path d="m0 0h201.723v40.378c0 1.093-.885 1.978-1.978 1.978h-198.499c-15.789 0-30.496-8.026-39.037-21.306l-2.458-3.82c-1.972-3.067-2.432-6.944-.963-10.281 1.742-3.958 5.606-6.395 9.774-6.395h.395l-3.548-4.594c-.908-1.175-.07-2.881 1.416-2.881h26.254c1.911 0 3.461 1.549 3.461 3.461 0 1.911 1.549 3.46 3.46 3.46" fill="#f2f3f7" transform="translate(86.1772 302.7589)"/><path d="m0 0h9.616c9.785 0 17.718 7.932 17.718 17.718h-.087c-10.842-2.412-20.554-8.661-27.247-17.718" fill="#77787a" transform="translate(50.0991 326.2902)"/><path d="m0 0h219.854v2.264c0 1.093-.885 1.978-1.978 1.978h-198.499c-6.795 0-13.388-1.49-19.377-4.242" fill="#00a09d" transform="translate(68.0463 340.873)"/><path d="m0 0h201.442v13.288h-188.154c-7.339 0-13.288-5.949-13.288-13.288" fill="#00a09d" transform="translate(86.4588 302.7589)"/><path d="m0 0h181.807v2.888h-188.153c-7.339 0-13.288-5.949-13.288-13.288h6.67c1.32 5.948 6.618 10.4 12.964 10.4" fill="#008f8c" transform="translate(106.0933 313.1591)"/><path d="m0 0h-4.825c-1.492 0-2.702-1.21-2.702-2.702v-16.051c0-1.492 1.21-2.702 2.702-2.702h4.825c1.492 0 2.702 1.21 2.702 2.702v16.051c0 1.492-1.21 2.702-2.702 2.702z" fill="none" stroke="#afb0b3" stroke-miterlimit="10" transform="translate(78.6429 328.5049)"/><path d="m0 0h8.698c2.032 0 3.679 1.647 3.679 3.679v23.767c0 2.032-1.647 3.68-3.679 3.68h-8.698c-2.032 0-3.679-1.648-3.679-3.68v-23.767c0-2.032 1.647-3.679 3.679-3.679z" fill="none" stroke="#afb0b3" stroke-miterlimit="10" transform="translate(271.6472 306.5149)"/><path d="m0 0h-6.591c-1.534 0-2.778 1.244-2.778 2.778v5.304c0 1.534 1.244 2.778 2.778 2.778h6.591c1.534 0 2.778-1.244 2.778-2.778v-5.304c0-1.534-1.244-2.778-2.778-2.778" fill="#77787a" transform="translate(100.4648 320.8602)"/><path d="m0 0h-6.591c-1.534 0-2.778 1.244-2.778 2.778v5.304c0 1.534 1.244 2.778 2.778 2.778h6.591c1.534 0 2.778-1.244 2.778-2.778v-5.304c0-1.534-1.244-2.778-2.778-2.778" fill="#77787a" transform="translate(116.3465 320.8602)"/><path d="m0 0h-6.591c-1.534 0-2.778 1.244-2.778 2.778v5.304c0 1.534 1.244 2.778 2.778 2.778h6.591c1.534 0 2.778-1.244 2.778-2.778v-5.304c0-1.534-1.244-2.778-2.778-2.778" fill="#77787a" transform="translate(132.228 320.8602)"/><path d="m0 0h-6.591c-1.534 0-2.778 1.244-2.778 2.778v5.304c0 1.534 1.244 2.778 2.778 2.778h6.591c1.534 0 2.778-1.244 2.778-2.778v-5.304c0-1.534-1.244-2.778-2.778-2.778" fill="#77787a" transform="translate(148.1096 320.8602)"/><path d="m0 0h-6.591c-1.534 0-2.778 1.244-2.778 2.778v5.304c0 1.534 1.244 2.778 2.778 2.778h6.591c1.534 0 2.778-1.244 2.778-2.778v-5.304c0-1.534-1.244-2.778-2.778-2.778" fill="#77787a" transform="translate(164.2965 320.8602)"/><path d="m0 0h-6.591c-1.534 0-2.778 1.244-2.778 2.778v5.304c0 1.534 1.244 2.778 2.778 2.778h6.591c1.534 0 2.778-1.244 2.778-2.778v-5.304c0-1.534-1.244-2.778-2.778-2.778" fill="#77787a" transform="translate(180.1781 320.8602)"/><path d="m0 0h-6.591c-1.534 0-2.778 1.244-2.778 2.778v5.304c0 1.534 1.244 2.778 2.778 2.778h6.591c1.534 0 2.778-1.244 2.778-2.778v-5.304c0-1.534-1.244-2.778-2.778-2.778" fill="#77787a" transform="translate(196.0598 320.8602)"/><path d="m0 0h-6.591c-1.534 0-2.778 1.244-2.778 2.778v5.304c0 1.534 1.244 2.778 2.778 2.778h6.591c1.534 0 2.778-1.244 2.778-2.778v-5.304c0-1.534-1.244-2.778-2.778-2.778" fill="#77787a" transform="translate(211.9413 320.8602)"/><path d="m0 0h-6.591c-1.534 0-2.778 1.244-2.778 2.778v5.304c0 1.534 1.244 2.778 2.778 2.778h6.591c1.534 0 2.778-1.244 2.778-2.778v-5.304c0-1.534-1.244-2.778-2.778-2.778" fill="#77787a" transform="translate(228.1282 320.8602)"/><path d="m0 0h-6.591c-1.534 0-2.778 1.244-2.778 2.778v5.304c0 1.534 1.244 2.778 2.778 2.778h6.591c1.534 0 2.778-1.244 2.778-2.778v-5.304c0-1.534-1.244-2.778-2.778-2.778" fill="#77787a" transform="translate(244.0098 320.8602)"/><path d="m0 0h-6.591c-1.534 0-2.778 1.244-2.778 2.778v5.304c0 1.534 1.244 2.778 2.778 2.778h6.591c1.534 0 2.778-1.244 2.778-2.778v-5.304c0-1.534-1.244-2.778-2.778-2.778" fill="#77787a" transform="translate(259.8914 320.8602)"/><g fill="#898a8c"><path d="m0 0h-3.054l-2.192 10.836h3.054z" transform="translate(100.2238 320.8838)"/><path d="m0 0h-.873l-2.192 10.836h.873z" transform="translate(96.7134 320.8838)"/><path d="m0 0h-3.054l-2.192 10.836h3.054z" transform="translate(116.7011 320.8838)"/><path d="m0 0h-.873l-2.192 10.836h.873z" transform="translate(113.1908 320.8838)"/><path d="m0 0h-3.054l-2.192 10.836h3.054z" transform="translate(132.5337 320.8838)"/><path d="m0 0h-.873l-2.192 10.836h.873z" transform="translate(129.0233 320.8838)"/><path d="m0 0h-3.054l-2.192 10.836h3.054z" transform="translate(148.3585 320.8838)"/><path d="m0 0h-.873l-2.192 10.836h.873z" transform="translate(144.8481 320.8838)"/><path d="m0 0h-3.054l-2.192 10.836h3.054z" transform="translate(164.289 320.8838)"/><path d="m0 0h-.873l-2.192 10.836h.873z" transform="translate(160.7786 320.8838)"/><path d="m0 0h-3.054l-2.192 10.836h3.054z" transform="translate(180.1706 320.8838)"/><path d="m0 0h-.873l-2.192 10.836h.873z" transform="translate(176.6602 320.8838)"/><path d="m0 0h-3.054l-2.192 10.836h3.054z" transform="translate(196.0522 320.8838)"/><path d="m0 0h-.873l-2.192 10.836h.873z" transform="translate(192.5418 320.8838)"/><path d="m0 0h-3.054l-2.192 10.836h3.054z" transform="translate(211.9338 320.8838)"/><path d="m0 0h-.873l-2.192 10.836h.873z" transform="translate(208.4234 320.8838)"/><path d="m0 0h-3.054l-2.192 10.836h3.054z" transform="translate(228.1207 320.8838)"/><path d="m0 0h-.873l-2.192 10.836h.873z" transform="translate(224.6103 320.8838)"/><path d="m0 0h-3.054l-2.192 10.836h3.054z" transform="translate(244.3114 320.8838)"/><path d="m0 0h-.873l-2.192 10.836h.873z" transform="translate(240.801 320.8838)"/><path d="m0 0h-3.054l-2.192 10.836h3.054z" transform="translate(259.8839 320.8838)"/><path d="m0 0h-.873l-2.192 10.836h.873z" transform="translate(256.3735 320.8838)"/></g><path d="m455.898 301.69h-7.522v37.573h7.522z" fill="#595a5c"/><path d="m299.421 301.69h-7.522v37.573h7.522z" fill="#595a5c"/><path d="m451.9 299.581h-156.24v7.469h156.24z" fill="#595a5c"/><path d="m0 0c0-3.517-2.851-6.367-6.367-6.367-3.517 0-6.368 2.85-6.368 6.367s2.851 6.367 6.368 6.367c3.516 0 6.367-2.85 6.367-6.367" fill="#68696b" transform="translate(333.0624 298.0526)"/><path d="m0 0c0-3.517-2.851-6.367-6.367-6.367-3.517 0-6.368 2.85-6.368 6.367s2.851 6.367 6.368 6.367c3.516 0 6.367-2.85 6.367-6.367" fill="#68696b" transform="translate(361.0831 298.0526)"/><path d="m0 0c0-3.517-2.851-6.367-6.367-6.367-3.517 0-6.368 2.85-6.368 6.367s2.851 6.367 6.368 6.367c3.516 0 6.367-2.85 6.367-6.367" fill="#68696b" transform="translate(399.6144 298.0526)"/><path d="m0 0c0-3.517-2.851-6.367-6.367-6.367-3.517 0-6.368 2.85-6.368 6.367s2.851 6.367 6.368 6.367c3.516 0 6.367-2.85 6.367-6.367" fill="#68696b" transform="translate(427.6351 298.0526)"/><path d="m0 0h-20.165-110.568-21.551c-1.093 0-1.978-.885-1.978-1.978v-40.378h23.529 111.532 21.179v40.378c0 1.093-.886 1.978-1.978 1.978" fill="#f2f3f7" transform="translate(449.9222 345.1152)"/><path d="m0 0h-153.474v2.264c0 1.093.886 1.978 1.978 1.978h132.119c6.795 0 13.388-1.49 19.377-4.242" fill="#00a09d" transform="translate(449.1339 340.873)"/><path d="m0 0h-135.061v13.288h121.773c7.339 0 13.288-5.949 13.288-13.288" fill="#00a09d" transform="translate(430.7214 302.7589)"/><path d="m0 0h-115.427v2.888h121.773c7.339 0 13.288-5.949 13.288-13.288h-6.67c-1.32 5.948-6.618 10.4-12.964 10.4" fill="#008f8c" transform="translate(411.087 313.1591)"/><path d="m0 0h-8.698c-2.032 0-3.679 1.647-3.679 3.679v23.767c0 2.032 1.647 3.68 3.679 3.68h8.698c2.032 0 3.679-1.648 3.679-3.68v-23.767c0-2.032-1.647-3.679-3.679-3.679z" fill="none" stroke="#afb0b3" stroke-miterlimit="10" transform="translate(311.9132 306.5149)"/><path d="m0 0h153.474v2.264c0 1.093-.886 1.978-1.978 1.978h-132.119c-6.795 0-13.388-1.49-19.377-4.242" fill="#00a09d" transform="translate(298.4261 340.873)"/><path d="m0 0h135.061v13.288h-121.773c-7.339 0-13.288-5.949-13.288-13.288" fill="#00a09d" transform="translate(316.8387 302.7589)"/><path d="m0 0h115.427v2.888h-121.773c-7.339 0-13.288-5.949-13.288-13.288h6.67c1.32 5.948 6.618 10.4 12.964 10.4" fill="#008f8c" transform="translate(336.4731 313.1591)"/><path d="m0 0h8.698c2.032 0 3.679 1.647 3.679 3.679v23.767c0 2.032-1.647 3.68-3.679 3.68h-8.698c-2.032 0-3.679-1.648-3.679-3.68v-23.767c0-2.032 1.647-3.679 3.679-3.679z" fill="none" stroke="#afb0b3" stroke-miterlimit="10" transform="translate(435.6469 306.5149)"/><path d="m0 0h-6.591c-1.534 0-2.778 1.244-2.778 2.778v5.304c0 1.534 1.244 2.778 2.778 2.778h6.591c1.534 0 2.778-1.244 2.778-2.778v-5.304c0-1.534-1.244-2.778-2.778-2.778" fill="#77787a" transform="translate(330.8447 320.8602)"/><path d="m0 0h-6.591c-1.534 0-2.778 1.244-2.778 2.778v5.304c0 1.534 1.244 2.778 2.778 2.778h6.591c1.534 0 2.778-1.244 2.778-2.778v-5.304c0-1.534-1.244-2.778-2.778-2.778" fill="#77787a" transform="translate(346.7263 320.8602)"/><path d="m0 0h-6.591c-1.534 0-2.778 1.244-2.778 2.778v5.304c0 1.534 1.244 2.778 2.778 2.778h6.591c1.534 0 2.778-1.244 2.778-2.778v-5.304c0-1.534-1.244-2.778-2.778-2.778" fill="#77787a" transform="translate(362.6079 320.8602)"/><path d="m0 0h-6.591c-1.534 0-2.778 1.244-2.778 2.778v5.304c0 1.534 1.244 2.778 2.778 2.778h6.591c1.534 0 2.778-1.244 2.778-2.778v-5.304c0-1.534-1.244-2.778-2.778-2.778" fill="#77787a" transform="translate(378.4895 320.8602)"/><path d="m0 0h-6.591c-1.534 0-2.778 1.244-2.778 2.778v5.304c0 1.534 1.244 2.778 2.778 2.778h6.591c1.534 0 2.778-1.244 2.778-2.778v-5.304c0-1.534-1.244-2.778-2.778-2.778" fill="#77787a" transform="translate(394.6764 320.8602)"/><path d="m0 0h-6.591c-1.534 0-2.778 1.244-2.778 2.778v5.304c0 1.534 1.244 2.778 2.778 2.778h6.591c1.534 0 2.778-1.244 2.778-2.778v-5.304c0-1.534-1.244-2.778-2.778-2.778" fill="#77787a" transform="translate(410.558 320.8602)"/><path d="m0 0h-6.591c-1.534 0-2.778 1.244-2.778 2.778v5.304c0 1.534 1.244 2.778 2.778 2.778h6.591c1.534 0 2.778-1.244 2.778-2.778v-5.304c0-1.534-1.244-2.778-2.778-2.778" fill="#77787a" transform="translate(426.4396 320.8602)"/><path d="m0 0h-3.054l-2.192 10.836h3.054z" fill="#898a8c" transform="translate(330.6036 320.8838)"/><path d="m0 0h-.873l-2.192 10.836h.873z" fill="#898a8c" transform="translate(327.0933 320.8838)"/><path d="m0 0h-3.054l-2.192 10.836h3.054z" fill="#898a8c" transform="translate(347.081 320.8838)"/><path d="m0 0h-.873l-2.192 10.836h.873z" fill="#898a8c" transform="translate(343.5706 320.8838)"/><path d="m0 0h-3.054l-2.192 10.836h3.054z" fill="#898a8c" transform="translate(362.9135 320.8838)"/><path d="m0 0h-.873l-2.192 10.836h.873z" fill="#898a8c" transform="translate(359.4031 320.8838)"/><path d="m0 0h-3.054l-2.192 10.836h3.054z" fill="#898a8c" transform="translate(378.7383 320.8838)"/><path d="m0 0h-.873l-2.192 10.836h.873z" fill="#898a8c" transform="translate(375.2279 320.8838)"/><path d="m0 0h-3.054l-2.192 10.836h3.054z" fill="#898a8c" transform="translate(394.6688 320.8838)"/><path d="m0 0h-.873l-2.192 10.836h.873z" fill="#898a8c" transform="translate(391.1584 320.8838)"/><path d="m0 0h-3.054l-2.192 10.836h3.054z" fill="#898a8c" transform="translate(410.5504 320.8838)"/><path d="m0 0h-.873l-2.192 10.836h.873z" fill="#898a8c" transform="translate(407.04 320.8838)"/><path d="m0 0h-3.054l-2.192 10.836h3.054z" fill="#898a8c" transform="translate(426.432 320.8838)"/><path d="m0 0h-.873l-2.192 10.836h.873z" fill="#898a8c" transform="translate(422.9216 320.8838)"/><path d="m616.49216 301.69h-7.522v37.573h7.522z" fill="#595a5c"/><path d="m612.49416 299.581h-156.24v7.469h156.24z" fill="#595a5c"/><path d="m0 0c0-3.517-2.851-6.367-6.367-6.367-3.517 0-6.368 2.85-6.368 6.367s2.851 6.367 6.368 6.367c3.516 0 6.367-2.85 6.367-6.367" fill="#68696b" transform="translate(493.65656 298.0526)"/><path d="m0 0c0-3.517-2.851-6.367-6.367-6.367-3.517 0-6.368 2.85-6.368 6.367s2.851 6.367 6.368 6.367c3.516 0 6.367-2.85 6.367-6.367" fill="#68696b" transform="translate(521.67726 298.0526)"/><path d="m0 0c0-3.517-2.851-6.367-6.367-6.367-3.517 0-6.368 2.85-6.368 6.367s2.851 6.367 6.368 6.367c3.516 0 6.367-2.85 6.367-6.367" fill="#68696b" transform="translate(560.20856 298.0526)"/><path d="m0 0c0-3.517-2.851-6.367-6.367-6.367-3.517 0-6.368 2.85-6.368 6.367s2.851 6.367 6.368 6.367c3.516 0 6.367-2.85 6.367-6.367" fill="#68696b" transform="translate(588.22926 298.0526)"/><path d="m0 0h-20.165-110.568-21.551c-1.093 0-1.978-.885-1.978-1.978v-40.378h23.529 111.532 21.179v40.378c0 1.093-.886 1.978-1.978 1.978" fill="#f2f3f7" transform="translate(610.51636 345.1152)"/><path d="m0 0h-153.474v2.264c0 1.093.886 1.978 1.978 1.978h132.119c6.795 0 13.388-1.49 19.377-4.242" fill="#00a09d" transform="translate(609.72806 340.873)"/><path d="m0 0h-135.061v13.288h121.773c7.339 0 13.288-5.949 13.288-13.288" fill="#00a09d" transform="translate(591.31556 302.7589)"/><path d="m0 0h-115.427v2.888h121.773c7.339 0 13.288-5.949 13.288-13.288h-6.67c-1.32 5.948-6.618 10.4-12.964 10.4" fill="#008f8c" transform="translate(571.68116 313.1591)"/><path d="m0 0h-8.698c-2.032 0-3.679 1.647-3.679 3.679v23.767c0 2.032 1.647 3.68 3.679 3.68h8.698c2.032 0 3.679-1.648 3.679-3.68v-23.767c0-2.032-1.647-3.679-3.679-3.679z" fill="none" stroke="#afb0b3" stroke-miterlimit="10" transform="translate(472.50736 306.5149)"/><path d="m0 0h153.474v2.264c0 1.093-.886 1.978-1.978 1.978h-132.119c-6.795 0-13.388-1.49-19.377-4.242" fill="#00a09d" transform="translate(459.02026 340.873)"/><path d="m0 0h135.061v13.288h-121.773c-7.339 0-13.288-5.949-13.288-13.288" fill="#00a09d" transform="translate(477.43286 302.7589)"/><path d="m0 0h115.427v2.888h-121.773c-7.339 0-13.288-5.949-13.288-13.288h6.67c1.32 5.948 6.618 10.4 12.964 10.4" fill="#008f8c" transform="translate(497.06726 313.1591)"/><path d="m0 0h8.698c2.032 0 3.679 1.647 3.679 3.679v23.767c0 2.032-1.647 3.68-3.679 3.68h-8.698c-2.032 0-3.679-1.648-3.679-3.68v-23.767c0-2.032 1.647-3.679 3.679-3.679z" fill="none" stroke="#afb0b3" stroke-miterlimit="10" transform="translate(596.24106 306.5149)"/><path d="m0 0h-6.591c-1.534 0-2.778 1.244-2.778 2.778v5.304c0 1.534 1.244 2.778 2.778 2.778h6.591c1.534 0 2.778-1.244 2.778-2.778v-5.304c0-1.534-1.244-2.778-2.778-2.778" fill="#77787a" transform="translate(491.43886 320.8602)"/><path d="m0 0h-6.591c-1.534 0-2.778 1.244-2.778 2.778v5.304c0 1.534 1.244 2.778 2.778 2.778h6.591c1.534 0 2.778-1.244 2.778-2.778v-5.304c0-1.534-1.244-2.778-2.778-2.778" fill="#77787a" transform="translate(507.32046 320.8602)"/><path d="m0 0h-6.591c-1.534 0-2.778 1.244-2.778 2.778v5.304c0 1.534 1.244 2.778 2.778 2.778h6.591c1.534 0 2.778-1.244 2.778-2.778v-5.304c0-1.534-1.244-2.778-2.778-2.778" fill="#77787a" transform="translate(523.20206 320.8602)"/><path d="m0 0h-6.591c-1.534 0-2.778 1.244-2.778 2.778v5.304c0 1.534 1.244 2.778 2.778 2.778h6.591c1.534 0 2.778-1.244 2.778-2.778v-5.304c0-1.534-1.244-2.778-2.778-2.778" fill="#77787a" transform="translate(539.08366 320.8602)"/><path d="m0 0h-6.591c-1.534 0-2.778 1.244-2.778 2.778v5.304c0 1.534 1.244 2.778 2.778 2.778h6.591c1.534 0 2.778-1.244 2.778-2.778v-5.304c0-1.534-1.244-2.778-2.778-2.778" fill="#77787a" transform="translate(555.27056 320.8602)"/><path d="m0 0h-6.591c-1.534 0-2.778 1.244-2.778 2.778v5.304c0 1.534 1.244 2.778 2.778 2.778h6.591c1.534 0 2.778-1.244 2.778-2.778v-5.304c0-1.534-1.244-2.778-2.778-2.778" fill="#77787a" transform="translate(571.15216 320.8602)"/><path d="m0 0h-6.591c-1.534 0-2.778 1.244-2.778 2.778v5.304c0 1.534 1.244 2.778 2.778 2.778h6.591c1.534 0 2.778-1.244 2.778-2.778v-5.304c0-1.534-1.244-2.778-2.778-2.778" fill="#77787a" transform="translate(587.03376 320.8602)"/><path d="m0 0h-3.054l-2.192 10.836h3.054z" fill="#898a8c" transform="translate(491.19776 320.8838)"/><path d="m0 0h-.873l-2.192 10.836h.873z" fill="#898a8c" transform="translate(487.68746 320.8838)"/><path d="m0 0h-3.054l-2.192 10.836h3.054z" fill="#898a8c" transform="translate(507.67516 320.8838)"/><path d="m0 0h-.873l-2.192 10.836h.873z" fill="#898a8c" transform="translate(504.16476 320.8838)"/><path d="m0 0h-3.054l-2.192 10.836h3.054z" fill="#898a8c" transform="translate(523.50766 320.8838)"/><path d="m0 0h-.873l-2.192 10.836h.873z" fill="#898a8c" transform="translate(519.99726 320.8838)"/><path d="m0 0h-3.054l-2.192 10.836h3.054z" fill="#898a8c" transform="translate(539.33246 320.8838)"/><path d="m0 0h-.873l-2.192 10.836h.873z" fill="#898a8c" transform="translate(535.82206 320.8838)"/><path d="m0 0h-3.054l-2.192 10.836h3.054z" fill="#898a8c" transform="translate(555.26296 320.8838)"/><path d="m0 0h-.873l-2.192 10.836h.873z" fill="#898a8c" transform="translate(551.75256 320.8838)"/><path d="m0 0h-3.054l-2.192 10.836h3.054z" fill="#898a8c" transform="translate(571.14456 320.8838)"/><path d="m0 0h-.873l-2.192 10.836h.873z" fill="#898a8c" transform="translate(567.63416 320.8838)"/><path d="m0 0h-3.054l-2.192 10.836h3.054z" fill="#898a8c" transform="translate(587.02616 320.8838)"/><path d="m0 0h-.873l-2.192 10.836h.873z" fill="#898a8c" transform="translate(583.51576 320.8838)"/><path d="m776.84067 301.84109h-7.522v37.573h7.522z" fill="#595a5c"/><path d="m772.84267 299.73209h-156.24v7.469h156.24z" fill="#595a5c"/><path d="m0 0c0-3.517-2.851-6.367-6.367-6.367-3.517 0-6.368 2.85-6.368 6.367s2.851 6.367 6.368 6.367c3.516 0 6.367-2.85 6.367-6.367" fill="#68696b" transform="translate(654.00507 298.20369)"/><path d="m0 0c0-3.517-2.851-6.367-6.367-6.367-3.517 0-6.368 2.85-6.368 6.367s2.851 6.367 6.368 6.367c3.516 0 6.367-2.85 6.367-6.367" fill="#68696b" transform="translate(682.02577 298.20369)"/><path d="m0 0c0-3.517-2.851-6.367-6.367-6.367-3.517 0-6.368 2.85-6.368 6.367s2.851 6.367 6.368 6.367c3.516 0 6.367-2.85 6.367-6.367" fill="#68696b" transform="translate(720.55707 298.20369)"/><path d="m0 0c0-3.517-2.851-6.367-6.367-6.367-3.517 0-6.368 2.85-6.368 6.367s2.851 6.367 6.368 6.367c3.516 0 6.367-2.85 6.367-6.367" fill="#68696b" transform="translate(748.57777 298.20369)"/><path d="m0 0h-20.165-110.568-21.551c-1.093 0-1.978-.885-1.978-1.978v-40.378h23.529 111.532 21.179v40.378c0 1.093-.886 1.978-1.978 1.978" fill="#f2f3f7" transform="translate(770.86487 345.26629)"/><path d="m0 0h-153.474v2.264c0 1.093.886 1.978 1.978 1.978h132.119c6.795 0 13.388-1.49 19.377-4.242" fill="#00a09d" transform="translate(770.07657 341.02409)"/><path d="m0 0h-135.061v13.288h121.773c7.339 0 13.288-5.949 13.288-13.288" fill="#00a09d" transform="translate(751.66407 302.90999)"/><path d="m0 0h-115.427v2.888h121.773c7.339 0 13.288-5.949 13.288-13.288h-6.67c-1.32 5.948-6.618 10.4-12.964 10.4" fill="#008f8c" transform="translate(732.02967 313.31019)"/><path d="m0 0h-8.698c-2.032 0-3.679 1.647-3.679 3.679v23.767c0 2.032 1.647 3.68 3.679 3.68h8.698c2.032 0 3.679-1.648 3.679-3.68v-23.767c0-2.032-1.647-3.679-3.679-3.679z" fill="none" stroke="#afb0b3" stroke-miterlimit="10" transform="translate(632.85587 306.66599)"/><path d="m0 0h153.474v2.264c0 1.093-.886 1.978-1.978 1.978h-132.119c-6.795 0-13.388-1.49-19.377-4.242" fill="#00a09d" transform="translate(619.36877 341.02409)"/><path d="m0 0h135.061v13.288h-121.773c-7.339 0-13.288-5.949-13.288-13.288" fill="#00a09d" transform="translate(637.78137 302.90999)"/><path d="m0 0h115.427v2.888h-121.773c-7.339 0-13.288-5.949-13.288-13.288h6.67c1.32 5.948 6.618 10.4 12.964 10.4" fill="#008f8c" transform="translate(657.41577 313.31019)"/><path d="m0 0h8.698c2.032 0 3.679 1.647 3.679 3.679v23.767c0 2.032-1.647 3.68-3.679 3.68h-8.698c-2.032 0-3.679-1.648-3.679-3.68v-23.767c0-2.032 1.647-3.679 3.679-3.679z" fill="none" stroke="#afb0b3" stroke-miterlimit="10" transform="translate(756.58957 306.66599)"/><path d="m0 0h-6.591c-1.534 0-2.778 1.244-2.778 2.778v5.304c0 1.534 1.244 2.778 2.778 2.778h6.591c1.534 0 2.778-1.244 2.778-2.778v-5.304c0-1.534-1.244-2.778-2.778-2.778" fill="#77787a" transform="translate(651.78737 321.01129)"/><path d="m0 0h-6.591c-1.534 0-2.778 1.244-2.778 2.778v5.304c0 1.534 1.244 2.778 2.778 2.778h6.591c1.534 0 2.778-1.244 2.778-2.778v-5.304c0-1.534-1.244-2.778-2.778-2.778" fill="#77787a" transform="translate(667.66897 321.01129)"/><path d="m0 0h-6.591c-1.534 0-2.778 1.244-2.778 2.778v5.304c0 1.534 1.244 2.778 2.778 2.778h6.591c1.534 0 2.778-1.244 2.778-2.778v-5.304c0-1.534-1.244-2.778-2.778-2.778" fill="#77787a" transform="translate(683.55057 321.01129)"/><path d="m0 0h-6.591c-1.534 0-2.778 1.244-2.778 2.778v5.304c0 1.534 1.244 2.778 2.778 2.778h6.591c1.534 0 2.778-1.244 2.778-2.778v-5.304c0-1.534-1.244-2.778-2.778-2.778" fill="#77787a" transform="translate(699.43217 321.01129)"/><path d="m0 0h-6.591c-1.534 0-2.778 1.244-2.778 2.778v5.304c0 1.534 1.244 2.778 2.778 2.778h6.591c1.534 0 2.778-1.244 2.778-2.778v-5.304c0-1.534-1.244-2.778-2.778-2.778" fill="#77787a" transform="translate(715.61907 321.01129)"/><path d="m0 0h-6.591c-1.534 0-2.778 1.244-2.778 2.778v5.304c0 1.534 1.244 2.778 2.778 2.778h6.591c1.534 0 2.778-1.244 2.778-2.778v-5.304c0-1.534-1.244-2.778-2.778-2.778" fill="#77787a" transform="translate(731.50067 321.01129)"/><path d="m0 0h-6.591c-1.534 0-2.778 1.244-2.778 2.778v5.304c0 1.534 1.244 2.778 2.778 2.778h6.591c1.534 0 2.778-1.244 2.778-2.778v-5.304c0-1.534-1.244-2.778-2.778-2.778" fill="#77787a" transform="translate(747.38227 321.01129)"/><path d="m0 0h-3.054l-2.192 10.836h3.054z" fill="#898a8c" transform="translate(651.54627 321.03489)"/><path d="m0 0h-.873l-2.192 10.836h.873z" fill="#898a8c" transform="translate(648.03597 321.03489)"/><path d="m0 0h-3.054l-2.192 10.836h3.054z" fill="#898a8c" transform="translate(668.02367 321.03489)"/><path d="m0 0h-.873l-2.192 10.836h.873z" fill="#898a8c" transform="translate(664.51327 321.03489)"/><path d="m0 0h-3.054l-2.192 10.836h3.054z" fill="#898a8c" transform="translate(683.85617 321.03489)"/><path d="m0 0h-.873l-2.192 10.836h.873z" fill="#898a8c" transform="translate(680.34577 321.03489)"/><path d="m0 0h-3.054l-2.192 10.836h3.054z" fill="#898a8c" transform="translate(699.68097 321.03489)"/><path d="m0 0h-.873l-2.192 10.836h.873z" fill="#898a8c" transform="translate(696.17057 321.03489)"/><path d="m0 0h-3.054l-2.192 10.836h3.054z" fill="#898a8c" transform="translate(715.61147 321.03489)"/><path d="m0 0h-.873l-2.192 10.836h.873z" fill="#898a8c" transform="translate(712.10107 321.03489)"/><path d="m0 0h-3.054l-2.192 10.836h3.054z" fill="#898a8c" transform="translate(731.49307 321.03489)"/><path d="m0 0h-.873l-2.192 10.836h.873z" fill="#898a8c" transform="translate(727.98267 321.03489)"/><path d="m0 0h-3.054l-2.192 10.836h3.054z" fill="#898a8c" transform="translate(747.37467 321.03489)"/><path d="m0 0h-.873l-2.192 10.836h.873z" fill="#898a8c" transform="translate(743.86427 321.03489)"/><path d="m937.43483 301.84109h-7.522v37.573h7.522z" fill="#595a5c"/><path d="m933.43683 299.73209h-156.24v7.469h156.24z" fill="#595a5c"/><path d="m0 0c0-3.517-2.851-6.367-6.367-6.367-3.517 0-6.368 2.85-6.368 6.367s2.851 6.367 6.368 6.367c3.516 0 6.367-2.85 6.367-6.367" fill="#68696b" transform="translate(814.59923 298.20369)"/><path d="m0 0c0-3.517-2.851-6.367-6.367-6.367-3.517 0-6.368 2.85-6.368 6.367s2.851 6.367 6.368 6.367c3.516 0 6.367-2.85 6.367-6.367" fill="#68696b" transform="translate(842.61993 298.20369)"/><path d="m0 0c0-3.517-2.851-6.367-6.367-6.367-3.517 0-6.368 2.85-6.368 6.367s2.851 6.367 6.368 6.367c3.516 0 6.367-2.85 6.367-6.367" fill="#68696b" transform="translate(881.15123 298.20369)"/><path d="m0 0c0-3.517-2.851-6.367-6.367-6.367-3.517 0-6.368 2.85-6.368 6.367s2.851 6.367 6.368 6.367c3.516 0 6.367-2.85 6.367-6.367" fill="#68696b" transform="translate(909.17193 298.20369)"/><path d="m0 0h-20.165-110.568-21.551c-1.093 0-1.978-.885-1.978-1.978v-40.378h23.529 111.532 21.179v40.378c0 1.093-.886 1.978-1.978 1.978" fill="#f2f3f7" transform="translate(931.45903 345.26629)"/><path d="m0 0h-153.474v2.264c0 1.093.886 1.978 1.978 1.978h132.119c6.795 0 13.388-1.49 19.377-4.242" fill="#00a09d" transform="translate(930.67073 341.02409)"/><path d="m0 0h-135.061v13.288h121.773c7.339 0 13.288-5.949 13.288-13.288" fill="#00a09d" transform="translate(912.25823 302.90999)"/><path d="m0 0h-115.427v2.888h121.773c7.339 0 13.288-5.949 13.288-13.288h-6.67c-1.32 5.948-6.618 10.4-12.964 10.4" fill="#008f8c" transform="translate(892.62383 313.31019)"/><path d="m0 0h-8.698c-2.032 0-3.679 1.647-3.679 3.679v23.767c0 2.032 1.647 3.68 3.679 3.68h8.698c2.032 0 3.679-1.648 3.679-3.68v-23.767c0-2.032-1.647-3.679-3.679-3.679z" fill="none" stroke="#afb0b3" stroke-miterlimit="10" transform="translate(793.45003 306.66599)"/><path d="m0 0h153.474v2.264c0 1.093-.886 1.978-1.978 1.978h-132.119c-6.795 0-13.388-1.49-19.377-4.242" fill="#00a09d" transform="translate(779.96293 341.02409)"/><path d="m0 0h135.061v13.288h-121.773c-7.339 0-13.288-5.949-13.288-13.288" fill="#00a09d" transform="translate(798.37553 302.90999)"/><path d="m0 0h115.427v2.888h-121.773c-7.339 0-13.288-5.949-13.288-13.288h6.67c1.32 5.948 6.618 10.4 12.964 10.4" fill="#008f8c" transform="translate(818.00993 313.31019)"/><path d="m0 0h8.698c2.032 0 3.679 1.647 3.679 3.679v23.767c0 2.032-1.647 3.68-3.679 3.68h-8.698c-2.032 0-3.679-1.648-3.679-3.68v-23.767c0-2.032 1.647-3.679 3.679-3.679z" fill="none" stroke="#afb0b3" stroke-miterlimit="10" transform="translate(917.18373 306.66599)"/><path d="m0 0h-6.591c-1.534 0-2.778 1.244-2.778 2.778v5.304c0 1.534 1.244 2.778 2.778 2.778h6.591c1.534 0 2.778-1.244 2.778-2.778v-5.304c0-1.534-1.244-2.778-2.778-2.778" fill="#77787a" transform="translate(812.38153 321.01129)"/><path d="m0 0h-6.591c-1.534 0-2.778 1.244-2.778 2.778v5.304c0 1.534 1.244 2.778 2.778 2.778h6.591c1.534 0 2.778-1.244 2.778-2.778v-5.304c0-1.534-1.244-2.778-2.778-2.778" fill="#77787a" transform="translate(828.26313 321.01129)"/><path d="m0 0h-6.591c-1.534 0-2.778 1.244-2.778 2.778v5.304c0 1.534 1.244 2.778 2.778 2.778h6.591c1.534 0 2.778-1.244 2.778-2.778v-5.304c0-1.534-1.244-2.778-2.778-2.778" fill="#77787a" transform="translate(844.14473 321.01129)"/><path d="m0 0h-6.591c-1.534 0-2.778 1.244-2.778 2.778v5.304c0 1.534 1.244 2.778 2.778 2.778h6.591c1.534 0 2.778-1.244 2.778-2.778v-5.304c0-1.534-1.244-2.778-2.778-2.778" fill="#77787a" transform="translate(860.02633 321.01129)"/><path d="m0 0h-6.591c-1.534 0-2.778 1.244-2.778 2.778v5.304c0 1.534 1.244 2.778 2.778 2.778h6.591c1.534 0 2.778-1.244 2.778-2.778v-5.304c0-1.534-1.244-2.778-2.778-2.778" fill="#77787a" transform="translate(876.21323 321.01129)"/><path d="m0 0h-6.591c-1.534 0-2.778 1.244-2.778 2.778v5.304c0 1.534 1.244 2.778 2.778 2.778h6.591c1.534 0 2.778-1.244 2.778-2.778v-5.304c0-1.534-1.244-2.778-2.778-2.778" fill="#77787a" transform="translate(892.09483 321.01129)"/><path d="m0 0h-6.591c-1.534 0-2.778 1.244-2.778 2.778v5.304c0 1.534 1.244 2.778 2.778 2.778h6.591c1.534 0 2.778-1.244 2.778-2.778v-5.304c0-1.534-1.244-2.778-2.778-2.778" fill="#77787a" transform="translate(907.97643 321.01129)"/><path d="m0 0h-3.054l-2.192 10.836h3.054z" fill="#898a8c" transform="translate(812.14043 321.03489)"/><path d="m0 0h-.873l-2.192 10.836h.873z" fill="#898a8c" transform="translate(808.63013 321.03489)"/><path d="m0 0h-3.054l-2.192 10.836h3.054z" fill="#898a8c" transform="translate(828.61783 321.03489)"/><path d="m0 0h-.873l-2.192 10.836h.873z" fill="#898a8c" transform="translate(825.10743 321.03489)"/><path d="m0 0h-3.054l-2.192 10.836h3.054z" fill="#898a8c" transform="translate(844.45033 321.03489)"/><path d="m0 0h-.873l-2.192 10.836h.873z" fill="#898a8c" transform="translate(840.93993 321.03489)"/><path d="m0 0h-3.054l-2.192 10.836h3.054z" fill="#898a8c" transform="translate(860.27513 321.03489)"/><path d="m0 0h-.873l-2.192 10.836h.873z" fill="#898a8c" transform="translate(856.76473 321.03489)"/><path d="m0 0h-3.054l-2.192 10.836h3.054z" fill="#898a8c" transform="translate(876.20563 321.03489)"/><path d="m0 0h-.873l-2.192 10.836h.873z" fill="#898a8c" transform="translate(872.69523 321.03489)"/><path d="m0 0h-3.054l-2.192 10.836h3.054z" fill="#898a8c" transform="translate(892.08723 321.03489)"/><path d="m0 0h-.873l-2.192 10.836h.873z" fill="#898a8c" transform="translate(888.57683 321.03489)"/><path d="m0 0h-3.054l-2.192 10.836h3.054z" fill="#898a8c" transform="translate(907.96883 321.03489)"/><path d="m0 0h-.873l-2.192 10.836h.873z" fill="#898a8c" transform="translate(904.45843 321.03489)"/></g></svg>