<svg viewBox="0 0 512 362" xmlns="http://www.w3.org/2000/svg"><g fill="none"><path d="m48 32.984h416v256h-416z" fill="#fff"/><path d="m48 32.984h416v64h-416z" fill="#ff4f19"/><path d="m459.133.984h-406.281c-20.321 0-36.852 16.493-36.852 36.766v291.234c0 4.422 3.578 8 8 8h464c4.422 0 8-3.578 8-8v-291.234c0-20.273-16.539-36.766-36.867-36.766zm-411.133 280v-240c0-4.418 3.582-8 8-8h400c4.418 0 8 3.582 8 8v240c0 4.418-3.582 8-8 8h-400c-4.418 0-8-3.582-8-8z" fill="#5c546a"/><path d="m504 320.984h-496c-4.422 0-8 3.578-8 8 0 17.664 14.367 32.031 32.031 32.031h447.937c17.664 0 32.031-14.367 32.031-32.031 0-4.422-3.577-8-7.999-8z" fill="#b9bbc1"/><path d="m144 72.984h-56c-4.422 0-8-3.578-8-8s3.578-8 8-8h56c4.422 0 8 3.578 8 8s-3.578 8-8 8z" fill="#ffd200"/><path d="m288 72.984h-8c-4.422 0-8-3.578-8-8s3.578-8 8-8h8c4.422 0 8 3.578 8 8s-3.578 8-8 8z" fill="#fff"/><path d="m328 72.984h-8c-4.422 0-8-3.578-8-8s3.578-8 8-8h8c4.422 0 8 3.578 8 8s-3.578 8-8 8z" fill="#fff"/><path d="m368 72.984h-8c-4.422 0-8-3.578-8-8s3.578-8 8-8h8c4.422 0 8 3.578 8 8s-3.578 8-8 8z" fill="#fff"/><path d="m408 72.984h-8c-4.422 0-8-3.578-8-8s3.578-8 8-8h8c4.422 0 8 3.578 8 8s-3.578 8-8 8z" fill="#fff"/><path d="m224 264.984h-136c-4.418 0-8-3.582-8-8v-128c0-4.418 3.582-8 8-8h136c4.418 0 8 3.582 8 8v128c0 4.418-3.582 8-8 8z" fill="#53dcff"/><path d="m416 136.984h-152c-4.422 0-8-3.578-8-8s3.578-8 8-8h152c4.422 0 8 3.578 8 8s-3.578 8-8 8z" fill="#ff4f19"/><g fill="#b9bbc1"><path d="m328 200.984h-64c-4.422 0-8-3.578-8-8s3.578-8 8-8h64c4.422 0 8 3.578 8 8s-3.578 8-8 8z"/><path d="m328 232.984h-64c-4.422 0-8-3.578-8-8s3.578-8 8-8h64c4.422 0 8 3.578 8 8s-3.578 8-8 8z"/><path d="m328 264.984h-64c-4.422 0-8-3.578-8-8s3.578-8 8-8h64c4.422 0 8 3.578 8 8s-3.578 8-8 8z"/><path d="m424 200.984h-64c-4.422 0-8-3.578-8-8s3.578-8 8-8h64c4.422 0 8 3.578 8 8s-3.578 8-8 8z"/><path d="m424 232.984h-64c-4.422 0-8-3.578-8-8s3.578-8 8-8h64c4.422 0 8 3.578 8 8s-3.578 8-8 8z"/><path d="m424 264.984h-64c-4.422 0-8-3.578-8-8s3.578-8 8-8h64c4.422 0 8 3.578 8 8s-3.578 8-8 8z"/></g><path d="m368 168.984h-104c-4.422 0-8-3.578-8-8s3.578-8 8-8h104c4.422 0 8 3.578 8 8s-3.578 8-8 8z" fill="#e9001e"/><path d="m224 336.984h64c8.836 0 16-7.164 16-16h-96c0 8.837 7.163 16 16 16z" fill="#8b8996"/></g></svg>