<svg viewBox="0 0 559 559" xmlns="http://www.w3.org/2000/svg"><path d="m89 168.955c.0131 1.961.6658 3.865 1.8587 5.42 1.193 1.556 2.861 2.679 4.7502 3.198l183.3911 73.427 183.391-73.427c1.888-.522 3.554-1.645 4.746-3.201 1.193-1.555 1.847-3.456 1.863-5.417-1.761-13.804-8.488-26.492-18.921-35.688-10.434-9.195-23.858-14.268-37.759-14.267h-266.64c-13.901-.001-27.325 5.072-37.759 14.267-10.4331 9.196-17.1602 21.884-18.921 35.688z"/><path d="m469 229.534c.003-1.554-.376-3.085-1.103-4.459-.727-1.373-1.78-2.548-3.067-3.42-1.286-.872-2.767-1.415-4.313-1.581-1.545-.167-3.108.049-4.551.627l-162.849 65.14c-9.062 3.626-19.172 3.626-28.234 0l-162.849-65.159c-1.444-.579-3.0088-.794-4.5558-.627s-3.0292.712-4.3164 1.586c-1.2871.875-2.3398 2.052-3.0655 3.428s-1.1021 2.91-1.0962 4.465v136.475c0 15.115 6.0053 29.611 16.6949 40.299 10.69 10.688 25.188 16.692 40.305 16.692h266c15.117 0 29.616-6.004 40.305-16.692 10.69-10.688 16.695-25.184 16.695-40.299z"/></svg>