<svg viewBox="0 0 245 55" width="100" xmlns="http://www.w3.org/2000/svg"><path d="m158.248 38.0664c-5.1 0-7.719-4.1992-7.719-9.3569 0-5.1576 2.573-9.1286 7.719-9.1286 5.238 0 7.72 4.1535 7.72 9.1286-.046 5.249-2.665 9.3569-7.72 9.3569zm-49.9-18.4855c2.986 0 4.227 1.7345 4.227 3.2407 0 3.6514-3.722 5.2489-11.487 5.4772 0-4.5187 2.573-8.7179 7.26-8.7179zm-33.0836 18.4855c-4.8246 0-6.8464-3.9253-6.8464-9.3569 0-5.3858 2.0677-9.1286 6.8464-9.1286 4.8706 0 7.1681 3.8797 7.1681 9.1286 0 5.4772-2.3894 9.3569-7.1681 9.3569zm-40.8027-23.8257h-7.5356l12.4981 28.6639c-2.3893 5.2946-3.6759 6.6182-5.3301 6.6182-1.746 0-3.4002-1.4149-4.5949-2.6473l-3.3083 4.3818c2.2515 2.3734 5.3301 3.7427 8.5006 3.7427 3.9516 0 6.9842-2.2822 8.7303-6.39l14.428-34.415h-7.3978l-7.5356 20.5394zm199.6023 5.3402c3.676 0 4.411 2.5104 4.411 8.3984v15.473h6.525v-19.5353c0-7.029-4.825-10.0871-9.282-10.0871-3.951 0-7.581 2.4647-9.603 7.029-1.149-4.3817-4.825-7.029-9.098-7.029-3.722 0-7.444 2.3734-9.465 6.8008v-6.39h-6.525v29.1659h6.525v-12.4605c0-6.2988 3.308-11.3652 7.811-11.3652 3.676 0 4.365 2.5104 4.365 8.3984v15.473h6.525l-.046-12.5062c0-6.2988 3.354-11.3652 7.857-11.3652zm-52.064-5.3402h-3.304v29.1659h6.524v-11.1825c0-7.0747 3.125-11.8673 7.766-11.8673 1.194 0 2.205.0457 3.308.5021l1.011-6.8921c-.827-.0913-1.562-.1826-2.298-.1826-4.594 0-7.903 3.1494-9.833 7.2117v-6.7552zm-23.752-.4565c-8.638 0-14.474 6.5726-14.474 14.8797 0 8.6266 5.928 15.0622 14.474 15.0622 8.685 0 14.612-6.6182 14.612-15.0622-.046-8.3527-6.065-14.8797-14.612-14.8797zm-49.533 24.2822c-3.4 0-5.927-1.7344-6.984-5.249 8.638-.3651 17.093-2.4647 17.093-10.0871 0-4.3818-4.319-8.9004-10.522-8.9004-8.363 0-14.0147 6.8008-14.0147 14.8796 0 8.444 5.5598 15.0623 13.8767 15.0623 5.789 0 9.465-2.3278 12.36-5.7054l-3.17-4.2905c-3.355 3.4233-5.422 4.2905-8.639 4.2905zm-32.164-24.2822c-3.3083 0-6.6166 1.917-7.9032 4.9295v-4.473h-6.5248v40.6224h6.5248v-14.5146c1.3785 2.0996 4.5489 3.4689 7.3518 3.4689 8.6844 0 13.2793-6.4357 13.2793-15.1079-.046-8.5809-4.549-14.9253-12.7279-14.9253zm-45.7652-11.22818h-30.7858v6.3444h12.0386v34.50618h6.8464v-34.50618h11.9008zm96.9982 11.68468h-3.906v5.8423h3.906v23.3236h6.525v-23.3236h6.341v-5.8423h-6.341v-4.56435c0-2.92116 1.195-3.92531 3.906-3.92531 1.01 0 1.929.27386 3.17.68464l1.47-5.477174c-1.194-.684647-3.584-.958506-5.146-.958506-6.249 0-9.925 3.74274-9.925 10.2241z"/></svg>