<svg viewBox="0 0 559 559" xmlns="http://www.w3.org/2000/svg"><path d="m443.58 188.449c-16.946-29.056-39.931-52.059-68.963-69.015-29.036-16.958-60.735-25.434-95.119-25.434-34.379 0-66.088 8.479-95.118 25.434-29.035 16.955-52.019 39.959-68.965 69.015-16.9431 29.055-25.415 60.783-25.415 95.183 0 41.323 12.047 78.481 36.148 111.485 24.098 33.006 55.229 55.845 93.39 68.519 4.442.825 7.73.245 9.868-1.726 2.139-1.973 3.208-4.445 3.208-7.405 0-.494-.043-4.936-.125-13.333-.085-8.397-.124-15.722-.124-21.973l-5.676.983c-3.618.663-8.183.944-13.694.865-5.509-.077-11.227-.655-17.148-1.729-5.923-1.065-11.433-3.534-16.533-7.402-5.097-3.869-8.715-8.933-10.854-15.184l-2.467-5.682c-1.645-3.783-4.234-7.985-7.772-12.591-3.537-4.611-7.114-7.736-10.732-9.382l-1.728-1.238c-1.151-.822-2.219-1.814-3.207-2.965-.987-1.152-1.726-2.303-2.219-3.457-.495-1.155-.085-2.102 1.233-2.845s3.7-1.103 7.156-1.103l4.933.737c3.29.66 7.359 2.631 12.214 5.926 4.851 3.291 8.84 7.571 11.966 12.836 3.785 6.751 8.345 11.895 13.694 15.435 5.344 3.54 10.733 5.306 16.16 5.306s10.115-.411 14.064-1.23c3.946-.824 7.647-2.061 11.103-3.706 1.48-11.034 5.511-19.51 12.089-25.435-9.375-.986-17.804-2.471-25.291-4.446-7.482-1.977-15.214-5.185-23.191-9.634-7.981-4.443-14.602-9.96-19.864-16.541-5.263-6.585-9.583-15.23-12.952-25.928-3.372-10.701-5.058-23.046-5.058-37.038 0-19.922 6.499-36.875 19.495-50.868-6.088-14.978-5.513-31.768 1.725-50.369 4.771-1.483 11.845-.37 21.22 3.332 9.377 3.704 16.243 6.878 20.603 9.508 4.361 2.63 7.855 4.859 10.488 6.667 15.301-4.279 31.091-6.418 47.375-6.418 16.283 0 32.077 2.139 47.379 6.418l9.376-5.924c6.411-3.952 13.983-7.574 22.696-10.867 8.718-3.29 15.385-4.197 19.993-2.713 7.399 18.602 8.058 35.391 1.969 50.369 12.995 13.993 19.496 30.95 19.496 50.868 0 13.991-1.692 26.375-5.058 37.159-3.371 10.785-7.727 19.422-13.072 25.927-5.35 6.505-12.013 11.979-19.99 16.42-7.978 4.446-15.713 7.654-23.195 9.631-7.486 1.977-15.915 3.463-25.29 4.451 8.55 7.405 12.827 19.093 12.827 35.06v52.096c0 2.96 1.028 5.431 3.087 7.405 2.056 1.971 5.302 2.552 9.745 1.726 38.166-12.673 69.297-35.513 93.394-68.519 24.094-33.004 36.146-70.162 36.146-111.485-.009-34.396-8.485-66.121-25.42-95.176z"/></svg>