<svg viewBox="0 0 526 526" xmlns="http://www.w3.org/2000/svg"><g fill="none" fill-rule="evenodd"><path d="m263.003891 512.004637c137.518902 0 249-111.481098 249-249 0-137.518903-111.481098-249.0000004-249-249.0000004-137.518903 0-249.0000004 111.4810974-249.0000004 249.0000004-.1820331 22.731346 4.8234793 51.119018 15.0165374 85.163015 10.193058 34.043997 23.6042479 60.503834 40.2335695 79.379509" stroke="#000" stroke-linecap="round" stroke-width="28" transform="matrix(.17364818 -.98480775 .98480775 .17364818 -41.679152 476.337995)"/><g fill="#000"><g transform="translate(146 63.575906)"><path d="m71.1132813 4.59596884c-9.1262679 3.22953593-16.9560181 25.28351736-23.4892505 66.16194416-6.5332325 40.878427-2.8577576 75.80368 11.0264247 104.775758 23.1162012-36.900798 49.8233405-66.914256 80.1214185-90.0403741 30.298079-23.1261182 63.620214-38.9981442 99.966407-47.6160781-11.904665-16.0595415-38.20805-27.1532915-78.910156-33.28124996-40.702106-6.12795845-70.2737205-6.12795845-88.7148437 0z"/><path d="m26.6250387 230.020063c-9.1262679 3.229536-16.95601801 25.283517-23.48925045 66.161944s-2.85775752 75.803679 11.02642475 104.775758c23.1162012-36.900798 49.8233408-66.914256 80.1214189-90.040374s63.6202141-38.998144 99.9664071-47.616078c-11.904665-16.059542-38.208051-27.153292-78.910157-33.28125-40.7021055-6.127959-70.27372-6.127959-88.7148433 0z" transform="matrix(-1 0 0 -1 194.250038 626.381858)"/></g><g transform="matrix(.5 .8660254 -.8660254 .5 379.388093 60.33587)"><path d="m71.1132813 4.59596884c-9.1262679 3.22953593-16.9560181 25.28351736-23.4892505 66.16194416-6.5332325 40.878427-2.8577576 75.80368 11.0264247 104.775758 23.1162012-36.900798 49.8233405-66.914256 80.1214185-90.0403741 30.298079-23.1261182 63.620214-38.9981442 99.966407-47.6160781-11.904665-16.0595415-38.20805-27.1532915-78.910156-33.28124996-40.702106-6.12795845-70.2737205-6.12795845-88.7148437 0z"/><path d="m26.6250387 230.020063c-9.1262679 3.229536-16.95601801 25.283517-23.48925045 66.161944s-2.85775752 75.803679 11.02642475 104.775758c23.1162012-36.900798 49.8233408-66.914256 80.1214189-90.040374s63.6202141-38.998144 99.9664071-47.616078c-11.904665-16.059542-38.208051-27.153292-78.910157-33.28125-40.7021055-6.127959-70.27372-6.127959-88.7148433 0z" transform="matrix(-1 0 0 -1 194.250038 626.381858)"/></g><g transform="matrix(.5 -.8660254 .8660254 .5 32.111907 267.315942)"><path d="m71.1132813 4.59596884c-9.1262679 3.22953593-16.9560181 25.28351736-23.4892505 66.16194416-6.5332325 40.878427-2.8577576 75.80368 11.0264247 104.775758 23.1162012-36.900798 49.8233405-66.914256 80.1214185-90.0403741 30.298079-23.1261182 63.620214-38.9981442 99.966407-47.6160781-11.904665-16.0595415-38.20805-27.1532915-78.910156-33.28124996-40.702106-6.12795845-70.2737205-6.12795845-88.7148437 0z"/><path d="m26.6250387 230.020063c-9.1262679 3.229536-16.95601801 25.283517-23.48925045 66.161944s-2.85775752 75.803679 11.02642475 104.775758c23.1162012-36.900798 49.8233408-66.914256 80.1214189-90.040374s63.6202141-38.998144 99.9664071-47.616078c-11.904665-16.059542-38.208051-27.153292-78.910157-33.28125-40.7021055-6.127959-70.27372-6.127959-88.7148433 0z" transform="matrix(-1 0 0 -1 194.250038 626.381858)"/></g></g></g></svg>