<svg viewBox="0 0 559 559" xmlns="http://www.w3.org/2000/svg"><path d="m448.539 308.462c16.271-92.277-45.344-180.273-137.622-196.544-92.277-16.2708-180.272 45.344-196.543 137.622-16.2714 92.277 45.344 180.272 137.621 196.543 15.232 2.812 34.872 2.812 58.922 0 24.05-2.811 43.392-8.68 58.026-17.605" fill="none" stroke="#000" stroke-linecap="round" stroke-width="28"/><g clip-rule="evenodd" fill-rule="evenodd"><path d="m250.191 146.252c-6.219 2.2-11.554 17.227-16.005 45.08-4.452 27.853-1.947 51.65 7.513 71.391 15.75-25.143 33.948-45.593 54.592-61.351 20.644-15.757 43.349-26.572 68.114-32.444-8.112-10.942-26.034-18.501-53.767-22.676-27.733-4.176-47.882-4.176-60.447 0z"/><path d="m315.95 413.188c6.219-2.201 11.554-17.228 16.005-45.081 4.452-27.853 1.947-51.65-7.513-71.39-15.75 25.143-33.948 45.593-54.592 61.35s-43.349 26.572-68.114 32.444c8.112 10.943 26.034 18.501 53.767 22.677 27.733 4.175 47.882 4.175 60.447 0z"/><path d="m382.274 184.441c-5.015-4.285-20.696-1.392-47.043 8.679-26.347 10.072-45.704 24.139-58.07 42.202 29.65 1.069 56.459 6.603 80.427 16.603 23.969 10 44.687 24.255 62.155 42.766 5.42-12.496 3.005-31.796-7.245-57.901-10.251-26.106-20.325-43.555-30.224-52.349z"/><path d="m183.981 374.858c5.015 4.285 20.696 1.392 47.043-8.68 26.347-10.071 45.704-24.138 58.07-42.201-29.65-1.069-56.459-6.604-80.427-16.603-23.969-10-44.687-24.255-62.155-42.766-5.42 12.495-3.005 31.796 7.245 57.901 10.251 26.105 20.325 43.555 30.224 52.349z"/><path d="m151.076 241.545c-1.203 6.485 9.143 18.619 31.038 36.401 21.896 17.781 43.757 27.511 65.583 29.188-13.899-26.211-22.511-52.196-25.835-77.953s-1.338-50.827 5.96-75.21c-13.533 1.553-29.04 13.295-46.522 35.225-17.483 21.93-27.557 39.379-30.224 52.349z"/><path d="m415.129 318.063c1.204-6.485-9.142-18.619-31.038-36.401-21.896-17.781-43.757-27.511-65.583-29.189 13.899 26.212 22.511 52.197 25.835 77.954s1.338 50.827-5.959 75.21c13.532-1.554 29.039-13.295 46.522-35.225 17.482-21.93 27.557-39.379 30.223-52.349z"/></g></svg>