<svg viewBox="0 0 400 400" xmlns="http://www.w3.org/2000/svg"><path d="m156.406 295.493c88.683 0 137.179-73.471 137.179-137.179 0-2.088-.042-4.166-.137-6.233 9.413-6.805 17.596-15.296 24.052-24.964-8.639 3.837-17.936 6.424-27.688 7.59 9.954-5.968 17.596-15.413 21.201-26.67-9.318 5.522-19.632 9.54-30.614 11.702-8.799-9.371-21.328-15.232-35.194-15.232-26.628 0-48.221 21.592-48.221 48.21 0 3.784.424 7.463 1.251 10.993-40.07-2.014-75.602-21.201-99.379-50.373-4.144 7.123-6.53 15.402-6.53 24.232 0 16.728 8.513 31.494 21.456 40.133-7.908-.243-15.339-2.417-21.837-6.031-.011.201-.011.403-.011.614 0 23.353 16.622 42.847 38.681 47.268-4.049 1.102-8.311 1.696-12.71 1.696-3.106 0-6.127-.308-9.063-.87 6.138 19.155 23.936 33.095 45.041 33.487-16.505 12.932-37.292 20.639-59.882 20.639-3.89 0-7.727-.223-11.501-.668 21.339 13.674 46.674 21.656 73.906 21.656" fill="#4591c2"/></svg>